<?xml version="1.0" encoding="UTF-8" standalone="no"?>
<svg
   xmlns:dc="http://purl.org/dc/elements/1.1/"
   xmlns:cc="http://creativecommons.org/ns#"
   xmlns:rdf="http://www.w3.org/1999/02/22-rdf-syntax-ns#"
   xmlns:svg="http://www.w3.org/2000/svg"
   xmlns="http://www.w3.org/2000/svg"
   viewBox="0 0 274.10666 274.17334"
   height="274.17334"
   width="274.10666"
   xml:space="preserve"
   id="svg2"
   version="1.1"><metadata
     id="metadata8"><rdf:RDF><cc:Work
         rdf:about=""><dc:format>image/svg+xml</dc:format><dc:type
           rdf:resource="http://purl.org/dc/dcmitype/StillImage" /></cc:Work></rdf:RDF></metadata><defs
     id="defs6" /><g
     transform="matrix(1.3333333,0,0,-1.3333333,0,274.17333)"
     id="g10"><g
       transform="scale(0.1)"
       id="g12"><path
         id="path14"
         style="fill:#7fadb7;fill-opacity:1;fill-rule:evenodd;stroke:none"
         d="m 1046.56,212.641 c -172.451,0 -332.63,51.031 -466.81,139.379 L 253.738,248.059 359.563,560.871 C 257.98,699.781 197.977,870.32 197.977,1054.61 c 0,27.41 1.429,54.8 4.242,81.72 41.594,426.21 404.453,760.24 844.341,760.24 445.56,0 811.74,-342.54 845.73,-776.28 1.91,-21.77 2.85,-43.48 2.85,-65.68 0,-464.462 -380.82,-841.969 -848.58,-841.969 z m 1008.76,867.479 c -13.7,541.47 -459.73,976.14 -1008.76,976.14 -542.408,0 -984.6577,-424.75 -1008.2709,-957.74 -0.4727,-14.62 -0.9414,-29.29 -0.9414,-43.91 0,-189.469 52.8984,-366.18 144.5743,-517.391 L 0,0.0117188 558.949,177.68 C 703.539,98.3086 869.844,52.9297 1046.56,52.9297 c 557.54,0 1009.22,448.4023 1009.22,1001.6803 0,8.51 0,17 -0.46,25.51" /><path
         id="path16"
         style="fill:#7fadb7;fill-opacity:1;fill-rule:evenodd;stroke:none"
         d="m 1509.14,852.391 c -25.05,12.257 -146.49,71.82 -169.17,79.828 -22.7,8.519 -39.23,12.293 -55.76,-12.278 -16.54,-24.55 -64.25,-79.839 -78.43,-95.91 -14.64,-16.531 -28.8,-18.429 -53.85,-6.14 -24.57,12.289 -104.41,37.789 -198.914,121.91 -73.231,64.719 -123.321,145.039 -137.504,169.609 -14.16,24.57 -1.407,37.79 10.879,50.09 11.328,11.32 24.57,28.81 37.308,42.98 3.332,4.27 6.145,8.04 8.981,11.82 5.672,8.98 9.918,17.49 15.59,29.3 8.511,16.52 4.269,30.7 -1.872,42.99 -6.152,12.29 -55.761,133.24 -76.562,182.39 -20.301,49.12 -41.086,40.64 -55.734,40.64 -14.188,0 -30.719,2.34 -47.254,2.34 -16.532,0 -43.469,-6.15 -66.153,-30.69 -22.675,-24.58 -86.453,-84.12 -86.453,-205.07 0,-28.34 5.203,-56.7 12.754,-83.64 25.043,-86.45 78.906,-157.79 88.359,-170.1 12.266,-16.06 171.036,-272.132 422.385,-370.901 251.83,-97.797 251.83,-65.188 297.2,-60.938 45.35,3.801 146.48,59.059 166.77,116.699 20.82,57.168 20.82,106.321 14.66,116.711 -6.15,9.918 -22.7,16.071 -47.23,28.36" /></g></g></svg>