<?xml version="1.0" encoding="UTF-8" standalone="no"?>
<svg
   xmlns:dc="http://purl.org/dc/elements/1.1/"
   xmlns:cc="http://creativecommons.org/ns#"
   xmlns:rdf="http://www.w3.org/1999/02/22-rdf-syntax-ns#"
   xmlns:svg="http://www.w3.org/2000/svg"
   xmlns="http://www.w3.org/2000/svg"
   viewBox="0 0 274 274"
   height="274"
   width="274"
   xml:space="preserve"
   id="svg2"
   version="1.1"><metadata
     id="metadata8"><rdf:RDF><cc:Work
         rdf:about=""><dc:format>image/svg+xml</dc:format><dc:type
           rdf:resource="http://purl.org/dc/dcmitype/StillImage" /></cc:Work></rdf:RDF></metadata><defs
     id="defs6" /><g
     transform="matrix(1.3333333,0,0,-1.3333333,0,274)"
     id="g10"><g
       transform="scale(0.1)"
       id="g12"><path
         id="path14"
         style="fill:#7fadb7;fill-opacity:1;fill-rule:nonzero;stroke:none"
         d="m 1027.52,2055.04 c -279.071,0 -314.055,-1.19 -423.661,-6.18 -109.367,-4.99 -184.043,-22.38 -249.41,-47.77 -67.582,-26.25 -124.875,-61.38 -182.004,-118.52 -57.121,-57.12 -92.2575,-114.44 -118.4919,-182 C 28.543,1635.21 11.1602,1560.53 6.1875,1451.16 1.17969,1341.56 0.00390625,1306.58 0.00390625,1027.52 0.00390625,748.449 1.17969,713.469 6.1875,603.859 11.1602,494.488 28.543,419.809 53.9531,354.449 80.1875,286.898 115.324,229.57 172.445,172.449 229.574,115.32 286.867,80.1914 354.449,53.9297 419.816,28.5508 494.492,11.1602 603.859,6.17188 713.465,1.17969 748.449,0 1027.52,0 c 279.04,0 314.04,1.17969 423.63,6.17188 109.38,4.98832 184.06,22.37892 249.42,47.75782 67.58,26.2617 124.88,61.3903 182,118.5193 57.13,57.121 92.27,114.449 118.53,182 25.38,65.36 42.77,140.039 47.76,249.41 4.99,109.61 6.16,144.59 6.16,423.661 0,279.06 -1.17,314.04 -6.16,423.64 -4.99,109.37 -22.38,184.05 -47.76,249.41 -26.26,67.56 -61.4,124.88 -118.53,182 -57.12,57.14 -114.42,92.27 -182,118.52 -65.36,25.39 -140.04,42.78 -249.42,47.77 -109.59,4.99 -144.59,6.18 -423.63,6.18 m 0,-185.14 c 274.37,0 306.85,-1.04 415.2,-5.99 100.16,-4.56 154.58,-21.31 190.81,-35.39 47.95,-18.64 82.19,-40.89 118.12,-76.85 35.98,-35.97 58.23,-70.19 76.87,-118.14 14.08,-36.23 30.8,-90.62 35.39,-190.82 4.93,-108.34 5.99,-140.83 5.99,-415.19 0,-274.372 -1.06,-306.872 -5.99,-415.211 -4.59,-100.188 -21.31,-154.579 -35.39,-190.789 -18.64,-47.969 -40.89,-82.188 -76.87,-118.161 -35.93,-35.937 -70.17,-58.211 -118.12,-76.859 -36.23,-14.078 -90.65,-30.828 -190.81,-35.391 -108.35,-4.918 -140.82,-5.961 -415.2,-5.961 -274.403,0 -306.864,1.043 -415.211,5.961 -100.172,4.563 -154.59,21.313 -190.789,35.391 -47.977,18.648 -82.196,40.922 -118.157,76.859 -35.945,35.973 -58.218,70.192 -76.863,118.161 -14.062,36.21 -30.801,90.601 -35.391,190.789 -4.929,108.339 -5.976,140.839 -5.976,415.211 0,274.36 1.047,306.85 5.976,415.19 4.59,100.2 21.329,154.59 35.391,190.82 18.645,47.95 40.918,82.17 76.863,118.14 35.961,35.96 70.18,58.21 118.157,76.85 36.199,14.08 90.617,30.83 190.789,35.39 108.347,4.95 140.855,5.99 415.211,5.99" /><path
         id="path16"
         style="fill:#7fadb7;fill-opacity:1;fill-rule:nonzero;stroke:none"
         d="m 1027.52,685.012 c -189.176,0 -342.512,153.359 -342.512,342.508 0,189.16 153.336,342.5 342.512,342.5 189.16,0 342.49,-153.34 342.49,-342.5 0,-189.149 -153.33,-342.508 -342.49,-342.508 m 0,870.148 c -291.399,0 -527.649,-236.23 -527.649,-527.64 0,-291.418 236.25,-527.649 527.649,-527.649 291.41,0 527.64,236.231 527.64,527.649 0,291.41 -236.23,527.64 -527.64,527.64" /><path
         id="path18"
         style="fill:#7fadb7;fill-opacity:1;fill-rule:nonzero;stroke:none"
         d="m 1699.32,1576.02 c 0,-68.09 -55.22,-123.32 -123.31,-123.32 -68.12,0 -123.31,55.23 -123.31,123.32 0,68.09 55.19,123.3 123.31,123.3 68.09,0 123.31,-55.21 123.31,-123.3" /></g></g></svg>