<?xml version="1.0" encoding="UTF-8" standalone="no"?>
<svg
   xmlns:dc="http://purl.org/dc/elements/1.1/"
   xmlns:cc="http://creativecommons.org/ns#"
   xmlns:rdf="http://www.w3.org/1999/02/22-rdf-syntax-ns#"
   xmlns:svg="http://www.w3.org/2000/svg"
   xmlns="http://www.w3.org/2000/svg"
   viewBox="0 0 250.48 250.60001"
   height="250.60001"
   width="250.48"
   xml:space="preserve"
   id="svg2"
   version="1.1"><metadata
     id="metadata8"><rdf:RDF><cc:Work
         rdf:about=""><dc:format>image/svg+xml</dc:format><dc:type
           rdf:resource="http://purl.org/dc/dcmitype/StillImage" /></cc:Work></rdf:RDF></metadata><defs
     id="defs6" /><g
     transform="matrix(1.3333333,0,0,-1.3333333,0,250.6)"
     id="g10"><g
       transform="scale(0.1)"
       id="g12"><path
         id="path14"
         style="fill:#7fadb7;fill-opacity:1;fill-rule:nonzero;stroke:none"
         d="M 37.2695,0 H 425.113 V 1252.97 H 37.2695 V 0" /><path
         id="path16"
         style="fill:#7fadb7;fill-opacity:1;fill-rule:nonzero;stroke:none"
         d="m 229.336,1417.03 c 126.687,0 229.336,103.61 229.336,231.26 0,127.65 -102.649,231.17 -229.336,231.17 C 102.625,1879.46 0,1775.94 0,1648.29 0,1520.64 102.625,1417.03 229.336,1417.03" /><path
         id="path18"
         style="fill:#7fadb7;fill-opacity:1;fill-rule:nonzero;stroke:none"
         d="m 1045.11,657.73 c 0,176.129 81.06,281.086 236.31,281.086 142.6,0 211.14,-100.738 211.14,-281.086 0,-180.468 0,-657.73 0,-657.73 h 386.02 c 0,0 0,457.699 0,793.328 0,335.622 -190.24,497.882 -455.88,497.882 -265.77,0 -377.59,-207.02 -377.59,-207.02 v 168.78 H 673.055 V 0 h 372.055 c 0,0 0,464.691 0,657.73" /></g></g></svg>