<?xml version="1.0" encoding="UTF-8" standalone="no"?>
<svg
   xmlns:dc="http://purl.org/dc/elements/1.1/"
   xmlns:cc="http://creativecommons.org/ns#"
   xmlns:rdf="http://www.w3.org/1999/02/22-rdf-syntax-ns#"
   xmlns:svg="http://www.w3.org/2000/svg"
   xmlns="http://www.w3.org/2000/svg"
   viewBox="0 0 947.90668 346.45334"
   height="346.45334"
   width="947.90668"
   xml:space="preserve"
   id="svg2"
   version="1.1"><metadata
     id="metadata8"><rdf:RDF><cc:Work
         rdf:about=""><dc:format>image/svg+xml</dc:format><dc:type
           rdf:resource="http://purl.org/dc/dcmitype/StillImage" /></cc:Work></rdf:RDF></metadata><defs
     id="defs6" /><g
     transform="matrix(1.3333333,0,0,-1.3333333,0,346.45333)"
     id="g10"><g
       transform="scale(0.1)"
       id="g12"><path
         id="path14"
         style="fill:#efa378;fill-opacity:1;fill-rule:nonzero;stroke:none"
         d="m 3367.54,284.859 h -82.98 v -130.89 h 82.98 c 23.11,0 41.08,5.57 53.9,17.113 12.42,11.566 18.82,27.387 18.82,48.34 0,20.957 -6.4,36.789 -18.82,48.328 -12.82,11.559 -30.79,17.109 -53.9,17.109 z M 3261.48,5.98828 V 305.398 h 108.64 c 13.26,0 25.25,-1.718 36.79,-5.566 11.11,-3.832 20.95,-9.402 29.51,-16.672 8.13,-7.269 14.98,-16.262 19.67,-26.949 4.72,-10.691 7.28,-23.102 7.28,-36.789 0,-13.684 -2.56,-25.66 -7.28,-36.352 -4.69,-10.711 -11.54,-19.672 -19.67,-26.949 -8.56,-7.269 -18.4,-12.84 -29.51,-16.691 -11.54,-3.84 -23.53,-5.981 -36.79,-5.981 h -85.56 V 5.98828 h -23.08" /><path
         id="path16"
         style="fill:#efa378;fill-opacity:1;fill-rule:nonzero;stroke:none"
         d="M 3969.64,284.859 H 3878.1 V 157.398 h 91.54 c 23.11,0 41.07,5.563 53.89,16.684 12.42,10.699 18.83,26.527 18.83,47.047 0,20.543 -6.41,36.359 -18.83,47.492 -12.82,10.688 -30.78,16.238 -53.89,16.238 z m 95.83,-63.73 c 0,-12.399 -2.14,-23.52 -6,-33.359 -4.27,-9.829 -9.83,-18.391 -17.11,-25.239 -7.26,-7.269 -15.39,-12.832 -25.22,-17.101 -9.84,-4.282 -20.98,-6.848 -32.52,-8.129 L 4056.91,5.98828 h -25.67 L 3960.66,136.871 H 3878.1 V 5.98828 h -23.08 V 305.398 h 117.2 c 13.26,0 25.22,-1.718 36.79,-5.566 11.11,-3.832 20.95,-8.98 29.5,-16.25 8.14,-7.273 14.98,-15.832 19.68,-26.523 4.72,-10.68 7.28,-22.668 7.28,-35.93" /><path
         id="path18"
         style="fill:#efa378;fill-opacity:1;fill-rule:nonzero;stroke:none"
         d="m 4459.66,305.398 h 183.06 V 284.859 H 4482.74 V 166.391 h 148.01 V 145.859 H 4482.74 V 26.5195 h 161.69 V 5.98828 H 4459.66 V 305.398" /><path
         id="path20"
         style="fill:#efa378;fill-opacity:1;fill-rule:nonzero;stroke:none"
         d="m 5042.08,305.398 h 42.78 L 5189.22,32.5117 h 5.14 l 104.36,272.8863 h 42.78 V 5.98828 h -23.11 V 278.031 h -5.12 L 5209.31,5.98828 h -35.07 L 5070.31,278.031 h -5.15 V 5.98828 h -23.08 V 305.398" /><path
         id="path22"
         style="fill:#efa378;fill-opacity:1;fill-rule:nonzero;stroke:none"
         d="m 5753.63,305.398 h 23.09 V 5.98828 h -23.09 V 305.398" /><path
         id="path24"
         style="fill:#efa378;fill-opacity:1;fill-rule:nonzero;stroke:none"
         d="m 6187.23,305.398 h 23.09 V 103.082 c 0,-28.2422 7.28,-49.1836 21.83,-62.4531 14.53,-13.2578 35.05,-20.0976 61.15,-20.0976 26.09,0 46.62,6.8398 61.17,20.0976 14.55,13.2695 21.81,34.2109 21.81,62.4531 v 202.316 h 23.1 V 103.082 c 0,-17.5429 -2.56,-32.9336 -7.7,-45.7812 -5.12,-13.25 -12.4,-23.9414 -21.8,-32.082 C 6360.47,16.6719 6349.32,10.2617 6336.5,6.41016 6323.26,2.12891 6309.13,0 6293.3,0 c -15.81,0 -29.93,2.12891 -42.77,6.41016 -13.27,3.85154 -24.38,10.26174 -33.78,18.80864 -9.42,8.1406 -16.69,18.832 -21.84,32.082 -5.12,12.8476 -7.68,28.2383 -7.68,45.7812 v 202.316" /><path
         id="path26"
         style="fill:#efa378;fill-opacity:1;fill-rule:nonzero;stroke:none"
         d="m 6809.83,305.398 h 42.78 L 6956.97,32.5117 h 5.15 l 104.35,272.8863 h 42.79 V 5.98828 h -23.12 V 278.031 h -5.12 L 6977.07,5.98828 h -35.08 L 6838.06,278.031 h -5.14 V 5.98828 h -23.09 V 305.398" /><path
         id="path28"
         style="fill:#efa378;fill-opacity:1;fill-rule:nonzero;stroke:none"
         d="M 832.434,1432.26 V 622.941 H 693.684 L 695.988,1133.95 457.84,622.941 H 374.594 L 138.723,1116.6 V 622.941 H -0.00390625 V 1432.26 H 138.723 L 416.219,870.352 693.684,1432.26 h 138.75" /><path
         id="path30"
         style="fill:#efa378;fill-opacity:1;fill-rule:nonzero;stroke:none"
         d="m 1573.49,950.141 -114.46,299.439 -113.3,-299.439 z m 52.03,-138.75 h -332.97 l -71.67,-188.45 h -138.75 l 307.52,809.319 H 1528.4 L 1835.94,622.941 H 1697.2 l -71.68,188.45" /><path
         id="path32"
         style="fill:#efa378;fill-opacity:1;fill-rule:nonzero;stroke:none"
         d="m 2350.43,992.898 c 19.25,0 39.48,2.321 60.69,6.934 21.2,4.638 40.85,12.528 58.96,23.698 18.12,11.18 32.96,26.22 44.51,45.09 11.57,18.89 17.35,42.98 17.35,72.27 0,29.29 -5.78,53.77 -17.35,73.42 -11.55,19.64 -26.39,35.27 -44.51,46.81 -18.11,11.58 -37.76,19.84 -58.96,24.87 -21.21,5.01 -41.44,7.52 -60.69,7.52 H 2219.78 V 992.898 Z m 80.36,-133.328 c -26.74,-3.898 -53.81,-5.39 -80.02,-5.39 H 2219.78 V 622.941 h -138.75 v 809.319 h 269.93 c 101.15,0 179.74,-24.87 235.73,-74.59 55.99,-49.71 83.99,-121.97 83.99,-216.78 0,-57.8 -10.05,-106.37 -30.15,-145.671 -20.08,-39.309 -49.07,-70.528 -86.92,-93.649 -36.73,-22.961 -79.34,-35.648 -122.82,-42" /><path
         id="path34"
         style="fill:#efa378;fill-opacity:1;fill-rule:nonzero;stroke:none"
         d="m 3421.03,950.141 -114.47,299.439 -113.3,-299.439 z m 52.03,-138.75 h -332.97 l -71.67,-188.45 h -138.75 l 307.52,809.319 h 138.75 l 307.54,-809.319 h -138.74 l -71.68,188.45" /><path
         id="path36"
         style="fill:#efa378;fill-opacity:1;fill-rule:nonzero;stroke:none"
         d="M 4631.5,1432.26 V 622.941 H 4492.75 L 4076.54,1162.86 V 622.941 h -138.73 v 809.319 h 138.73 l 416.21,-539.928 v 539.928 h 138.75" /><path
         id="path38"
         style="fill:#efa378;fill-opacity:1;fill-rule:nonzero;stroke:none"
         d="m 5372.59,950.141 -114.48,299.439 -113.3,-299.439 z m 52.03,-138.75 h -332.97 l -71.68,-188.45 h -138.75 l 307.53,809.319 h 138.74 l 307.55,-809.319 h -138.75 l -71.67,188.45" /><path
         id="path40"
         style="fill:#efa378;fill-opacity:1;fill-rule:nonzero;stroke:none"
         d="M 6339.13,1293.51 H 6063.96 V 622.941 h -138.72 v 670.569 h -279.79 v 138.75 h 693.68 v -138.75" /><path
         id="path42"
         style="fill:#efa378;fill-opacity:1;fill-rule:nonzero;stroke:none"
         d="m 6839.75,950.141 -114.46,299.439 -113.3,-299.439 z m 52.03,-138.75 h -332.96 l -71.68,-188.45 H 6348.4 l 307.52,809.319 h 138.75 l 307.54,-809.319 h -138.75 l -71.68,188.45" /><path
         id="path44"
         style="fill:#efa378;fill-opacity:1;fill-rule:nonzero;stroke:none"
         d="m 2860.48,333.461 c -28.33,-9.961 -61.6,-15.813 -96.21,-15.813 -65.12,0 -134.93,20.653 -185.12,73.192 -54.83,57.359 -71.84,134.262 -86.84,202.121 -2.93,13.238 -5.79,26.258 -8.91,38.641 -8.43,33.5 -16.67,67.07 -24.89,100.636 -12.89,52.5 -25.77,104.992 -39.39,157.321 L 2546,922.57 c 13.78,-52.91 26.81,-105.988 39.83,-159.09 8.17,-33.308 16.36,-66.648 24.72,-99.949 3.4,-13.562 6.57,-27.769 9.78,-42.269 11.85,-53.563 24.09,-108.973 53.61,-139.832 33.41,-34.981 98.92,-39.789 142.99,-24.309 l 43.55,-123.66" /><path
         id="path46"
         style="fill:#ffffff;fill-opacity:1;fill-rule:nonzero;stroke:none"
         d="m 2812.9,1492.88 c 0,-6 1,-9 3,-9 -0.99,-1.01 -1.24,1.5 -0.76,7.5 0.52,6 -0.23,9.98 -2.24,11.99 z m 4.5,21 c 2.01,15.98 4,32.74 6,50.25 1.99,17.49 4.23,33.49 6.74,48 2.49,14.49 4.51,26.25 6.01,35.25 1.49,9 2.73,13.5 3.75,13.5 v -1.5 c 0,14 2.48,32.25 7.5,54.75 4.99,22.5 10.73,44.25 17.25,65.25 6.49,21 14.74,46.5 24.74,76.5 v 3 c 12.99,36 22.74,64.25 29.26,84.75 6.48,20.49 11.25,35.75 14.25,45.75 3,9.98 4.99,16.25 5.99,18.75 0.99,2.48 2.49,3.75 4.51,3.75 l -1.51,-3 c -1,0 -1.49,2 -1.49,6 1.99,3 3,5.75 3,8.25 0,2.48 0.98,4.74 2.99,6.75 0,0.98 -0.25,1.74 -0.75,2.25 -0.51,0.49 -0.74,1.25 -0.74,2.25 0,6 2.48,14.49 7.5,25.5 4.99,11 7.99,16.5 8.99,16.5 17,51 36.75,100.24 59.25,147.75 22.5,47.49 44.75,93.75 66.76,138.75 9.98,15 16.49,25.73 19.49,32.25 3.01,6.49 4.5,10.73 4.5,12.75 0,2 -0.25,3 -0.75,3 -0.51,0 -0.74,0.49 -0.74,1.5 0,0.98 3.49,5 10.5,12 10.98,18.98 18.23,31.99 21.75,39 3.49,6.99 5.25,11.48 5.25,13.5 -1.02,0 -2.02,-0.51 -3.01,-1.5 0.99,0 3.24,2.75 6.76,8.25 3.49,5.49 5.24,9.24 5.24,11.25 0,2 -0.25,3.99 -0.75,6 -0.51,1.99 -1.26,3 -2.24,3 -4.01,-10.01 -8.02,-18.51 -12.01,-25.5 -2.99,-6 -5.99,-11.76 -8.99,-17.25 -3.01,-5.5 -5.51,-7.75 -7.5,-6.75 v 1.5 l -6.01,-9 c 0,-1 0.24,-1.76 0.76,-2.25 0.48,-0.51 0.75,-1.27 0.75,-2.25 -18,-18 -27.76,-30.25 -29.25,-36.75 -1.5,-6.51 -2.26,-10.75 -2.26,-12.75 0,-1 0.5,-2.02 1.51,-3 -10.01,-10 -22.01,-30.25 -36.01,-60.75 -14.01,-30.52 -28.26,-63.51 -42.74,-99 -14.51,-35.5 -28.27,-70.27 -41.25,-104.25 -13.01,-34 -24.01,-59.51 -33,-76.5 -29.02,-82 -55.27,-168 -78.75,-258 -23.52,-90 -38.75,-183.51 -45.75,-280.51 0,-2.99 1,-4.49 3,-4.49 0,1.99 0.25,3.23 0.75,3.75 0.52,0.49 0.75,1.73 0.75,3.75 z m -25.51,-109.5 c 4.02,2.01 7.77,3 11.25,3 3.52,0 6.76,1.5 9.76,4.5 -3.99,0 -7.5,-0.5 -10.5,-1.5 -3.01,-0.99 -5.49,-2 -7.5,-3 -3.01,-1.99 -5.49,-3.5 -7.5,-4.5 -0.99,0 -1.74,0.26 -2.26,0.75 -0.48,0.52 -1.24,0.75 -2.24,0.75 0,-4.99 -2.75,-6.75 -8.25,-5.25 -5.49,1.5 -8.26,0.75 -8.26,-2.25 1.01,0 1.76,-0.23 2.26,-0.75 0.51,-0.49 1.76,-0.75 3.75,-0.75 5.01,0 8.99,1 11.99,2.99 3.01,2.03 5.51,4.02 7.5,6.01 z m 604.5,33.75 c -34,-3.5 -70.01,-7.73 -107.99,-12.75 -5.02,0 -10.77,-0.99 -17.25,-3 -6.52,-1.99 -12.27,-3 -17.26,-3 -1,0 -2.01,0.25 -2.99,0.75 -1.01,0.51 -2.02,0.74 -3,0.74 -12,-4.99 -25.5,-8.47 -40.5,-10.49 -15,-2 -28.01,-3 -39,-3 -36,-4.99 -70.77,-12.49 -104.25,-22.5 -33.52,-9.98 -61.76,-15 -84.76,-15 -1,0 -5.76,-1.51 -14.25,-4.5 -8.5,-3 -17.99,-6 -28.49,-9 -10.5,-3.01 -20.26,-6 -29.25,-9 -9,-3 -15,-4.5 -18.01,-4.5 -11.01,-6 -21.51,-10.25 -31.49,-12.75 -10.01,-2.49 -16.01,-4.73 -18,-6.76 -5.02,-1.99 -13.01,-4.72 -24,-8.24 -11,-3.49 -21,-5.25 -30,-5.25 -11,0 -20.49,3.75 -28.5,11.25 -8,7.5 -14.49,15.75 -19.5,24.74 -6.01,11.02 -11.49,23.52 -16.51,37.5 0,4.02 -0.48,6.76 -1.49,8.26 -0.99,1.5 -1.5,4.75 -1.5,9.75 0,5.01 2.76,8.24 8.25,9.75 5.51,1.5 10.75,4.75 15.75,9.74 1.01,0 1.76,-0.23 2.25,-0.74 0.51,-0.5 1.27,-0.75 2.24,-0.75 5.02,0 11.77,2.51 20.26,7.5 8.5,5.01 13.26,7.5 14.24,7.5 l -1.49,-1.5 -1.5,1.5 1.5,-1.5 c 0,1 4.26,2.76 12.74,5.25 8.51,2.51 16.76,5.24 24.76,8.25 -0.99,4.01 -2.74,6.52 -5.25,7.5 -2.48,1.01 -5.49,2.25 -9.01,3.75 -3.48,1.5 -6.98,4.73 -10.5,9.75 -3.48,4.99 -5.74,13.49 -6.74,25.5 0,0.98 -0.49,1.73 -1.51,2.25 -0.97,0.49 -1.49,1.24 -1.49,2.25 0,0.98 0.52,1.24 1.49,0.75 1.02,-0.52 1.51,0.23 1.51,2.25 l -1.51,1.5 c -0.97,0 -1.49,0.49 -1.49,1.49 l 1.49,1.51 1.51,1.5 c 0,0.98 -0.49,1.73 -1.51,2.25 -0.97,0.49 -1.49,1.24 -1.49,2.24 0,0.99 0.52,1.25 1.49,0.76 1.02,-0.52 1.51,0.23 1.51,2.25 0,3 -0.49,4.99 -1.51,6 -0.97,0.98 -1.49,2.48 -1.49,4.5 2.01,4.99 2.76,12.98 2.24,23.99 -0.48,11 1.76,18.99 6.75,24.01 0,1.99 -0.23,3.49 -0.74,4.5 -0.5,0.99 -0.75,2.48 -0.75,4.5 0,9 1.76,22.99 5.24,42 3.52,18.98 7.5,39 12,60 4.51,21 8.77,41.25 12.76,60.75 3.98,19.5 6.98,34.73 8.99,45.75 0,0.98 0.5,1.5 1.51,1.5 0.98,0 1.5,0.49 1.5,1.5 0.98,12 1.73,20.74 2.25,26.25 0.48,5.48 0.75,9.99 0.75,13.5 0,3.49 0.75,6.75 2.24,9.75 1.51,3 4.74,7.5 9.76,13.5 -1.02,0.98 -1.5,1.99 -1.5,3 0,4.99 0.98,9.5 2.99,13.5 0.99,3.98 2.26,8.25 3.75,12.75 1.51,4.5 3.24,9.23 5.26,14.25 0,0.99 -0.27,1.5 -0.75,1.5 -0.52,0 -0.76,0.49 -0.76,1.5 0,3.99 2.49,18 7.5,42 4.99,24 18.99,62.48 42.01,115.5 0,0.98 0.48,1.25 1.5,0.75 0.98,-0.51 1.49,0.23 1.49,2.25 l -1.49,1.5 c 0,3 1.24,8.49 3.75,16.5 2.48,7.99 5.24,15.99 8.24,24 3.01,7.99 6.01,15.24 9.01,21.75 2.99,6.5 4.99,9.75 5.99,9.75 v -1.5 c 9.99,20 17.49,35.49 22.5,46.5 5,11 8.49,18.99 10.51,24 1.99,4.99 3,8.25 3,9.75 0,1.5 0,3.23 0,5.25 0,2 1.73,6.75 5.24,14.25 3.5,7.5 7.5,15.49 12,24 4.51,8.48 8.49,16.25 12.01,23.25 3.49,6.99 5.25,11.48 5.25,13.5 l 26.99,54 c 0,0.99 -0.51,1.99 -1.49,3 0,2 0.98,3.24 3,3.75 1.99,0.49 2.99,2.74 2.99,6.75 9.01,9 13.25,16.5 12.76,22.5 -0.52,6 1.73,9 6.75,9 9.98,18 16.24,29.49 18.75,34.5 2.48,4.99 3.75,8 3.75,9 l -1.51,-1.5 v 1.5 l 1.51,3 c 0.98,1.99 2.48,4.24 4.5,6.75 1.99,2.49 4.5,6.24 7.5,11.25 1.99,2 6.49,11.75 13.49,29.25 6.99,17.48 19.51,35.25 37.5,53.25 0,0.98 -0.25,1.73 -0.75,2.25 -0.51,0.49 -0.74,1.24 -0.74,2.25 0,1.99 0.98,2.74 3,2.25 1.99,-0.51 3,0.23 3,2.25 3.98,3.98 7.24,9 9.74,15 2.49,6 5.26,11.25 8.25,15.75 3,4.5 6.5,8.48 10.5,12 3.99,3.49 10.51,5.25 19.5,5.25 4.99,0 11.25,-1.5 18.75,-4.5 7.5,-3 13.25,-4.5 17.26,-4.5 3.98,-3 10.5,-6 19.49,-9 9.01,-3 18.01,-6.75 27,-11.25 9.01,-4.5 17,-10.26 24.01,-17.25 6.98,-7.01 10.5,-15.51 10.5,-25.5 5.99,6 4.73,3.75 -3.75,-6.75 -8.51,-10.5 -20.77,-26.5 -36.75,-48 -16.01,-21.51 -33.26,-46.5 -51.75,-75 -18.52,-28.5 -34.27,-57.25 -47.26,-86.25 l 1.51,1.5 c 0,-1 -2.02,-6.51 -6.01,-16.5 -4,-10.01 -8.24,-20.5 -12.74,-31.5 -4.5,-11.01 -9.01,-21.26 -13.51,-30.75 -4.49,-9.52 -7.26,-14.25 -8.24,-14.25 0,-1.01 0.23,-1.5 0.74,-1.5 0.5,0 0.75,-0.51 0.75,-1.5 -16,-30 -25.49,-49.75 -28.49,-59.25 -3,-9.52 -4.5,-15.26 -4.5,-17.25 l -3,1.5 c 0,-6 -1.51,-14.01 -4.5,-24 -3,-10 -6.26,-19.5 -9.75,-28.5 -3.52,-9 -7.27,-16.76 -11.25,-23.25 -4.01,-6.52 -6.52,-9.75 -7.5,-9.75 v 3 c 0,-1 0.23,-1.5 0.74,-1.5 0.5,0 0.75,-0.51 0.75,-1.5 -7,-14.01 -11.5,-23.02 -13.49,-27 -2.02,-4 -3,-6.52 -3,-7.5 0,-1 0.23,-1.5 0.74,-1.5 0.5,0 0.75,-0.51 0.75,-1.5 0,0.99 -1,-3.25 -2.99,-12.75 -2.02,-9.52 -7.02,-20.25 -15,-32.25 0,-6 -3,-11.51 -9.01,-16.5 -5.99,-5.01 -8.99,-17.01 -8.99,-36 -13.01,-24 -20.77,-41.51 -23.25,-52.5 -2.51,-11.02 -4.76,-17.51 -6.75,-19.5 -7.01,-21 -13.01,-40.5 -18,-58.5 -5.02,-18 -11.51,-38.51 -19.5,-61.5 0,-6 -2.02,-17.5 -6.01,-34.5 -4,-17.02 -8.99,-36.26 -15,-57.75 -5.99,-21.52 -12.25,-44.51 -18.75,-69.01 -6.51,-24.51 -11.76,-47.76 -15.74,-69.74 0.98,-5.02 3.23,-9.01 6.75,-12 3.48,-3 5.74,-8.02 6.75,-15 91.99,17.99 185.48,34.5 280.49,49.5 4.99,0.98 10.74,1.99 17.26,3 6.48,0.98 12.23,1.5 17.25,1.5 1.99,0 3.98,-0.26 5.99,-0.75 1.99,-0.52 3.99,-0.75 6.01,-0.75 23.99,0 53.25,2.74 87.74,8.25 34.5,5.49 71.25,8.25 110.26,8.25 18.98,0 37.98,-0.75 57,-2.26" /><path
         id="path48"
         style="fill:#ffffff;fill-opacity:1;fill-rule:nonzero;stroke:none"
         d="m 3466.88,2079.36 c -43.5,86.99 -115.5,4.5 -97.5,-61.5 12,-48 57,-90 118.5,-85.5 4.5,48 -3,106.5 -21,147 z m -80.99,-373.5 c 52.49,39.01 82.49,121.5 92.98,166.5 -53.99,1.5 -115.48,19.5 -131.99,55.5 -48,-87 -28.49,-196.5 39.01,-222 z m 166.48,166.5 h -3 c -18,-88.5 -89.99,-233.98 -155.98,-241.48 -57.01,-7.5 -118.5,-6.01 -157.5,53.99 -69,110.99 -24,280.49 83.99,293.99 -19.49,60 0,175.49 111,170.99 125.99,-7.5 132,-170.99 127.5,-218.99 23.99,-1.5 45,-1.5 68.99,-3 61.5,0 68.99,-33 0,-46.5 -21,-4.5 -60,-7.5 -75,-9" /><path
         id="path50"
         style="fill:#ffffff;fill-opacity:1;fill-rule:nonzero;stroke:none"
         d="m 3703.88,2136.35 c 9.01,-56.99 -71.99,-77.99 -76.49,-11.99 -13.5,74.99 70.5,67.49 76.49,11.99 z M 3525.4,1305.39 c 5.99,15 11.99,25.49 18,38.99 31.49,66 89.99,198 101.99,265.49 -31.5,-18 -169.49,-244.48 -191.99,-274.48 -25.5,-39.01 -45,-79.5 -30,-123 92.99,10.5 218.99,203.99 226.49,335.98 -13.5,-23.99 -53.99,-136.49 -63,-149.99 -18,-31.5 -40.5,-61.5 -63,-92.99 z m 97.49,682.47 c 40.5,57 94.5,16.5 102,-28.5 6,-24 19.49,-150 18,-172.5 61.49,51.01 88.49,99 140.99,147 29.99,-15 21,-31.5 7.5,-49.5 -39,-46.49 -99,-106.49 -140.99,-154.49 4.5,-136.5 -25.5,-331.49 -99,-452.98 -27,-45 -60,-82.5 -114,-112.5 -53.99,-28.49 -85.49,-28.49 -131.99,1.51 -61.5,37.49 -73.5,76.49 -43.5,136.49 60,113.99 199.49,283.48 293.99,388.47 6,82.5 1.5,193.5 -28.5,268.5 l -4.5,16.5 v 12" /><path
         id="path52"
         style="fill:#ffffff;fill-opacity:1;fill-rule:nonzero;stroke:none"
         d="m 3969.38,1698.36 c 55.5,82.5 109.49,166.5 161.99,247.5 -16.5,16.5 -28.5,30 -40.49,42 -27.01,28.5 -37.5,28.5 -66,1.5 -7.5,-6 -13.51,-12 -19.5,-19.5 -60,-81 -64.5,-171 -49.5,-265.49 4.5,-1.5 9,-4.5 13.5,-6.01 z m 67.49,-26.99 c -22.5,-36 -58.49,-49.5 -98.99,-52.5 -25.5,-2.99 -46.5,6 -61.5,27.01 -7.5,10.49 -15,19.49 -17.99,31.49 -31.51,103.49 -33,205.49 32.99,298.49 55.5,82.5 181.5,105 262.49,49.5 12,-7.5 27,-12 40.5,-12 44.99,-3 44.99,-3 34.49,-48 -10.49,-46.5 -19.49,-93 -28.49,-141 -1.51,-8.99 0,-19.49 0,-37.5 13.49,10.51 24,15 30,22.5 42,43.51 53.99,54 94.49,96 21.01,24 24,24 66,13.5 -6,-10.5 -10.5,-19.49 -16.5,-27 -42,-49.5 -55.5,-66 -98.99,-115.5 -10.5,-13.49 -24.01,-26.99 -39.01,-37.5 -46.49,-33 -98.99,-18 -130.48,37.5 -25.5,-37.5 -46.51,-71.99 -69.01,-104.99" /></g></g></svg>