<?xml version="1.0" encoding="UTF-8" standalone="no"?>
<svg
   xmlns:dc="http://purl.org/dc/elements/1.1/"
   xmlns:cc="http://creativecommons.org/ns#"
   xmlns:rdf="http://www.w3.org/1999/02/22-rdf-syntax-ns#"
   xmlns:svg="http://www.w3.org/2000/svg"
   xmlns="http://www.w3.org/2000/svg"
   viewBox="0 0 931.30664 187.62666"
   height="187.62666"
   width="931.30664"
   xml:space="preserve"
   id="svg2"
   version="1.1"><metadata
     id="metadata8"><rdf:RDF><cc:Work
         rdf:about=""><dc:format>image/svg+xml</dc:format><dc:type
           rdf:resource="http://purl.org/dc/dcmitype/StillImage" /></cc:Work></rdf:RDF></metadata><defs
     id="defs6" /><g
     transform="matrix(1.3333333,0,0,-1.3333333,0,187.62667)"
     id="g10"><g
       transform="scale(0.1)"
       id="g12"><path
         id="path14"
         style="fill:#ffffff;fill-opacity:1;fill-rule:nonzero;stroke:none"
         d="m 3308.62,279.879 h -81.53 V 151.281 h 81.53 c 22.7,0 40.35,5.469 52.95,16.821 12.2,11.339 18.49,26.886 18.49,47.488 0,20.582 -6.29,36.14 -18.49,47.48 -12.6,11.352 -30.25,16.809 -52.95,16.809 z M 3204.41,5.87891 V 300.059 h 106.74 c 13.02,0 24.8,-1.688 36.14,-5.469 10.93,-3.781 20.59,-9.25 29,-16.391 7.98,-7.148 14.71,-15.969 19.32,-26.469 4.64,-10.511 7.15,-22.699 7.15,-36.14 0,-13.449 -2.51,-25.219 -7.15,-35.731 -4.61,-10.507 -11.34,-19.32 -19.32,-26.468 -8.41,-7.153 -18.07,-12.61 -29,-16.403 -11.34,-3.777 -23.12,-5.879 -36.14,-5.879 h -84.06 V 5.87891 h -22.68" /><path
         id="path16"
         style="fill:#ffffff;fill-opacity:1;fill-rule:nonzero;stroke:none"
         d="m 3900.18,279.879 h -89.93 V 154.648 h 89.93 c 22.7,0 40.35,5.461 52.95,16.383 12.2,10.508 18.49,26.071 18.49,46.239 0,20.171 -6.29,35.718 -18.49,46.652 -12.6,10.5 -30.25,15.957 -52.95,15.957 z m 94.14,-62.609 c 0,-12.2 -2.09,-23.122 -5.89,-32.79 -4.19,-9.66 -9.66,-18.058 -16.81,-24.789 -7.13,-7.14 -15.11,-12.613 -24.78,-16.812 -9.66,-4.199 -20.61,-6.731 -31.94,-7.988 L 3985.92,5.87891 H 3960.7 L 3891.35,134.48 h -81.1 V 5.87891 h -22.69 V 300.059 h 115.16 c 13.01,0 24.77,-1.688 36.13,-5.469 10.93,-3.781 20.59,-8.828 28.99,-15.969 7.99,-7.152 14.72,-15.551 19.33,-26.051 4.64,-10.511 7.15,-22.281 7.15,-35.3" /><path
         id="path18"
         style="fill:#ffffff;fill-opacity:1;fill-rule:nonzero;stroke:none"
         d="m 4381.61,300.059 h 179.87 v -20.18 H 4404.3 v -116.41 h 145.42 V 143.301 H 4404.3 V 26.0508 h 158.86 V 5.87891 H 4381.61 V 300.059" /><path
         id="path20"
         style="fill:#ffffff;fill-opacity:1;fill-rule:nonzero;stroke:none"
         d="m 4953.85,300.059 h 42.03 L 5098.41,31.9297 h 5.05 L 5206,300.059 h 42.03 V 5.87891 h -22.71 V 273.16 h -5.02 L 5118.16,5.87891 h -34.47 L 4981.58,273.16 h -5.05 V 5.87891 h -22.68 V 300.059" /><path
         id="path22"
         style="fill:#ffffff;fill-opacity:1;fill-rule:nonzero;stroke:none"
         d="m 5652.95,300.059 h 22.68 V 5.87891 h -22.68 V 300.059" /><path
         id="path24"
         style="fill:#ffffff;fill-opacity:1;fill-rule:nonzero;stroke:none"
         d="m 6078.96,300.059 h 22.68 V 101.27 c 0,-27.7387 7.15,-48.3208 21.45,-61.3481 14.28,-13.0313 34.44,-19.75 60.08,-19.75 25.64,0 45.81,6.7187 60.1,19.75 14.3,13.0273 21.43,33.6094 21.43,61.3481 v 198.789 h 22.7 V 101.27 c 0,-17.2309 -2.51,-32.3481 -7.56,-44.9614 -5.03,-13.0391 -12.18,-23.5391 -21.43,-31.5273 -9.25,-8.4024 -20.18,-14.7032 -32.79,-18.48052 C 6212.6,2.08984 6198.72,0 6183.17,0 c -15.53,0 -29.41,2.08984 -42.01,6.30078 -13.04,3.77732 -23.96,10.07812 -33.21,18.48052 -9.24,7.9882 -16.39,18.4882 -21.44,31.5273 -5.03,12.6133 -7.55,27.7305 -7.55,44.9614 v 198.789" /><path
         id="path26"
         style="fill:#ffffff;fill-opacity:1;fill-rule:nonzero;stroke:none"
         d="m 6690.67,300.059 h 42.03 L 6835.23,31.9297 h 5.06 l 102.52,268.1293 h 42.04 V 5.87891 h -22.71 V 273.16 h -5.03 L 6854.98,5.87891 h -34.47 L 6718.4,273.16 h -5.05 V 5.87891 h -22.68 V 300.059" /><path
         id="path28"
         style="fill:#ffffff;fill-opacity:1;fill-rule:nonzero;stroke:none"
         d="M 817.863,1407.19 V 612.039 H 681.547 L 683.813,1114.11 449.828,612.039 H 368.039 L 136.297,1097.07 V 612.039 H 0.00390625 V 1407.19 H 136.297 L 408.934,855.121 681.547,1407.19 h 136.316" /><path
         id="path30"
         style="fill:#ffffff;fill-opacity:1;fill-rule:nonzero;stroke:none"
         d="M 1545.96,933.508 1433.49,1227.71 1322.18,933.508 Z m 51.12,-136.32 h -327.15 l -70.42,-185.149 h -136.32 l 302.14,795.151 h 136.32 L 1803.82,612.039 H 1667.5 l -70.42,185.149" /><path
         id="path32"
         style="fill:#ffffff;fill-opacity:1;fill-rule:nonzero;stroke:none"
         d="m 2309.29,975.523 c 18.92,0 38.8,2.286 59.63,6.817 20.84,4.551 40.14,12.305 57.94,23.28 17.79,10.98 32.39,25.76 43.73,44.31 11.37,18.55 17.04,42.22 17.04,70.99 0,28.77 -5.67,52.83 -17.04,72.14 -11.34,19.3 -25.94,34.65 -43.73,46 -17.8,11.37 -37.1,19.49 -57.94,24.42 -20.83,4.92 -40.71,7.4 -59.63,7.4 H 2180.94 V 975.523 Z m 78.97,-130.992 c -26.28,-3.832 -52.87,-5.304 -78.62,-5.304 h -128.7 V 612.039 h -136.32 v 795.151 h 265.2 c 99.38,0 176.6,-24.43 231.6,-73.28 55.01,-48.84 82.53,-119.83 82.53,-212.99 0,-56.79 -9.88,-104.51 -29.62,-143.111 -19.74,-38.629 -48.21,-69.301 -85.41,-92.02 -36.08,-22.559 -77.96,-35.027 -120.66,-41.258" /><path
         id="path34"
         style="fill:#ffffff;fill-opacity:1;fill-rule:nonzero;stroke:none"
         d="M 3361.16,933.508 3248.7,1227.71 3137.39,933.508 Z m 51.13,-136.32 H 3085.14 L 3014.72,612.039 H 2878.4 l 302.14,795.151 h 136.32 l 302.17,-795.151 h -136.32 l -70.42,185.149" /><path
         id="path36"
         style="fill:#ffffff;fill-opacity:1;fill-rule:nonzero;stroke:none"
         d="M 4550.45,1407.19 V 612.039 H 4414.13 L 4005.21,1142.52 V 612.039 h -136.3 v 795.151 h 136.3 l 408.92,-530.475 v 530.475 h 136.32" /><path
         id="path38"
         style="fill:#ffffff;fill-opacity:1;fill-rule:nonzero;stroke:none"
         d="M 5278.57,933.508 5166.11,1227.71 5054.79,933.508 Z m 51.12,-136.32 H 5002.54 L 4932.12,612.039 H 4795.8 l 302.14,795.151 h 136.32 l 302.17,-795.151 h -136.32 l -70.42,185.149" /><path
         id="path40"
         style="fill:#ffffff;fill-opacity:1;fill-rule:nonzero;stroke:none"
         d="M 6228.21,1270.88 H 5957.85 V 612.039 h -136.29 v 658.841 h -274.91 v 136.31 h 681.56 v -136.31" /><path
         id="path42"
         style="fill:#ffffff;fill-opacity:1;fill-rule:nonzero;stroke:none"
         d="M 6720.07,933.508 6607.61,1227.71 6496.28,933.508 Z m 51.11,-136.32 h -327.13 l -70.42,-185.149 h -136.32 l 302.14,795.151 h 136.31 l 302.17,-795.151 h -136.32 l -70.43,185.149" /><path
         id="path44"
         style="fill:#ffffff;fill-opacity:1;fill-rule:nonzero;stroke:none"
         d="m 2810.43,327.621 c -27.84,-9.793 -60.53,-15.531 -94.53,-15.531 -63.98,0 -132.57,20.289 -181.88,71.91 -53.87,56.359 -70.59,131.906 -85.32,198.578 -2.88,13.016 -5.69,25.801 -8.76,37.969 -8.28,32.91 -16.37,65.887 -24.45,98.879 -12.67,51.574 -25.32,103.152 -38.7,154.566 l 124.65,32.434 c 13.54,-51.988 26.36,-104.137 39.14,-156.309 8.03,-32.73 16.08,-65.488 24.29,-98.191 3.34,-13.332 6.45,-27.289 9.61,-41.535 11.64,-52.629 23.67,-107.063 52.67,-137.395 32.82,-34.355 97.18,-39.09 140.48,-23.875 l 42.8,-121.5" /></g></g></svg>