<?xml version="1.0" encoding="UTF-8" standalone="no"?>
<svg
   xmlns:dc="http://purl.org/dc/elements/1.1/"
   xmlns:cc="http://creativecommons.org/ns#"
   xmlns:rdf="http://www.w3.org/1999/02/22-rdf-syntax-ns#"
   xmlns:svg="http://www.w3.org/2000/svg"
   xmlns="http://www.w3.org/2000/svg"
   viewBox="0 0 1028.6533 295.30667"
   height="295.30667"
   width="1028.6533"
   xml:space="preserve"
   id="svg2"
   version="1.1"><metadata
     id="metadata8"><rdf:RDF><cc:Work
         rdf:about=""><dc:format>image/svg+xml</dc:format><dc:type
           rdf:resource="http://purl.org/dc/dcmitype/StillImage" /></cc:Work></rdf:RDF></metadata><defs
     id="defs6" /><g
     transform="matrix(1.3333333,0,0,-1.3333333,0,295.30667)"
     id="g10"><g
       transform="scale(0.1)"
       id="g12"><path
         id="path14"
         style="fill:#ffffff;fill-opacity:1;fill-rule:nonzero;stroke:none"
         d="m 1641.96,1263.79 c 86.17,74.98 146.01,144.81 179.52,209.43 33.51,64.63 46.67,123.27 39.49,175.93 -7.18,52.65 -31.53,99.33 -73,140.02 -41.51,40.69 -92.97,74.57 -154.38,101.72 -61.45,27.12 -130.86,46.68 -208.24,58.65 -77.41,11.96 -155.21,16.34 -233.37,13.16 -100.53,-4.79 -202.253,-18.77 -305.175,-41.88 -102.922,-23.16 -197.09,-55.06 -282.438,-95.75 -85.383,-40.69 -157.969,-90.95 -217.808,-150.79 -59.84,-59.84 -96.938,-128.87 -111.297,-207.04 -12.793,-67.02 -2.024,-134.86 32.308,-203.45 34.297,-68.63 98.508,-129.25 192.68,-181.91 39.867,92.52 72.594,166.35 98.137,221.4 25.508,55.06 45.476,98.13 59.836,129.25 14.363,31.12 25.132,53.86 32.312,68.22 7.18,14.36 13.949,27.11 20.344,38.3 14.363,20.72 34.707,27.89 61.035,21.54 26.328,-6.39 51.051,-20.35 74.199,-41.89 23.117,-21.54 41.067,-47.87 53.86,-78.99 12.75,-31.11 12.75,-61.03 0,-89.75 -17.578,-38.3 -34.336,-73.01 -50.27,-104.12 -15.965,-31.12 -31.113,-61.45 -45.473,-90.96 -14.363,-29.54 -29.546,-59.84 -45.48,-90.95 -15.965,-31.12 -32.723,-65.821 -50.262,-104.121 63.805,1.57 137.625,8.75 221.403,21.543 83.769,12.757 168.739,31.488 254.909,56.248 86.17,24.72 169.12,55.83 248.93,93.35 79.77,37.47 149.18,81.75 208.23,132.84 z M 0,1395.43 c 1.61328,87.74 21.543,166.73 59.8398,236.96 38.2969,70.2 88.9372,132.02 151.9882,185.5 63.016,53.44 134.824,98.92 215.418,136.43 80.559,37.48 163.957,67.81 250.121,90.96 86.168,23.11 171.516,40.27 256.11,51.46 84.563,11.15 161.943,16.75 232.173,16.75 73.38,0 149.97,-5.6 229.78,-16.75 79.77,-11.19 156.36,-28.35 229.78,-51.46 73.38,-23.15 141.59,-53.48 204.64,-90.96 63.02,-37.51 114.48,-82.99 154.39,-136.43 39.87,-53.48 65.82,-115.71 77.79,-186.69 11.97,-71.02 4.37,-151.99 -22.74,-242.95 -27.15,-86.16 -73.41,-164.36 -138.82,-234.56 -65.45,-70.24 -141.22,-131.27 -227.39,-183.108 -86.16,-51.871 -178.32,-94.543 -276.45,-128.062 -98.14,-33.5 -193.88,-55.872 -287.22,-67.008 -93.35,-11.184 -179.93,-11.59 -259.707,-1.203 C 769.898,784.672 706.094,807.41 658.223,842.52 639.074,801.02 619.102,758.75 598.387,715.672 577.629,672.59 557.281,625.91 537.352,575.648 517.379,525.379 497.449,470.711 477.512,411.691 457.539,352.68 438.805,287.23 421.266,215.422 c -3.219,-9.582 -6.399,-19.524 -9.575,-29.922 -3.218,-10.359 -7.183,-18.73 -11.968,-25.121 -4.789,-6.359 -10.395,-9.168 -16.758,-8.379 -6.391,0.82 -12.789,8.379 -19.145,22.73 -22.363,41.508 -35.117,94.961 -38.297,160.372 -3.218,65.41 0.372,134.027 10.774,205.839 10.355,71.809 25.918,142 46.668,210.641 20.723,68.578 43.871,128.406 69.414,179.508 6.359,9.57 11.148,19.148 14.359,28.719 3.18,9.57 0,18.32 -9.574,26.332 -59.051,-4.789 -114.887,3.179 -167.543,23.929 -52.656,20.73 -99.746,50.27 -141.223,88.57 C 106.887,1136.93 73.0039,1182 46.6758,1233.87 20.3477,1285.71 4.79297,1339.56 0,1395.43" /><path
         id="path16"
         style="fill:#ffffff;fill-opacity:1;fill-rule:nonzero;stroke:none"
         d="m 2620.89,1077.09 c -60.65,-27.15 -116.49,-67.43 -167.54,-120.871 -51.09,-53.481 -99.33,-112.91 -144.81,-178.321 -45.48,-65.437 -89.76,-133.25 -132.84,-203.437 -43.09,-70.25 -86.17,-135.66 -129.25,-196.27 -12.76,-14.371 -27.9,-18.332 -45.48,-11.972 -17.54,6.39 -28.72,18.769 -33.51,37.09 -4.79,18.332 -3.18,37.89 4.79,58.652 11.18,38.289 21.95,81.371 32.31,129.25 10.4,47.871 20.34,98.129 29.92,150.789 9.57,52.648 19.52,105.309 29.92,157.969 10.36,52.66 21.13,102.921 32.31,150.801 3.18,12.75 10.77,22.73 22.74,29.91 11.97,7.19 25.13,11.15 39.49,11.97 14.37,0.78 27.12,-2.02 38.3,-8.38 11.15,-6.39 18.33,-15.97 21.54,-28.72 6.36,-31.94 4.38,-70.23 -5.98,-114.89 -10.4,-44.691 -21.95,-88.558 -34.71,-131.64 28.72,35.082 60.21,76.179 94.55,123.261 34.29,47.051 71.8,90.959 112.49,131.649 40.69,40.69 83.78,74.2 129.25,100.53 45.48,26.33 92.94,37.1 142.42,32.31 25.51,-8 45.85,-21.17 61.03,-39.49 15.15,-18.36 26.71,-39.12 34.71,-62.24 7.96,-23.15 12.34,-45.89 13.16,-68.21 0.79,-22.36 -1.19,-41.51 -5.98,-57.451 -11.18,-22.359 -24.35,-46.668 -39.49,-73 -15.19,-26.328 -27.16,-53.07 -35.91,-80.18 -8.79,-27.148 -12.38,-53.847 -10.77,-80.179 1.57,-26.329 14.36,-49.891 38.3,-70.622 9.57,-12.789 8.75,-22.359 -2.4,-28.718 -11.18,-6.391 -26.32,-9.981 -45.47,-10.77 -19.15,-0.82 -38.3,1.199 -57.45,5.988 -19.15,4.782 -32.72,11.961 -40.68,21.543 -25.55,35.079 -41.11,70.61 -46.68,106.52 -5.61,35.891 -4.41,72.168 3.59,108.891 7.96,36.687 20.72,72.597 38.3,107.718 17.53,35.07 37.47,68.58 59.83,100.52" /><path
         id="path18"
         style="fill:#ffffff;fill-opacity:1;fill-rule:nonzero;stroke:none"
         d="m 3250.39,837.738 c 3.18,0 6.36,1.571 9.58,4.782 3.18,3.191 4.78,6.359 4.78,9.582 12.76,30.296 18.74,63.796 17.95,100.527 -0.82,36.691 -12.38,66.191 -34.7,88.561 -11.18,12.75 -25.55,19.93 -43.09,21.54 -17.57,1.57 -34.33,-1.61 -50.26,-9.57 -31.94,-19.15 -57.45,-41.52 -76.59,-67.019 -19.15,-25.551 -37.51,-51.879 -55.06,-78.993 0,-8.007 1.58,-13.566 4.79,-16.757 15.94,-14.352 23.11,-30.332 21.54,-47.871 0,-7.989 9.17,-12.79 27.53,-14.348 18.33,-1.613 39.08,-2.024 62.23,-1.203 23.11,0.781 45.48,2.761 67.02,5.98 21.54,3.18 36.28,4.789 44.28,4.789 z M 3037.36,469.129 c 15.94,3.191 33.89,14.742 53.86,34.711 19.93,19.93 39.08,42.68 57.45,68.211 18.32,25.508 34.29,51.469 47.86,77.801 13.54,26.328 22.74,48.238 27.53,65.82 -31.93,-3.211 -66.23,-4.793 -102.92,-4.793 -36.72,0 -71.02,3.191 -102.92,9.57 -4.79,-14.347 -8,-33.129 -9.58,-56.238 -1.6,-23.152 -1.6,-47.09 0,-71.801 1.58,-24.762 4.79,-48.281 9.58,-70.621 4.78,-22.359 11.14,-39.898 19.14,-52.66 z m 349.46,392.543 c 19.15,1.578 39.87,6.359 62.23,14.367 22.33,7.961 43.09,14.352 62.24,19.141 22.32,6.359 45.85,13.949 70.61,22.742 24.72,8.75 48.24,15.558 70.61,20.348 15.92,0 22.32,-4.418 19.14,-13.168 -3.22,-8.793 -10.77,-19.153 -22.74,-31.114 -11.97,-11.968 -25.54,-23.566 -40.69,-34.707 -15.18,-11.179 -26.73,-19.152 -34.7,-23.929 -38.3,-17.582 -76.22,-31.122 -113.69,-40.704 -37.51,-9.566 -73.01,-23.136 -106.52,-40.679 -14.36,-25.547 -34.33,-59.457 -59.84,-101.731 -25.54,-42.289 -53.85,-83.398 -84.97,-123.258 -31.11,-39.91 -63.84,-74.199 -98.13,-102.929 -34.33,-28.719 -67.43,-43.082 -99.33,-43.082 -44.7,0 -82.99,12.761 -114.89,38.293 -23.94,15.937 -41.89,40.699 -53.85,74.199 -11.97,33.519 -19.15,69.789 -21.55,108.91 -2.39,39.078 -1.19,77.379 3.59,114.891 4.79,37.468 10.4,68.207 16.75,92.148 1.62,11.141 4.01,18.738 7.19,22.731 3.22,3.968 6.39,6.781 9.57,8.379 3.22,1.582 6.81,3.191 10.77,4.789 4,1.57 7.6,4.793 10.78,9.582 4.78,17.539 9.57,35.898 14.36,55.05 4.78,19.149 11.96,36.688 21.54,52.649 27.11,47.88 61.82,92.15 104.12,132.85 42.26,40.69 91.32,64.21 147.2,70.61 35.08,6.35 67.39,4.79 96.94,-4.79 29.5,-9.57 55.42,-27.93 77.78,-55.05 19.15,-20.75 32.69,-43.5 40.7,-68.22 7.96,-24.75 12.75,-48.689 14.36,-71.799 1.57,-23.16 0.78,-44.281 -2.39,-63.429 -3.22,-19.153 -5.62,-33.524 -7.19,-43.09" /><path
         id="path20"
         style="fill:#ffffff;fill-opacity:1;fill-rule:nonzero;stroke:none"
         d="m 4782.24,1886.11 c -100.53,-154.8 -189.91,-313.56 -268.08,-476.32 -78.19,-162.75 -146.82,-331.12 -205.84,-505.028 36.69,67.008 80.19,143.608 130.45,229.778 50.26,86.17 99.33,174.32 147.2,264.48 47.87,90.14 90.13,177.91 126.86,263.29 36.68,85.35 59.84,159.96 69.41,223.8 z M 3707.55,691.73 l 4.79,-7.179 c 54.22,43.09 108.9,85.758 163.95,128.058 55.05,42.262 112.08,84.141 171.13,125.661 -33.5,15.929 -69.82,17.949 -108.9,5.98 -39.12,-11.969 -75.8,-31.941 -110.1,-59.84 -34.33,-27.93 -63.06,-59.84 -86.17,-95.73 -23.15,-35.91 -34.7,-68.231 -34.7,-96.95 z m 375.78,361.43 c 0,3.17 0.78,5.56 2.39,7.18 0,1.57 0.79,2.39 2.4,2.39 49.44,105.32 98.5,207.04 147.2,305.18 48.66,98.13 98.14,192.68 148.4,283.63 50.27,90.95 102.92,178.69 157.97,263.29 55.05,84.56 113.69,166.72 175.93,246.53 35.08,39.87 63.43,57.45 84.97,52.66 21.54,-4.79 37.47,-21.16 47.87,-49.06 10.35,-27.94 16.34,-61.04 17.95,-99.33 1.57,-38.31 0.78,-69.42 -2.39,-93.36 -23.94,-98.95 -56.25,-197.87 -96.95,-296.79 -40.68,-98.96 -86.57,-197.47 -137.62,-295.6 -51.09,-98.14 -106.14,-195.9 -165.15,-293.22 -59.06,-97.34 -118.9,-194.691 -179.52,-292.012 -8,-9.566 -13.99,-19.546 -17.95,-29.91 -4,-10.398 -7.59,-21.949 -10.77,-34.707 -3.22,-14.359 -6.81,-34.699 -10.77,-61.031 -4.01,-26.328 -6.4,-53.859 -7.18,-82.578 -0.82,-28.723 1.19,-55.051 5.98,-78.981 4.79,-23.941 13.54,-39.132 26.33,-45.48 19.14,-9.57 47.04,-7.59 83.77,5.98 36.69,13.539 75.77,33.879 117.29,61.039 41.47,27.11 83.36,58.219 125.65,93.34 42.27,35.09 78.59,68.59 108.91,100.539 3.18,3.172 7.97,2.762 14.36,-1.211 6.36,-4 11.56,-9.988 15.56,-17.937 3.97,-8.012 5.58,-17.172 4.79,-27.531 -0.82,-10.391 -6.81,-20.348 -17.95,-29.93 -36.73,-31.93 -81.79,-72.211 -135.24,-120.871 -53.47,-48.688 -109.31,-93.75 -167.55,-135.231 -58.26,-41.468 -115.3,-73 -171.13,-94.539 -55.88,-21.539 -103.75,-21.918 -143.61,-1.199 -36.73,19.149 -62.65,49.891 -77.8,92.149 -15.18,42.261 -23.56,88.562 -25.13,138.82 -1.6,50.269 0.38,99.711 5.98,148.402 5.58,48.66 10.77,87.367 15.56,116.09 -3.21,-3.223 -5.98,-7.59 -8.38,-13.172 -2.39,-5.597 -5.19,-10.769 -8.37,-15.551 -22.37,-25.546 -47.87,-56.25 -76.59,-92.148 -28.73,-35.91 -60.25,-69.039 -94.55,-99.34 -34.33,-30.332 -70.61,-53.469 -108.9,-69.41 -38.3,-15.969 -77.42,-16.75 -117.29,-2.391 -22.32,12.75 -41.88,28.313 -58.63,46.68 -16.76,18.32 -25.14,42.66 -25.14,72.992 0,59.02 11.6,118.86 34.71,179.52 23.15,60.621 54.64,114.48 94.54,161.558 39.87,47.051 86.95,84.561 141.22,112.501 54.23,27.9 112.5,39.49 174.72,34.7 17.54,-3.21 35.5,-7.58 53.86,-13.16 18.33,-5.61 33.89,-15.56 46.68,-29.92 l 9.57,-9.57" /><path
         id="path22"
         style="fill:#ffffff;fill-opacity:1;fill-rule:nonzero;stroke:none"
         d="m 5739.64,859.281 h 2.39 v -19.152 c -15.96,-57.438 -40.69,-109.32 -74.2,-155.578 -12.79,-15.961 -28.35,-38.711 -46.68,-68.211 -18.36,-29.551 -34.7,-53.07 -49.06,-70.61 -33.5,-36.718 -65.04,-69.039 -94.54,-96.941 -29.55,-27.937 -65.04,-53.059 -106.51,-75.398 -19.15,-9.571 -40.33,-17.95 -63.43,-25.121 -23.16,-7.18 -46.3,-10.782 -69.42,-10.782 -23.15,0 -45.1,4.012 -65.82,11.973 -20.76,8.008 -38.3,22.359 -52.66,43.078 -25.54,31.91 -39.49,69.793 -41.89,113.691 -2.39,43.872 5.17,88.942 22.75,135.239 -3.23,-3.207 -8.01,-8 -14.37,-14.36 -6.39,-6.39 -13.57,-13.578 -21.54,-21.539 -8,-8.011 -15.56,-15.558 -22.73,-22.738 -7.18,-7.184 -12.39,-11.602 -15.56,-13.172 -23.94,-23.93 -47.87,-44.691 -71.81,-62.219 -23.93,-17.582 -48.69,-32.73 -74.2,-45.48 -20.76,-9.57 -38.71,-15.191 -53.85,-16.762 -15.19,-1.597 -29.14,1.199 -41.89,8.383 -12.79,7.18 -25.14,17.949 -37.1,32.309 -11.97,14.359 -25.14,31.121 -39.49,50.269 -20.72,28.719 -36.28,57.031 -46.68,84.969 -10.36,27.902 -12.34,57.82 -5.98,89.75 3.22,11.152 5.98,22.332 8.37,33.512 2.39,11.148 5.99,21.539 10.77,31.121 9.58,27.109 21.14,58.218 34.71,93.34 13.54,35.078 27.53,70.207 41.88,105.32 14.37,35.078 28.32,68.218 41.9,99.328 13.53,31.12 25.13,56.25 34.71,75.4 11.14,28.72 27.89,43.08 50.26,43.08 22.32,0 42.67,-8.79 61.04,-26.33 18.32,-17.57 32.3,-40.68 41.88,-69.41 9.57,-28.73 7.18,-56.66 -7.18,-83.77 -8.01,-19.161 -19.98,-46.298 -35.91,-81.38 -15.96,-35.121 -32.31,-71.442 -49.06,-108.91 -16.76,-37.508 -31.53,-73 -44.29,-106.508 -12.78,-33.512 -19.97,-58.262 -21.54,-74.203 0,-35.117 6.78,-53.481 20.35,-55.047 13.54,-1.613 31.9,7.18 55.05,26.328 23.12,19.148 48.65,45.852 76.59,80.18 27.9,34.3 56.25,70.609 84.97,108.91 28.72,38.289 55.43,75.39 80.19,111.301 24.72,35.898 45.85,64.988 63.43,87.359 22.32,39.87 41.06,75.39 56.25,106.51 15.14,31.12 37.88,61.82 68.21,92.15 15.93,6.36 35.08,5.17 57.44,-3.58 22.34,-8.79 42.27,-21.96 59.85,-39.5 17.53,-17.57 29.91,-37.1 37.1,-58.64 7.17,-21.55 5.15,-40.32 -5.99,-56.25 -28.72,-36.72 -54.68,-67.85 -77.79,-93.35 -23.15,-25.539 -45.1,-58.27 -65.82,-98.141 -11.19,-25.539 -23.94,-53.847 -38.3,-84.961 -14.36,-31.109 -27.52,-63.058 -39.5,-95.738 -11.96,-32.73 -21.53,-64.629 -28.72,-95.738 -7.18,-31.121 -9.2,-58.653 -5.97,-82.582 0,-27.149 13.53,-38.289 40.68,-33.508 38.3,6.359 80.56,26.699 126.85,61.039 46.27,34.289 91.75,73.371 136.44,117.269 44.66,43.879 86.16,86.961 124.46,129.258 38.3,42.262 68.6,73.782 90.96,94.543" /><path
         id="path24"
         style="fill:#ffffff;fill-opacity:1;fill-rule:nonzero;stroke:none"
         d="m 5706.12,208.25 c 9.57,-30.301 29.1,-39.879 58.64,-28.73 29.51,11.179 63.81,35.109 102.93,71.8 39.08,36.731 80.17,81.391 123.26,134.051 43.08,52.649 84.15,104.488 123.27,155.57 39.08,51.059 73,97.321 101.72,138.829 28.72,41.468 47.87,68.582 57.45,81.378 7.96,12.75 17.13,24.723 27.52,35.903 10.36,11.148 23.52,23.109 39.49,35.898 6.36,4.789 13.96,9.942 22.75,15.563 8.75,5.578 16.33,7.968 22.73,7.179 6.36,-0.82 9.17,-5.992 8.38,-15.562 -0.82,-9.57 -6.81,-25.547 -17.95,-47.867 -9.58,-19.141 -24.76,-48.282 -45.48,-87.364 -20.75,-39.109 -46.3,-82.988 -76.59,-131.636 -30.33,-48.703 -63.84,-98.961 -100.53,-150.793 -36.73,-51.84 -76.22,-100.117 -118.48,-144.821 -42.3,-44.648 -85.39,-83.769 -129.25,-117.269 -43.91,-33.52 -88.19,-55.059 -132.84,-64.629 -39.91,-9.5703 -76.6,-14.7383 -110.1,-15.5586 -33.52,-0.793 -63.02,11.5899 -88.57,37.0976 -23.93,23.93 -37.47,58.262 -40.68,102.922 -3.18,44.699 -1.2,92.148 5.98,142.41 7.18,50.258 17.16,98.93 29.92,146.008 12.79,47.051 23.15,83.371 31.11,108.902 25.55,82.949 49.86,164.75 73.01,245.348 23.11,80.551 45.85,161.561 68.21,242.931 23.94,71.81 45.85,145.6 65.82,221.4 19.93,75.78 40.29,144 61.04,204.65 -31.94,1.58 -64.62,2.77 -98.14,3.59 -33.5,0.79 -67.02,1.58 -100.52,2.4 -33.51,0.78 -66.62,2.76 -99.33,5.98 -32.7,3.18 -63.44,8.75 -92.16,16.76 -25.51,6.35 -44.28,16.75 -56.25,31.11 -11.96,14.36 -17.54,28.73 -16.75,43.09 0.82,14.36 8.79,26.7 23.94,37.09 15.18,10.37 37.1,15.57 65.82,15.57 17.58,0 46.3,-1.61 86.16,-4.79 39.91,-3.22 81.76,-5.61 125.67,-7.18 43.86,-1.61 84.56,-2.02 122.07,-1.2 37.47,0.79 61.81,3.59 73,8.38 4.79,1.57 7.18,3.96 7.18,7.18 9.57,28.72 19.93,59.01 31.11,90.95 11.15,31.91 22.33,63.02 33.51,93.35 11.15,30.29 21.92,59.01 32.32,86.17 10.36,27.11 19.52,50.26 27.52,69.41 6.36,14.36 19.53,20.34 39.5,17.95 19.93,-2.39 40.69,-9.2 62.23,-20.35 21.54,-11.18 40.28,-25.13 56.24,-41.88 15.94,-16.75 23.12,-32.31 21.55,-46.67 -4.79,-41.52 -15.97,-82.21 -33.51,-122.07 -17.58,-39.91 -32.72,-85.39 -45.48,-136.44 100.53,1.58 187.07,2.77 259.7,3.59 72.59,0.79 143.2,1.2 211.83,1.2 22.33,0 44.65,-0.41 67.02,-1.2 22.32,-0.82 39.49,-2.8 51.46,-5.98 11.96,-3.22 14.73,-7.59 8.37,-13.16 -6.39,-5.61 -27.15,-13.17 -62.23,-22.74 -100.52,-31.94 -197.88,-56.25 -292.01,-73.01 -94.17,-16.75 -186.7,-29.13 -277.64,-37.1 -8.01,-1.6 -11.61,-3.21 -10.78,-4.78 0.79,-1.61 -1.2,-6.4 -5.98,-14.36 0,-1.61 -0.82,-3.22 -2.39,-4.79 -1.62,-1.61 -2.4,-3.22 -2.4,-4.79 -25.54,-70.23 -53.48,-149.22 -83.78,-236.96 -30.33,-87.77 -60.65,-177.94 -90.94,-270.469 -30.34,-92.563 -59.06,-183.512 -86.18,-272.852 -27.14,-89.39 -50.26,-170.359 -69.41,-242.949 -19.14,-72.629 -33.13,-133.219 -41.88,-181.91 -8.79,-48.66 -9.2,-78.57 -1.2,-89.75" /><path
         id="path26"
         style="fill:#ffffff;fill-opacity:1;fill-rule:nonzero;stroke:none"
         d="m 6661.1,837.738 c 3.18,0 6.36,1.571 9.58,4.782 3.18,3.191 4.79,6.359 4.79,9.582 12.74,30.296 18.73,63.796 17.95,100.527 -0.83,36.691 -12.38,66.191 -34.71,88.561 -11.18,12.75 -25.54,19.93 -43.08,21.54 -17.58,1.57 -34.34,-1.61 -50.27,-9.57 -31.93,-19.15 -57.44,-41.52 -76.59,-67.019 -19.15,-25.551 -37.51,-51.879 -55.05,-78.993 0,-8.007 1.57,-13.566 4.79,-16.757 15.92,-14.352 23.11,-30.332 21.54,-47.871 0,-7.989 9.16,-12.79 27.52,-14.348 18.33,-1.613 39.08,-2.024 62.24,-1.203 23.11,0.781 45.47,2.761 67.02,5.98 21.54,3.18 36.27,4.789 44.27,4.789 z M 6448.08,469.129 c 15.93,3.191 33.88,14.742 53.85,34.711 19.94,19.93 39.09,42.68 57.45,68.211 18.33,25.508 34.29,51.469 47.87,77.801 13.54,26.328 22.74,48.238 27.53,65.82 -31.95,-3.211 -66.23,-4.793 -102.92,-4.793 -36.73,0 -71.03,3.191 -102.93,9.57 -4.79,-14.347 -8,-33.129 -9.57,-56.238 -1.61,-23.152 -1.61,-47.09 0,-71.801 1.57,-24.762 4.78,-48.281 9.57,-70.621 4.79,-22.359 11.15,-39.898 19.15,-52.66 z m 349.45,392.543 c 19.15,1.578 39.87,6.359 62.24,14.367 22.32,7.961 43.08,14.352 62.23,19.141 22.33,6.359 45.85,13.949 70.61,22.742 24.72,8.75 48.24,15.558 70.6,20.348 15.94,0 22.34,-4.418 19.15,-13.168 -3.21,-8.793 -10.77,-19.153 -22.73,-31.114 -11.97,-11.968 -25.55,-23.566 -40.69,-34.707 -15.19,-11.179 -26.74,-19.152 -34.71,-23.929 -38.29,-17.582 -76.22,-31.122 -113.69,-40.704 -37.51,-9.566 -73.01,-23.136 -106.52,-40.679 -14.35,-25.547 -34.32,-59.457 -59.83,-101.731 -25.55,-42.289 -53.86,-83.398 -84.97,-123.258 -31.12,-39.91 -63.84,-74.199 -98.13,-102.929 -34.34,-28.719 -67.44,-43.082 -99.34,-43.082 -44.69,0 -82.99,12.761 -114.89,38.293 -23.93,15.937 -41.89,40.699 -53.85,74.199 -11.97,33.519 -19.15,69.789 -21.54,108.91 -2.4,39.078 -1.21,77.379 3.59,114.891 4.78,37.468 10.39,68.207 16.75,92.148 1.61,11.141 4,18.738 7.19,22.731 3.21,3.968 6.38,6.781 9.57,8.379 3.21,1.582 6.8,3.191 10.77,4.789 4,1.57 7.59,4.793 10.77,9.582 4.78,17.539 9.57,35.898 14.35,55.05 4.8,19.149 11.98,36.688 21.55,52.649 27.12,47.88 61.82,92.15 104.12,132.85 42.26,40.69 91.33,64.21 147.21,70.61 35.07,6.35 67.39,4.79 96.93,-4.79 29.51,-9.57 55.43,-27.93 77.79,-55.05 19.14,-20.75 32.69,-43.5 40.69,-68.22 7.96,-24.75 12.75,-48.689 14.36,-71.799 1.57,-23.16 0.78,-44.281 -2.39,-63.429 -3.22,-19.153 -5.62,-33.524 -7.19,-43.09" /><path
         id="path28"
         style="fill:#ffffff;fill-opacity:1;fill-rule:nonzero;stroke:none"
         d="m 7223.58,560.09 c -17.58,-17.578 -41.52,-42.711 -71.81,-75.399 -30.33,-32.722 -58.64,-68.211 -84.97,-106.5 -26.33,-38.3 -47.87,-76.179 -64.63,-113.703 -16.75,-37.468 -21.12,-69.789 -13.16,-96.937 31.9,14.371 64.62,37.918 98.13,70.609 33.52,32.719 63.02,68.629 88.56,107.711 25.51,39.117 43.46,77.789 53.86,116.09 10.35,38.289 8.37,70.98 -5.98,98.129 z m -81.38,107.711 c -31.94,44.66 -63.44,90.129 -94.55,136.429 -31.12,46.258 -46.67,97.309 -46.67,153.192 0,62.218 17.95,120.868 53.85,175.918 35.9,55.05 76.97,99.34 123.27,132.84 19.15,12.75 38.67,23.12 58.64,31.12 19.93,7.96 41.06,7.18 63.43,-2.39 9.57,-4.79 19.52,-8.38 29.92,-10.77 10.36,-2.4 19.52,-5.21 27.52,-8.38 7.97,-3.22 16.76,-8.01 26.33,-14.37 9.58,-6.39 14.36,-15.18 14.36,-26.32 0,-44.69 1.2,-81.01 3.6,-108.91 2.39,-27.93 5.97,-51.87 10.77,-71.81 4.78,-19.97 9.57,-37.51 14.35,-52.66 4.79,-15.178 9.58,-31.518 14.37,-49.061 3.17,-15.981 2.39,-29.551 -2.39,-40.688 -4.8,-11.179 -16.76,-12.8 -35.91,-4.793 -35.12,12.762 -61.04,38.293 -77.79,76.59 -16.75,38.312 -29.14,73.382 -37.1,105.322 -1.61,6.35 -5.61,17.54 -11.97,33.51 -6.39,15.94 -10.4,27.12 -11.96,33.51 -12.79,3.18 -27.94,-1.2 -45.48,-13.17 -17.58,-11.96 -33.13,-28.34 -46.68,-49.07 -13.57,-20.75 -22.36,-44.69 -26.33,-71.79 -4,-27.159 1.2,-54.269 15.56,-81.39 6.36,-9.57 15.56,-21.16 27.53,-34.711 11.96,-13.57 23.93,-27.519 35.9,-41.879 11.97,-14.371 23.93,-28.351 35.91,-41.89 11.96,-13.571 21.91,-24.34 29.92,-32.309 9.57,-9.57 15.92,-14.769 19.14,-15.562 3.18,-0.821 11.15,1.203 23.93,5.992 15.94,7.969 40.29,18.32 73.01,31.109 32.69,12.75 67.02,25.512 102.92,38.289 35.9,12.762 70.2,23.531 102.92,32.321 32.69,8.75 57.82,13.16 75.4,13.16 11.14,0 19.15,-3.989 23.94,-11.961 4.78,-4.789 3.96,-11.18 -2.4,-19.149 -6.39,-8 -14.77,-15.968 -25.13,-23.941 -10.39,-8 -21.16,-15.18 -32.32,-21.539 -11.18,-6.391 -18.36,-10.391 -21.54,-11.961 -27.15,-15.969 -61.45,-33.93 -102.92,-53.859 -41.51,-19.969 -77.41,-39.489 -107.71,-58.641 -3.21,-3.219 -9.19,-6.391 -17.94,-9.578 -8.79,-3.211 -15.56,-6.391 -20.36,-9.571 19.15,-43.082 32.69,-80.179 40.7,-111.289 7.97,-31.132 10.77,-61.043 8.38,-89.769 -2.4,-28.723 -8.38,-57.852 -17.95,-87.363 -9.58,-29.508 -22.38,-63.43 -38.3,-101.719 C 7352,248.148 7329.26,213.031 7306.15,179.52 7283,146.012 7257.08,115.719 7228.36,88.5703 7199.64,61.4492 7168.53,39.9102 7135.01,23.9414 7101.51,8.01172 7064.78,0 7024.91,0 c -22.33,0 -43.86,2.80859 -64.63,8.37891 -20.71,5.60939 -38.29,17.17189 -52.65,34.71089 -36.69,39.9024 -57.44,83.3982 -62.24,130.4492 -4.78,47.082 -0.78,93.762 11.97,140.02 9.57,28.722 21.55,55.05 35.9,78.98 35.12,60.633 73.83,112.09 116.1,154.391 42.25,42.25 86.53,82.582 132.84,120.871" /></g></g></svg>