<?xml version="1.0" encoding="UTF-8" standalone="no"?>
<svg
   xmlns:dc="http://purl.org/dc/elements/1.1/"
   xmlns:cc="http://creativecommons.org/ns#"
   xmlns:rdf="http://www.w3.org/1999/02/22-rdf-syntax-ns#"
   xmlns:svg="http://www.w3.org/2000/svg"
   xmlns="http://www.w3.org/2000/svg"
   xmlns:sodipodi="http://sodipodi.sourceforge.net/DTD/sodipodi-0.dtd"
   xmlns:inkscape="http://www.inkscape.org/namespaces/inkscape"
   version="1.1"
   id="svg2"
   xml:space="preserve"
   width="1080.6133"
   height="262.39999"
   viewBox="0 0 1080.6133 262.39999"
   sodipodi:docname="2.eps"><metadata
     id="metadata8"><rdf:RDF><cc:Work
         rdf:about=""><dc:format>image/svg+xml</dc:format><dc:type
           rdf:resource="http://purl.org/dc/dcmitype/StillImage" /></cc:Work></rdf:RDF></metadata><defs
     id="defs6" /><sodipodi:namedview
     pagecolor="#ffffff"
     bordercolor="#666666"
     borderopacity="1"
     objecttolerance="10"
     gridtolerance="10"
     guidetolerance="10"
     inkscape:pageopacity="0"
     inkscape:pageshadow="2"
     inkscape:window-width="640"
     inkscape:window-height="480"
     id="namedview4" /><g
     id="g10"
     inkscape:groupmode="layer"
     inkscape:label="ink_ext_XXXXXX"
     transform="matrix(1.3333333,0,0,-1.3333333,0,262.4)"><g
       id="g12"
       transform="scale(0.1)"><path
         d="m 439.883,1844.87 c -33.281,-12.27 -59.746,-31.08 -79.442,-56.46 -19.699,-25.4 -33.711,-54.07 -42.019,-86.01 -8.328,-31.96 -11.387,-65.88 -9.192,-101.76 2.176,-35.91 9.399,-70.25 21.665,-103.08 12.25,-32.83 28.89,-62.82 49.898,-89.94 21.008,-27.15 45.957,-48.16 74.848,-63.03 13.988,26.26 26.687,55.8 38.074,88.63 11.371,32.83 20.129,66.74 26.265,101.76 6.114,35 9.622,69.6 10.504,103.73 0.86,34.15 -1.539,65.43 -7.222,93.89 -5.703,28.44 -15.328,52.53 -28.887,72.22 -13.582,19.7 -31.742,33.04 -54.492,40.05 z m 143.125,-516.04 c 28.004,-2.62 50.98,-3.51 68.937,-2.62 17.93,0.85 40.047,2.62 66.309,5.25 19.246,2.62 28.887,1.08 28.887,-4.6 0,-5.7 -4.168,-12.47 -12.473,-20.35 -8.328,-7.88 -18.18,-15.55 -29.547,-22.98 -11.387,-7.45 -18.832,-11.61 -22.324,-12.48 -14.891,-7.01 -28.02,-12.92 -39.387,-17.72 -11.387,-4.82 -22.773,-8.76 -34.14,-11.82 -11.387,-3.08 -22.774,-5.05 -34.141,-5.9 -11.387,-0.89 -24.086,-1.32 -38.082,-1.32 -15.758,-28.03 -35.449,-59.74 -59.086,-95.2 -23.633,-35.45 -50.125,-68.73 -79.441,-99.79 -29.34,-31.08 -61.282,-57.124 -95.852,-78.12 -34.598,-21.02 -70.254,-31.52 -107.02,-31.52 -42.019,0.879 -75.957,10.5 -101.7613,28.891 -25.8359,18.375 -45.7578,41.129 -59.7461,68.269 -14.0117,27.13 -23.2031,56.02 -27.57419,86.66 C 2.17188,1144.12 0,1172.13 0,1197.52 c 0,36.77 1.74219,72.66 5.25391,107.68 3.48828,35 8.74219,70.02 15.75779,105.04 4.3711,22.76 9.1875,45.51 14.4414,68.28 5.25,22.75 10.5039,45.96 15.7578,69.59 6.1133,23.64 17.0704,37.63 32.8282,42.03 15.7578,4.36 31.0589,3.28 45.9569,-3.29 14.871,-6.56 27.125,-16.87 36.766,-30.85 9.621,-14.02 11.363,-27.58 5.25,-40.71 -9.645,-22.78 -19.262,-53.18 -28.887,-91.26 -9.645,-38.08 -17.723,-78.58 -24.289,-121.46 -6.57,-42.9 -11.164,-85.14 -13.793,-126.71 -2.621,-41.59 -1.313,-76.82 3.941,-105.7 3.489,-20.15 9.852,-38.31 19.039,-54.5 9.196,-16.207 20.356,-23.43 33.485,-21.664 15.758,-1.766 36.109,6.774 61.062,25.604 24.946,18.82 50.098,41.79 75.496,68.94 25.383,27.12 49.02,56.01 70.911,86.66 21.867,30.64 37.625,56.89 47.269,78.78 -34.141,13.14 -64.789,32.83 -91.914,59.09 -27.144,26.27 -50.352,56.47 -69.594,90.61 -19.265,34.14 -33.937,70.68 -43.992,109.64 -10.07,38.94 -14.441,77.9 -13.129,116.86 1.313,38.95 8.535,76.16 21.664,111.62 13.133,35.45 33.258,66.74 60.403,93.88 35.886,35 73.738,56.89 113.582,65.65 39.824,8.74 79.441,5.69 118.836,-9.19 33.253,-12.27 59.086,-31.08 77.468,-56.46 18.383,-25.4 31.289,-54.72 38.735,-87.98 7.429,-33.28 10.715,-68.94 9.851,-107.01 -0.886,-38.08 -4.39,-76.16 -10.504,-114.24 -6.136,-38.08 -13.359,-74.19 -21.664,-108.33 -8.332,-34.14 -15.988,-63.91 -22.98,-89.29"
         style="fill:#f3e3d3;fill-opacity:1;fill-rule:nonzero;stroke:none"
         id="path14" /><path
         d="m 1251.35,1310.45 c -32.39,-22.77 -62.59,-50.56 -90.6,-83.38 -28.02,-32.83 -50.78,-65.66 -68.28,-98.48 -17.52,-32.83 -27.8,-62.82 -30.86,-89.95 -3.07,-27.14 4.6,-46.41 22.99,-57.777 14.87,-9.64 35.88,-10.293 63.02,-1.968 27.12,8.312 56.46,22.325 87.98,42.015 31.51,19.7 63.68,43.34 96.51,70.91 32.83,27.57 62.8,55.81 89.95,84.69 27.12,28.89 49.44,56.67 66.96,83.38 17.5,26.7 27.12,49.24 28.89,67.63 2.62,19.24 -1.31,35.66 -11.82,49.24 -10.5,13.56 -25.17,25.38 -43.99,35.45 -18.83,10.06 -40.04,18.81 -63.68,26.26 -23.64,7.43 -47.5,14.45 -71.56,21.01 -24.09,6.57 -47.07,13.34 -68.94,20.35 -21.89,7 -40.28,15.31 -55.15,24.96 -16.64,10.5 -29.77,22.97 -39.39,37.42 -9.64,14.44 -16.64,29.54 -21.01,45.3 -4.39,15.76 -6.36,31.94 -5.91,48.58 0.43,16.62 2.83,32.37 7.22,47.27 7,28.89 22.98,56.89 47.93,84.03 24.95,27.13 53.61,50.99 86,71.57 32.38,20.56 66.09,36.32 101.11,47.27 35.01,10.94 66.52,14.65 94.54,11.16 26.27,-4.39 48.14,-11.82 65.66,-22.32 17.5,-10.51 30.63,-28.46 39.39,-53.84 6.11,-21.01 6.11,-43.33 0,-66.96 -6.14,-23.64 -15.55,-46.18 -28.23,-67.63 -12.7,-21.46 -27.37,-41.15 -43.99,-59.08 -16.64,-17.96 -32.39,-31.75 -47.27,-41.36 -7.02,-5.26 -14.44,-9.2 -22.32,-11.82 -7.88,-2.63 -15.33,-4.4 -22.32,-5.25 -7.02,-0.89 -12.48,-0.46 -16.42,1.31 -3.94,1.74 -5.04,4.37 -3.28,7.87 10.51,18.39 21.66,38.94 33.48,61.72 11.82,22.75 22.98,45.3 33.49,67.63 10.5,22.31 19.24,43.1 26.26,62.36 6.99,19.25 11.36,34.57 13.13,45.96 1.74,9.63 -0.66,14.88 -7.22,15.76 -6.57,0.86 -14.67,0 -24.29,-2.63 -16.64,-5.25 -36.57,-13.58 -59.75,-24.95 -23.21,-11.38 -45.96,-24.29 -68.28,-38.73 -22.32,-14.45 -42.02,-29.77 -59.09,-45.96 -17.07,-16.21 -27.37,-31.31 -30.86,-45.3 -4.39,-8.76 -5.48,-17.07 -3.28,-24.95 2.17,-7.88 5.69,-15.1 10.5,-21.66 4.8,-6.57 10.51,-12.27 17.08,-17.07 6.56,-4.83 12.47,-8.99 17.72,-12.48 23.64,-14.9 47.27,-27.8 70.91,-38.73 23.64,-10.96 46.61,-22.33 68.93,-34.14 22.33,-11.82 43.99,-24.52 65,-38.09 21.01,-13.57 40.71,-29.99 59.09,-49.23 28.01,-29.77 45.73,-62.6 53.18,-98.48 7.43,-35.91 5.03,-71.36 -7.22,-106.36 -14.02,-43.79 -37.42,-86.89 -70.25,-129.34 -32.83,-42.47 -70.7,-79.9 -113.58,-112.269 -42.9,-32.391 -87.77,-57.32 -134.59,-74.84 -46.84,-17.5 -90.83,-23.64 -131.97,-18.383 -42.01,6.133 -76.16,20.141 -102.42,42.012 -26.26,21.871 -43.78,52.524 -52.52,91.91 -6.996,35.01 -6.567,68.29 1.312,99.8 7.878,31.51 21.008,60.4 39.388,86.67 18.39,26.25 40.26,49.89 65.66,70.9 25.38,21.01 52.07,38.08 80.1,51.21 16.62,8.74 33.69,15.53 51.21,20.35 17.5,4.8 35,8.54 52.52,11.16 16.62,3.49 24.95,2.83 24.95,-1.96 0,-4.83 -3.94,-11.17 -11.82,-19.05 -7.88,-7.88 -17.29,-15.98 -28.23,-24.29 -10.96,-8.33 -18.18,-13.79 -21.67,-16.41"
         style="fill:#f3e3d3;fill-opacity:1;fill-rule:nonzero;stroke:none"
         id="path16" /><path
         d="m 1813.34,1036.02 c -7.88,-6.14 -16.64,-12.93 -26.26,-20.36 -9.64,-7.44 -20.15,-14.01 -31.51,-19.695 -11.39,-5.703 -23.44,-10.074 -36.11,-13.129 -12.7,-3.078 -26.06,-3.281 -40.05,-0.66 -10.51,1.75 -20.15,5.461 -28.89,11.164 -8.74,5.683 -17.07,12.47 -24.95,20.35 -7.88,7.88 -12.68,19.25 -14.44,34.14 -1.74,14.88 -2.18,26.69 -1.32,35.46 4.39,22.75 10.51,46.82 18.39,72.22 7.87,25.37 17.52,50.33 28.89,74.84 19.24,40.26 43.76,76.16 73.53,107.67 29.75,31.52 65.65,51.64 107.67,60.4 13.99,3.49 28.66,4.15 43.99,1.97 15.3,-2.19 28.66,-7.22 40.04,-15.1 11.37,-7.87 20.13,-17.72 26.27,-29.54 6.11,-11.82 7.43,-24.75 3.94,-38.73 -1.77,-5.26 -3.74,-10.51 -5.91,-15.77 -2.2,-5.25 -4.82,-9.64 -7.88,-13.12 -3.08,-3.51 -5.91,-5.49 -8.53,-5.92 -2.63,-0.44 -5.26,1.98 -7.89,7.23 -0.87,2.62 -1.96,6.34 -3.28,11.16 -1.31,4.8 -3.28,9.62 -5.9,14.44 -2.63,4.8 -6.37,9.2 -11.17,13.13 -4.82,3.94 -11.16,5.91 -19.03,5.91 -16.65,0 -35.46,-10.3 -56.47,-30.85 -21.01,-20.59 -41.15,-44.65 -60.4,-72.23 -19.26,-27.57 -35.9,-55.14 -49.9,-82.71 -14.01,-27.58 -22.77,-48.38 -26.26,-62.38 -5.25,-22.77 -4.82,-34.79 1.32,-36.11 6.11,-1.31 15.75,3.49 28.88,14.45 13.13,10.93 28.01,26.03 44.65,45.3 16.62,19.24 32.37,38.28 47.27,57.11 14.87,18.82 27.78,35.46 38.73,49.9 10.94,14.44 16.85,22.1 17.73,22.98 11.37,8.74 22.76,12.68 34.14,11.82 11.37,-0.88 21.21,-5.05 29.54,-12.47 8.31,-7.45 14,-16.64 17.07,-27.58 3.06,-10.95 1.98,-22.12 -3.28,-33.49 -6.13,-14.01 -14.24,-30.64 -24.29,-49.89 -10.07,-19.26 -16.41,-36.34 -19.04,-51.21 -2.62,-22.77 0,-37.65 7.88,-44.65 7.88,-7.01 22.32,-6.56 43.33,1.32 16.62,6.99 34.14,19.47 52.52,37.42 18.39,17.93 36.55,36.97 54.49,57.12 17.94,20.12 34.8,39.39 50.56,57.78 15.76,18.38 28.89,31.94 39.39,40.7 2.63,2.63 5.91,5.46 9.85,8.54 3.94,3.05 7.22,3.71 9.85,1.96 4.37,-1.76 6.77,-4.16 7.22,-7.22 0.43,-3.08 0.66,-6.35 0.66,-9.84 -11.39,-28.03 -24.95,-55.6 -40.71,-82.72 -15.76,-27.15 -33.48,-52.33 -53.18,-75.51 -19.69,-23.2 -41.58,-43.78 -65.65,-61.714 -24.09,-17.953 -50.12,-32.168 -78.13,-42.676 -17.52,-6.109 -33.28,-8.089 -47.27,-5.91 -14.02,2.2 -26.72,7.231 -38.08,15.102 -11.38,7.879 -20.58,17.933 -27.58,30.199 -7.01,12.249 -11.81,25.379 -14.44,39.399"
         style="fill:#f3e3d3;fill-opacity:1;fill-rule:nonzero;stroke:none"
         id="path18" /><path
         d="m 2517.13,1854.06 c -37.64,-63.02 -71.35,-127.82 -101.1,-194.33 -29.77,-66.54 -59.54,-133.08 -89.29,-199.59 7.88,7.88 17.73,21.21 29.54,40.05 11.82,18.81 24.3,40.25 37.43,64.34 13.13,24.06 26.26,50.1 39.39,78.13 13.13,28 25.38,55.14 36.76,81.41 11.37,26.26 21.44,50.98 30.21,74.19 8.73,23.18 14.44,41.79 17.06,55.8 z M 2194.12,924.41 c 4.37,-8.738 10.28,-13.34 17.73,-13.789 7.42,-0.43 14.64,1.527 21.66,5.91 26.26,22.77 51.21,47.27 74.84,73.528 23.64,26.261 46.17,52.521 67.63,78.781 21.44,26.26 42.45,51.87 63.03,76.82 20.56,24.95 40.48,47.47 59.75,67.62 6.99,7 12.47,8.54 16.41,4.6 3.94,-3.95 4.59,-9.85 1.96,-17.73 -12.26,-20.15 -24.51,-39.62 -36.76,-58.43 -12.27,-18.84 -24.95,-37.88 -38.08,-57.12 -27.14,-38.53 -54.94,-79.67 -83.38,-123.42 -28.46,-43.77 -59.74,-80.969 -93.89,-111.621 -21.01,-19.239 -43.78,-30.2 -68.28,-32.829 -22.77,0.879 -44.21,8.11 -64.34,21.668 -20.12,13.582 -31.94,31.743 -35.45,54.493 -5.25,53.398 -4.37,107.219 2.63,161.509 7.88,63.03 20.58,128.23 38.08,195.65 17.5,67.4 38.73,134.36 63.68,200.9 24.95,66.51 52.3,131.3 82.07,194.33 29.75,63.03 60.83,121.67 93.23,175.95 14.87,23.64 29.75,46.16 44.64,67.63 14.88,21.44 30.63,41.36 47.27,59.74 6.12,7.88 13.79,13.57 22.98,17.07 9.19,3.49 18.59,3.06 28.23,-1.31 19.25,-8.76 27.58,-24.95 24.95,-48.59 -6.14,-51.66 -16.86,-101.98 -32.17,-151 -15.33,-49.04 -33.94,-96.31 -55.81,-141.81 -21.89,-45.53 -46.4,-89.29 -73.53,-131.31 -27.14,-42.02 -56.03,-81.86 -86.66,-119.49 -2.63,-2.62 -4.6,-5.7 -5.91,-9.19 -1.31,-3.51 -2.85,-7.01 -4.59,-10.51 -13.13,-35.01 -26.06,-73.53 -38.74,-115.55 -12.7,-42.02 -23.64,-82.95 -32.83,-122.77 -9.19,-39.84 -15.75,-76.81 -19.69,-110.95 -3.94,-34.143 -4.17,-60.401 -0.66,-78.78"
         style="fill:#f3e3d3;fill-opacity:1;fill-rule:nonzero;stroke:none"
         id="path20" /><path
         d="m 3387.69,1821.23 c -1.77,0 -4.83,-1.31 -9.19,-3.94 -4.4,-2.62 -9.2,-5.47 -14.45,-8.53 -5.25,-3.08 -10.07,-5.91 -14.44,-8.54 -4.39,-2.62 -7.02,-3.93 -7.88,-3.93 -12.27,-7.02 -24.29,-13.59 -36.11,-19.7 -11.82,-6.13 -22.98,-12.7 -33.49,-19.7 -50.77,-32.39 -98.27,-66.96 -142.47,-103.73 -44.21,-36.77 -84.69,-76.61 -121.45,-119.49 -24.52,-28.03 -47.27,-58 -68.28,-89.95 -21.01,-31.96 -39.19,-65.22 -54.49,-99.79 -15.33,-34.59 -27.15,-69.82 -35.46,-105.7 -8.33,-35.91 -12.04,-71.79 -11.16,-107.68 0.86,-26.25 3.94,-51 9.19,-74.18 5.25,-23.21 13.99,-40.93 26.26,-53.18 19.25,-18.385 42.22,-26.92 68.94,-25.608 26.69,1.313 55.58,9.195 86.66,23.638 31.06,14.44 63.69,34.35 97.83,59.74 34.14,25.38 67.62,53.18 100.45,83.38 32.82,30.21 64.34,61.72 94.54,94.55 30.2,32.82 57.55,64.11 82.07,93.88 6.11,5.25 12.02,12.68 17.72,22.32 5.68,9.62 12.03,17.5 19.04,23.64 7,4.37 12.91,3.06 17.73,-3.94 4.8,-7.02 7.22,-14.02 7.22,-21.01 -1.76,-37.65 -9.85,-72.01 -24.29,-103.08 -14.45,-31.08 -31.74,-59.74 -51.87,-86 -24.51,-31.52 -53.41,-62.82 -86.66,-93.89 -33.28,-31.08 -68.73,-59.31 -106.36,-84.693 -37.65,-25.398 -76.61,-45.957 -116.86,-61.707 -40.28,-15.762 -79.24,-23.64 -116.87,-23.64 -33.28,0 -61.94,5.71 -86.01,17.07 -24.08,11.379 -44.64,26.488 -61.71,45.301 -17.07,18.812 -31.08,40.479 -42.02,64.999 -10.95,24.5 -19.49,50.32 -25.6,77.47 -1.77,7.87 -3.29,16.84 -4.6,26.92 -1.31,10.05 -1.97,19.9 -1.97,29.54 0,45.51 4.6,87.75 13.79,126.71 9.19,38.94 20.35,76.81 33.48,113.58 5.26,16.62 12.25,32.83 21.01,48.59 25.38,53.38 57.98,104.82 97.82,154.28 39.83,49.45 84.04,94.54 132.63,135.25 48.58,40.7 100,76.36 154.28,107.01 54.27,30.64 108.99,53.84 164.14,69.6 14.87,5.25 29.32,5.25 43.33,0 4.37,-1.77 8.74,-2.63 13.13,-2.63 4.37,0 9.19,2.18 14.44,6.57 13.13,7.88 26.92,8.31 41.37,1.31 14.44,-7.02 22.52,-19.27 24.29,-36.77 2.62,-24.51 -0.45,-48.58 -9.19,-72.21 -6.14,-21.01 -12.48,-40.71 -19.05,-59.09 -6.56,-18.39 -13.35,-37 -20.35,-55.81 -7.01,-18.83 -13.58,-39.18 -19.69,-61.05 -6.14,-21.9 -11.39,-46.84 -15.76,-74.85 -0.88,-4.39 -2.42,-9.42 -4.6,-15.1 -2.19,-5.7 -4.59,-9.42 -7.22,-11.16 -4.39,-7.88 -10.3,-12.48 -17.72,-13.79 -7.45,-1.31 -14.24,1.52 -20.35,8.53 -1.77,2.63 -3.74,5.26 -5.92,7.89 -2.19,2.62 -4.16,5.68 -5.9,9.18 -8.76,20.13 -14.24,42.89 -16.42,68.28 -2.19,25.39 -1.76,50.99 1.32,76.82 3.05,25.81 9.19,49.9 18.38,72.22 9.19,22.32 20.78,40.91 34.8,55.8"
         style="fill:#f3e3d3;fill-opacity:1;fill-rule:nonzero;stroke:none"
         id="path22" /><path
         d="m 3863.01,1332.77 c -33.28,-14.89 -63.91,-36.99 -91.92,-66.31 -28.02,-29.33 -54.49,-61.94 -79.44,-97.82 -24.95,-35.91 -49.24,-73.1 -72.87,-111.62 -23.64,-38.52 -47.28,-74.411 -70.91,-107.668 -7,-7.872 -15.31,-10.051 -24.95,-6.563 -9.62,3.5 -15.76,10.301 -18.38,20.352 -2.63,10.054 -1.75,20.785 2.62,32.172 6.14,21.007 12.05,44.647 17.73,70.897 5.71,26.26 11.17,53.84 16.41,82.73 5.26,28.88 10.72,57.77 16.42,86.67 5.68,28.88 11.59,56.45 17.72,82.71 1.75,7 5.91,12.48 12.48,16.42 6.57,3.94 13.79,6.11 21.67,6.56 7.88,0.44 14.87,-1.1 21.01,-4.59 6.11,-3.51 10.05,-8.76 11.81,-15.76 3.49,-17.52 2.41,-38.53 -3.28,-63.02 -5.7,-24.52 -12.04,-48.59 -19.04,-72.22 15.76,19.24 33.03,41.79 51.87,67.62 18.81,25.81 39.39,49.9 61.71,72.22 22.32,22.32 45.96,40.7 70.91,55.15 24.95,14.44 50.98,20.35 78.13,17.72 13.99,-4.39 25.15,-11.61 33.48,-21.66 8.31,-10.08 14.65,-21.46 19.04,-34.14 4.37,-12.7 6.77,-25.17 7.22,-37.42 0.43,-12.27 -0.66,-22.78 -3.28,-31.52 -6.14,-12.27 -13.36,-25.61 -21.67,-40.05 -8.33,-14.44 -14.89,-29.11 -19.69,-43.99 -4.83,-14.89 -6.79,-29.54 -5.91,-43.98 0.86,-14.45 7.88,-27.37 21.01,-38.74 5.25,-7.01 4.8,-12.27 -1.32,-15.75 -6.13,-3.51 -14.44,-5.48 -24.94,-5.92 -10.51,-0.45 -21.01,0.66 -31.52,3.29 -10.51,2.63 -17.95,6.56 -22.32,11.82 -14.02,19.24 -22.55,38.73 -25.61,58.43 -3.07,19.69 -2.42,39.59 1.98,59.75 4.37,20.12 11.36,39.81 21,59.08 9.63,19.24 20.56,37.63 32.83,55.15"
         style="fill:#f3e3d3;fill-opacity:1;fill-rule:nonzero;stroke:none"
         id="path24" /><path
         d="m 4120.37,1390.55 c -6.14,-6.14 -10.51,-6.14 -13.14,0 -11.38,17.5 -18.84,35.88 -22.32,55.14 -3.51,19.25 -1.76,38.51 5.25,57.78 3.49,11.37 11.16,20.78 22.98,28.23 11.82,7.43 22.53,9.85 32.17,7.23 5.25,-1.77 10.94,-4.61 17.07,-8.54 6.11,-3.94 10.06,-8.53 11.82,-13.79 6.12,-23.63 2.83,-46.4 -9.85,-68.28 -12.69,-21.89 -27.37,-41.16 -43.98,-57.77 z m 183.83,-157.57 15.75,15.75 h 1.33 v -2.62 c 1.73,-20.15 0,-35.25 -5.26,-45.31 -5.25,-10.07 -7.89,-15.55 -7.89,-16.41 -8.75,-13.13 -20.57,-29.99 -35.45,-50.55 -14.9,-20.58 -30.43,-41.59 -46.62,-63.03 -16.19,-21.46 -31.73,-41.16 -46.61,-59.09 -14.89,-17.95 -26.71,-30.857 -35.45,-38.728 -10.51,-12.273 -21.89,-23.64 -34.14,-34.14 -4.4,-3.493 -10.3,-6.571 -17.73,-9.192 -7.45,-2.629 -15.09,-4.601 -22.97,-5.91 -7.88,-1.309 -15.56,-1.52 -22.98,-0.66 -7.45,0.89 -13.36,3.082 -17.73,6.57 -14.89,9.641 -26.47,21.231 -34.8,34.801 -8.3,13.551 -12.47,28.223 -12.47,43.979 -2.62,48.13 1.54,97.37 12.47,147.72 10.96,50.33 23.85,96.06 38.74,137.22 4.37,12.25 10.51,24.94 18.38,38.08 7.88,7.88 17.07,10.05 27.58,6.56 10.5,-3.5 19.9,-10.73 28.23,-21.66 8.31,-10.96 14.44,-24.3 18.38,-40.05 3.94,-15.76 3.28,-31.52 -1.97,-47.27 -4.39,-14.9 -8.33,-29.11 -11.81,-42.68 -3.52,-13.58 -7.45,-27.8 -11.83,-42.68 -1.76,-7.01 -4.59,-17.07 -8.53,-30.2 -3.94,-13.12 -8.1,-26.91 -12.47,-41.35 -4.4,-14.45 -8.33,-28.24 -11.82,-41.37 -3.51,-13.13 -5.7,-23.2 -6.56,-30.2 -1.77,-13.13 1.74,-16.634 10.49,-10.501 8.74,6.113 20.56,16.621 35.46,31.511 35.88,36.77 70.02,72.42 102.43,107.02 32.38,34.57 64.33,69.36 95.85,104.39"
         style="fill:#f3e3d3;fill-opacity:1;fill-rule:nonzero;stroke:none"
         id="path26" /><path
         d="m 4409.24,1049.14 c -9.64,-9.64 -22.77,-23.42 -39.39,-41.36 -16.64,-17.948 -32.17,-37.417 -46.61,-58.428 -14.45,-21.012 -26.26,-41.793 -35.46,-62.364 -9.19,-20.558 -11.59,-38.289 -7.22,-53.187 17.5,7.879 35.45,20.801 53.84,38.738 18.38,17.949 34.57,37.652 48.58,59.082 13.99,21.469 23.84,42.68 29.55,63.692 5.68,21.007 4.59,38.937 -3.29,53.827 z m -44.64,59.09 c -17.52,24.5 -34.8,49.45 -51.87,74.85 -17.07,25.38 -25.61,53.38 -25.61,84.04 0,34.13 9.86,66.31 29.55,96.51 19.69,30.2 42.22,54.49 67.62,72.87 10.51,7 21.21,12.68 32.17,17.07 10.94,4.37 22.53,3.94 34.8,-1.31 5.25,-2.63 10.71,-4.6 16.41,-5.91 5.69,-1.31 10.71,-2.85 15.1,-4.59 4.37,-1.77 9.2,-4.39 14.45,-7.88 5.25,-3.51 7.87,-8.33 7.87,-14.45 0,-24.51 0.67,-44.44 1.98,-59.74 1.3,-15.33 3.28,-28.46 5.9,-39.39 2.63,-10.96 5.26,-20.59 7.89,-28.89 2.62,-8.33 5.25,-17.3 7.88,-26.92 1.73,-8.76 1.3,-16.21 -1.32,-22.32 -2.63,-6.13 -9.19,-7.02 -19.7,-2.63 -19.27,7 -33.48,21.01 -42.68,42.02 -9.18,21.01 -15.97,40.26 -20.35,57.78 -0.88,3.48 -3.07,9.62 -6.56,18.38 -3.51,8.74 -5.7,14.87 -6.56,18.38 -7.02,1.74 -15.33,-0.66 -24.95,-7.22 -9.65,-6.57 -18.19,-15.55 -25.61,-26.92 -7.45,-11.39 -12.26,-24.51 -14.44,-39.39 -2.2,-14.89 0.65,-29.77 8.53,-44.64 3.49,-5.25 8.54,-11.62 15.1,-19.04 6.56,-7.45 13.14,-15.11 19.7,-22.98 6.56,-7.88 13.13,-15.55 19.7,-22.98 6.56,-7.45 12.02,-13.36 16.41,-17.73 5.25,-5.25 8.74,-8.1 10.5,-8.54 1.75,-0.45 6.11,0.66 13.13,3.29 8.74,4.37 22.1,10.05 40.05,17.07 17.93,6.99 36.77,13.99 56.47,21.01 19.7,6.99 38.5,12.9 56.45,17.73 17.94,4.79 31.72,7.22 41.37,7.22 6.11,0 10.51,-2.2 13.13,-6.57 2.62,-2.63 2.17,-6.13 -1.31,-10.5 -3.51,-4.39 -8.11,-8.76 -13.79,-13.13 -5.71,-4.4 -11.61,-8.33 -17.73,-11.82 -6.13,-3.51 -10.08,-5.71 -11.81,-6.57 -14.9,-8.76 -33.71,-18.6 -56.47,-29.54 -22.77,-10.96 -42.47,-21.67 -59.09,-32.17 -1.76,-1.77 -5.04,-3.51 -9.84,-5.25 -4.83,-1.77 -8.54,-3.52 -11.17,-5.26 10.51,-23.63 17.93,-43.98 22.33,-61.05 4.36,-17.07 5.91,-33.49 4.59,-49.24 -1.31,-15.763 -4.59,-31.739 -9.85,-47.931 -5.25,-16.187 -12.26,-34.801 -21,-55.801 -12.28,-20.128 -24.75,-39.398 -37.42,-57.789 -12.71,-18.371 -26.93,-35 -42.68,-49.898 -15.76,-14.859 -32.83,-26.68 -51.21,-35.449 -18.39,-8.731 -38.54,-13.121 -60.4,-13.121 -12.26,0 -24.07,1.539 -35.46,4.589 -11.37,3.079 -21.01,9.411 -28.89,19.04 -20.12,21.902 -31.51,45.75 -34.14,71.558 -2.62,25.832 -0.43,51.442 6.58,76.82 5.24,15.762 11.81,30.211 19.68,43.332 19.27,33.258 40.51,61.49 63.69,84.69 23.19,23.19 47.47,45.31 72.88,66.31"
         style="fill:#f3e3d3;fill-opacity:1;fill-rule:nonzero;stroke:none"
         id="path28" /><path
         d="m 4683.66,856.129 c 5.25,-16.617 15.95,-21.879 32.17,-15.77 16.19,6.153 35,19.27 56.46,39.403 21.44,20.148 43.99,44.648 67.63,73.527 23.63,28.887 46.16,57.321 67.61,85.351 21.45,28 40.05,53.38 55.82,76.16 15.75,22.75 26.26,37.63 31.51,44.64 4.36,7 9.39,13.57 15.1,19.7 5.68,6.11 12.91,12.68 21.67,19.7 3.48,2.62 7.64,5.46 12.47,8.53 4.8,3.06 8.96,4.37 12.47,3.94 3.48,-0.45 5.03,-3.28 4.6,-8.53 -0.45,-5.26 -3.73,-14.02 -9.86,-26.27 -5.24,-10.5 -13.57,-26.48 -24.94,-47.92 -11.38,-21.46 -25.4,-45.53 -42.02,-72.22 -16.64,-26.72 -35.02,-54.29 -55.15,-82.725 -20.14,-28.434 -41.81,-54.926 -65,-79.446 -23.2,-24.488 -46.83,-45.949 -70.9,-64.328 -24.09,-18.391 -48.38,-30.211 -72.87,-35.461 -21.9,-5.262 -42.03,-8.09 -60.4,-8.539 -18.39,-0.43 -34.58,6.367 -48.59,20.348 -13.13,13.14 -20.56,31.98 -22.32,56.472 -1.75,24.52 -0.66,50.559 3.28,78.118 3.93,27.582 9.41,54.273 16.41,80.101 7.02,25.81 12.7,45.73 17.07,59.75 14.02,45.51 27.35,90.38 40.05,134.59 12.68,44.19 25.15,88.63 37.43,133.28 13.12,39.39 25.15,79.87 36.1,121.45 10.94,41.57 22.1,79 33.48,112.27 -17.51,0.86 -35.44,1.52 -53.83,1.97 -18.38,0.44 -36.77,0.87 -55.15,1.32 -18.38,0.43 -36.54,1.51 -54.49,3.28 -17.93,1.75 -34.8,4.8 -50.56,9.19 -13.99,3.49 -24.29,9.19 -30.85,17.07 -6.57,7.88 -9.63,15.76 -9.2,23.63 0.46,7.88 4.83,14.66 13.14,20.36 8.33,5.68 20.35,8.54 36.11,8.54 9.64,0 25.39,-0.89 47.27,-2.63 21.89,-1.77 44.85,-3.08 68.93,-3.94 24.07,-0.88 46.39,-1.11 66.97,-0.65 20.56,0.42 33.91,1.96 40.05,4.59 2.63,0.86 3.94,2.17 3.94,3.94 5.25,15.76 10.94,32.37 17.07,49.89 6.11,17.51 12.25,34.58 18.38,51.21 6.11,16.62 12.02,32.38 17.73,47.27 5.69,14.88 10.71,27.58 15.1,38.09 3.49,7.87 10.71,11.16 21.66,9.84 10.94,-1.31 22.32,-5.04 34.14,-11.16 11.82,-6.13 22.1,-13.79 30.86,-22.98 8.74,-9.19 12.69,-17.72 11.82,-25.6 -2.63,-22.78 -8.76,-45.1 -18.38,-66.97 -9.65,-21.89 -17.95,-46.84 -24.95,-74.84 55.14,0.85 102.62,1.51 142.47,1.96 39.82,0.44 78.55,0.66 116.21,0.66 12.24,0 24.49,-0.22 36.76,-0.66 12.25,-0.45 21.67,-1.54 28.23,-3.28 6.57,-1.76 8.08,-4.16 4.6,-7.22 -3.51,-3.08 -14.89,-7.22 -34.14,-12.47 -55.15,-17.52 -108.56,-30.86 -160.2,-40.05 -51.66,-9.19 -102.42,-15.98 -152.31,-20.36 -4.4,-0.88 -6.37,-1.76 -5.91,-2.62 0.43,-0.89 -0.66,-3.51 -3.29,-7.88 0,-0.88 -0.45,-1.77 -1.31,-2.62 -0.88,-0.89 -1.31,-1.77 -1.31,-2.63 -14.01,-38.53 -29.34,-81.86 -45.97,-130 -16.63,-48.15 -33.27,-97.61 -49.89,-148.37 -16.64,-50.78 -32.39,-100.68 -47.26,-149.69 -14.91,-49.04 -27.58,-93.46 -38.09,-133.28 -10.5,-39.84 -18.17,-73.09 -22.98,-99.801 -4.82,-26.679 -5.05,-43.097 -0.65,-49.23"
         style="fill:#f3e3d3;fill-opacity:1;fill-rule:nonzero;stroke:none"
         id="path30" /><path
         d="m 5162.92,1036.02 c -7.89,-6.14 -16.64,-12.93 -26.27,-20.36 -9.64,-7.44 -20.15,-14.01 -31.52,-19.695 -11.38,-5.703 -23.43,-10.074 -36.1,-13.129 -12.71,-3.078 -26.06,-3.281 -40.05,-0.66 -10.51,1.75 -20.15,5.461 -28.89,11.164 -8.74,5.683 -17.07,12.47 -24.95,20.35 -7.88,7.88 -12.67,19.25 -14.44,34.14 -1.75,14.88 -2.18,26.69 -1.32,35.46 4.4,22.75 10.51,46.82 18.39,72.22 7.88,25.37 17.52,50.33 28.89,74.84 19.24,40.26 43.76,76.16 73.53,107.67 29.75,31.52 65.66,51.64 107.67,60.4 13.99,3.49 28.66,4.15 43.99,1.97 15.3,-2.19 28.66,-7.22 40.05,-15.1 11.37,-7.87 20.13,-17.72 26.26,-29.54 6.11,-11.82 7.42,-24.75 3.94,-38.73 -1.76,-5.26 -3.74,-10.51 -5.91,-15.77 -2.2,-5.25 -4.82,-9.64 -7.88,-13.12 -3.08,-3.51 -5.91,-5.49 -8.54,-5.92 -2.62,-0.44 -5.24,1.98 -7.87,7.23 -0.89,2.62 -1.97,6.34 -3.28,11.16 -1.32,4.8 -3.29,9.62 -5.91,14.44 -2.63,4.8 -6.37,9.2 -11.16,13.13 -4.83,3.94 -11.16,5.91 -19.04,5.91 -16.65,0 -35.45,-10.3 -56.47,-30.85 -21.01,-20.59 -41.15,-44.65 -60.4,-72.23 -19.27,-27.57 -35.91,-55.14 -49.89,-82.71 -14.02,-27.58 -22.78,-48.38 -26.27,-62.38 -5.25,-22.77 -4.82,-34.79 1.32,-36.11 6.11,-1.31 15.75,3.49 28.88,14.45 13.14,10.93 28.01,26.03 44.65,45.3 16.61,19.24 32.37,38.28 47.27,57.11 14.87,18.82 27.78,35.46 38.74,49.9 10.94,14.44 16.84,22.1 17.72,22.98 11.37,8.74 22.76,12.68 34.14,11.82 11.37,-0.88 21.21,-5.05 29.54,-12.47 8.31,-7.45 14,-16.64 17.07,-27.58 3.06,-10.95 1.98,-22.12 -3.28,-33.49 -6.13,-14.01 -14.24,-30.64 -24.28,-49.89 -10.08,-19.26 -16.42,-36.34 -19.05,-51.21 -2.62,-22.77 0,-37.65 7.88,-44.65 7.87,-7.01 22.32,-6.56 43.33,1.32 16.62,6.99 34.14,19.47 52.52,37.42 18.39,17.93 36.55,36.97 54.5,57.12 17.93,20.12 34.79,39.39 50.55,57.78 15.75,18.38 28.89,31.94 39.4,40.7 2.62,2.63 5.9,5.46 9.84,8.54 3.94,3.05 7.23,3.71 9.85,1.96 4.37,-1.76 6.77,-4.16 7.22,-7.22 0.43,-3.08 0.65,-6.35 0.65,-9.84 -11.38,-28.03 -24.94,-55.6 -40.7,-82.72 -15.75,-27.15 -33.48,-52.33 -53.18,-75.51 -19.69,-23.2 -41.58,-43.78 -65.66,-61.714 -24.08,-17.953 -50.11,-32.168 -78.12,-42.676 -17.52,-6.109 -33.28,-8.089 -47.27,-5.91 -14.01,2.2 -26.72,7.231 -38.08,15.102 -11.39,7.879 -20.58,17.933 -27.57,30.199 -7.02,12.249 -11.82,25.379 -14.44,39.399"
         style="fill:#f3e3d3;fill-opacity:1;fill-rule:nonzero;stroke:none"
         id="path32" /><path
         d="m 5866.7,1854.06 c -37.64,-63.02 -71.35,-127.82 -101.1,-194.33 -29.77,-66.54 -59.54,-133.08 -89.29,-199.59 7.88,7.88 17.73,21.21 29.55,40.05 11.81,18.81 24.28,40.25 37.42,64.34 13.13,24.06 26.26,50.1 39.39,78.13 13.13,28 25.38,55.14 36.77,81.41 11.37,26.26 21.43,50.98 30.19,74.19 8.74,23.18 14.45,41.79 17.07,55.8 z M 5543.69,924.41 c 4.37,-8.738 10.28,-13.34 17.72,-13.789 7.43,-0.43 14.66,1.527 21.67,5.91 26.26,22.77 51.21,47.27 74.85,73.528 23.63,26.261 46.16,52.521 67.62,78.781 21.44,26.26 42.45,51.87 63.03,76.82 20.56,24.95 40.48,47.47 59.75,67.62 6.99,7 12.47,8.54 16.41,4.6 3.94,-3.95 4.59,-9.85 1.96,-17.73 -12.26,-20.15 -24.51,-39.62 -36.76,-58.43 -12.27,-18.84 -24.94,-37.88 -38.08,-57.12 -27.14,-38.53 -54.94,-79.67 -83.38,-123.42 -28.45,-43.77 -59.74,-80.969 -93.88,-111.621 -21.01,-19.239 -43.78,-30.2 -68.29,-32.829 -22.77,0.879 -44.2,8.11 -64.33,21.668 -20.13,13.582 -31.95,31.743 -35.46,54.493 -5.25,53.398 -4.37,107.219 2.63,161.509 7.88,63.03 20.57,128.23 38.08,195.65 17.5,67.4 38.73,134.36 63.68,200.9 24.95,66.51 52.3,131.3 82.07,194.33 29.75,63.03 60.83,121.67 93.23,175.95 14.87,23.64 29.74,46.16 44.65,67.63 14.87,21.44 30.62,41.36 47.26,59.74 6.11,7.88 13.79,13.57 22.98,17.07 9.19,3.49 18.59,3.06 28.23,-1.31 19.25,-8.76 27.58,-24.95 24.95,-48.59 -6.13,-51.66 -16.86,-101.98 -32.17,-151 -15.33,-49.04 -33.93,-96.31 -55.81,-141.81 -21.89,-45.53 -46.4,-89.29 -73.53,-131.31 -27.14,-42.02 -56.03,-81.86 -86.66,-119.49 -2.63,-2.62 -4.6,-5.7 -5.91,-9.19 -1.31,-3.51 -2.85,-7.01 -4.6,-10.51 -13.12,-35.01 -26.05,-73.53 -38.73,-115.55 -12.7,-42.02 -23.63,-82.95 -32.83,-122.77 -9.19,-39.84 -15.75,-76.81 -19.69,-110.95 -3.94,-34.143 -4.17,-60.401 -0.66,-78.78"
         style="fill:#f3e3d3;fill-opacity:1;fill-rule:nonzero;stroke:none"
         id="path34" /><path
         d="m 5944.16,1390.55 c -6.14,-6.14 -10.5,-6.14 -13.13,0 -11.39,17.5 -18.84,35.88 -22.32,55.14 -3.51,19.25 -1.77,38.51 5.25,57.78 3.49,11.37 11.16,20.78 22.98,28.23 11.82,7.43 22.53,9.85 32.17,7.23 5.25,-1.77 10.93,-4.61 17.07,-8.54 6.11,-3.94 10.06,-8.53 11.81,-13.79 6.12,-23.63 2.84,-46.4 -9.84,-68.28 -12.71,-21.89 -27.37,-41.16 -43.99,-57.77 z m 183.83,-157.57 15.76,15.75 h 1.31 v -2.62 c 1.74,-20.15 0,-35.25 -5.25,-45.31 -5.25,-10.07 -7.88,-15.55 -7.88,-16.41 -8.76,-13.13 -20.58,-29.99 -35.45,-50.55 -14.9,-20.58 -30.43,-41.59 -46.62,-63.03 -16.2,-21.46 -31.74,-41.16 -46.61,-59.09 -14.89,-17.95 -26.71,-30.857 -35.45,-38.728 -10.51,-12.273 -21.9,-23.64 -34.14,-34.14 -4.4,-3.493 -10.3,-6.571 -17.73,-9.192 -7.45,-2.629 -15.1,-4.601 -22.98,-5.91 -7.88,-1.309 -15.55,-1.52 -22.97,-0.66 -7.45,0.89 -13.36,3.082 -17.74,6.57 -14.89,9.641 -26.46,21.231 -34.79,34.801 -8.31,13.551 -12.47,28.223 -12.47,43.979 -2.63,48.13 1.53,97.37 12.47,147.72 10.95,50.33 23.83,96.06 38.74,137.22 4.36,12.25 10.5,24.94 18.38,38.08 7.88,7.88 17.07,10.05 27.57,6.56 10.5,-3.5 19.91,-10.73 28.24,-21.66 8.31,-10.96 14.44,-24.3 18.38,-40.05 3.93,-15.76 3.28,-31.52 -1.98,-47.27 -4.38,-14.9 -8.33,-29.11 -11.81,-42.68 -3.51,-13.58 -7.44,-27.8 -11.82,-42.68 -1.77,-7.01 -4.59,-17.07 -8.54,-30.2 -3.93,-13.12 -8.1,-26.91 -12.47,-41.35 -4.39,-14.45 -8.33,-28.24 -11.81,-41.37 -3.52,-13.13 -5.71,-23.2 -6.57,-30.2 -1.76,-13.13 1.74,-16.634 10.5,-10.501 8.74,6.113 20.56,16.621 35.45,31.511 35.89,36.77 70.03,72.42 102.42,107.02 32.39,34.57 64.35,69.36 95.86,104.39"
         style="fill:#f3e3d3;fill-opacity:1;fill-rule:nonzero;stroke:none"
         id="path36" /><path
         d="m 6365.65,999.246 c -33.28,-38.527 -65.45,-80.957 -96.51,-127.367 -31.08,-46.391 -60.4,-94.09 -87.97,-143.117 -27.58,-49.024 -52.76,-97.832 -75.51,-146.422 -22.75,-48.578 -42.01,-94.32 -57.77,-137.211 -2.63,-6.988 -1.52,-11.82 3.28,-14.449 4.82,-2.621 12.48,-2.168 22.98,1.332 16.64,5.25 36.33,19.019 59.09,41.34 22.75,22.328 46.38,50.136 70.91,83.378 24.49,33.282 48.36,69.829 71.56,109.649 23.18,39.84 42.67,79.902 58.43,120.16 15.76,40.27 27.13,79 34.14,116.199 6.99,37.211 6.11,69.364 -2.63,96.508 z m -28.89,39.394 c -17.52,12.25 -35.9,18.59 -55.14,19.04 -19.27,0.43 -38.97,-1.54 -59.09,-5.91 -2.63,-0.88 -7.02,-1.31 -13.13,-1.31 -7.88,0 -14.45,2.4 -19.7,7.22 -5.25,4.8 -8.99,10.51 -11.16,17.07 -2.2,6.57 -2.42,13.34 -0.66,20.35 1.74,7 5.68,12.68 11.82,17.07 11.37,14.88 23.84,31.51 37.42,49.9 13.56,18.38 27.35,36.97 41.36,55.81 14,18.81 26.93,37.62 38.74,56.46 11.82,18.81 21.66,36.54 29.54,53.18 -20.14,6.11 -40.27,2.62 -60.4,-10.5 -20.14,-13.14 -38.96,-30.43 -56.46,-51.88 -17.52,-21.46 -32.62,-44.21 -45.3,-68.28 -12.7,-24.08 -22.11,-43.98 -28.24,-59.73 -5.24,-14.02 -12.26,-19.27 -21,-15.76 -8.76,3.48 -15.31,9.18 -19.7,17.07 -6.99,11.36 -9.62,24.94 -7.88,40.7 1.77,15.75 5.48,31.51 11.16,47.27 5.68,15.76 12.69,30.64 21.02,44.64 8.31,14 15.95,25.81 22.98,35.46 20.12,27.12 43.53,47.04 70.24,59.74 26.7,12.68 56.24,21.22 88.63,25.61 13.14,1.74 24.73,0.43 34.8,-3.94 10.06,-4.39 18.59,-11.16 25.6,-20.35 7,-9.19 12.48,-20.15 16.42,-32.83 3.94,-12.7 6.34,-26.06 7.23,-40.05 -1.77,-28.03 -8.99,-55.8 -21.67,-83.38 -12.7,-27.58 -30.43,-54.06 -53.18,-79.44 14.87,-0.89 29.97,-3.74 45.29,-8.53 15.32,-4.82 29.1,-13.79 41.37,-26.93 26.26,20.13 56.01,40.26 89.29,60.41 33.26,20.12 63.89,35.88 91.91,47.27 5.26,2.62 12.91,3.49 22.98,2.62 10.06,-0.87 19.04,-2.62 26.93,-5.25 7.87,-2.62 13.12,-5.91 15.75,-9.85 2.62,-3.93 -0.88,-7.67 -10.51,-11.16 -11.39,-4.39 -26.26,-11.16 -44.64,-20.35 -18.39,-9.19 -37.22,-19.7 -56.46,-31.51 -19.27,-11.82 -37.88,-24.09 -55.81,-36.77 -17.95,-12.7 -31.74,-25.18 -41.36,-37.42 16.62,-28.89 28.66,-56.263 36.11,-82.072 7.42,-25.797 9.4,-54.488 5.91,-86.008 -5.25,-50.75 -19.49,-105.468 -42.68,-164.14 -23.2,-58.629 -52.52,-114.879 -87.98,-168.731 -35.44,-53.828 -75.06,-102.418 -118.82,-145.738 -43.79,-43.34 -87.98,-74.633 -132.63,-93.891 -8.74,-3.488 -18.15,-5.019 -28.23,-4.59 -10.05,0.45 -19.9,2.622 -29.54,6.559 -9.62,3.949 -18.38,9.18 -26.26,15.77 -7.88,6.562 -14.45,14.23 -19.7,22.972 -9.62,21.008 -14.22,38.731 -13.79,53.18 0.45,14.43 4.17,33.051 11.16,55.801 12.27,42.91 30,91.476 53.19,145.758 23.2,54.281 49.89,108.562 80.09,162.808 30.2,54.301 62.81,105.051 97.83,152.332 35,47.266 70.45,85.34 106.35,114.23"
         style="fill:#f3e3d3;fill-opacity:1;fill-rule:nonzero;stroke:none"
         id="path38" /><path
         d="m 6745.13,1036.02 c -7.88,-6.14 -16.64,-12.93 -26.27,-20.36 -9.64,-7.44 -20.14,-14.01 -31.51,-19.695 -11.39,-5.703 -23.43,-10.074 -36.1,-13.129 -12.71,-3.078 -26.06,-3.281 -40.05,-0.66 -10.51,1.75 -20.15,5.461 -28.89,11.164 -8.74,5.683 -17.07,12.47 -24.95,20.35 -7.88,7.88 -12.68,19.25 -14.44,34.14 -1.75,14.88 -2.18,26.69 -1.32,35.46 4.39,22.75 10.51,46.82 18.39,72.22 7.88,25.37 17.52,50.33 28.88,74.84 19.25,40.26 43.76,76.16 73.54,107.67 29.74,31.52 65.65,51.64 107.66,60.4 14,3.49 28.67,4.15 44,1.97 15.3,-2.19 28.66,-7.22 40.05,-15.1 11.36,-7.87 20.12,-17.72 26.26,-29.54 6.11,-11.82 7.42,-24.75 3.93,-38.73 -1.76,-5.26 -3.73,-10.51 -5.91,-15.77 -2.19,-5.25 -4.81,-9.64 -7.88,-13.12 -3.07,-3.51 -5.91,-5.49 -8.53,-5.92 -2.62,-0.44 -5.25,1.98 -7.87,7.23 -0.89,2.62 -1.98,6.34 -3.28,11.16 -1.32,4.8 -3.3,9.62 -5.91,14.44 -2.63,4.8 -6.37,9.2 -11.16,13.13 -4.83,3.94 -11.17,5.91 -19.05,5.91 -16.64,0 -35.45,-10.3 -56.46,-30.85 -21.01,-20.59 -41.15,-44.65 -60.4,-72.23 -19.27,-27.57 -35.91,-55.14 -49.9,-82.71 -14.01,-27.58 -22.77,-48.38 -26.27,-62.38 -5.24,-22.77 -4.81,-34.79 1.32,-36.11 6.12,-1.31 15.76,3.49 28.89,14.45 13.13,10.93 28.01,26.03 44.65,45.3 16.61,19.24 32.37,38.28 47.26,57.11 14.88,18.82 27.79,35.46 38.74,49.9 10.94,14.44 16.85,22.1 17.73,22.98 11.37,8.74 22.75,12.68 34.14,11.82 11.37,-0.88 21.21,-5.05 29.54,-12.47 8.31,-7.45 13.99,-16.64 17.07,-27.58 3.06,-10.95 1.97,-22.12 -3.28,-33.49 -6.13,-14.01 -14.24,-30.64 -24.29,-49.89 -10.08,-19.26 -16.41,-36.34 -19.04,-51.21 -2.63,-22.77 0,-37.65 7.88,-44.65 7.87,-7.01 22.31,-6.56 43.33,1.32 16.62,6.99 34.14,19.47 52.52,37.42 18.39,17.93 36.54,36.97 54.49,57.12 17.93,20.12 34.8,39.39 50.56,57.78 15.75,18.38 28.89,31.94 39.39,40.7 2.63,2.63 5.91,5.46 9.85,8.54 3.93,3.05 7.22,3.71 9.85,1.96 4.37,-1.76 6.77,-4.16 7.22,-7.22 0.43,-3.08 0.65,-6.35 0.65,-9.84 -11.38,-28.03 -24.94,-55.6 -40.7,-82.72 -15.75,-27.15 -33.49,-52.33 -53.18,-75.51 -19.69,-23.2 -41.59,-43.78 -65.66,-61.714 -24.08,-17.953 -50.12,-32.168 -78.12,-42.676 -17.52,-6.109 -33.29,-8.089 -47.27,-5.91 -14.01,2.2 -26.72,7.231 -38.09,15.102 -11.38,7.879 -20.57,17.933 -27.56,30.199 -7.03,12.249 -11.82,25.379 -14.45,39.399"
         style="fill:#f3e3d3;fill-opacity:1;fill-rule:nonzero;stroke:none"
         id="path40" /><path
         d="m 7722.06,1776.59 c -55.16,-84.92 -104.19,-172.01 -147.07,-261.3 -42.9,-89.29 -80.55,-181.66 -112.92,-277.06 20.12,36.76 43.98,78.79 71.56,126.06 27.57,47.26 54.49,95.62 80.75,145.09 26.26,49.44 49.44,97.6 69.59,144.44 20.13,46.82 32.83,87.75 38.09,122.77 z m -589.57,-655.22 2.61,-3.94 c 29.76,23.63 59.75,47.04 89.95,70.25 30.21,23.18 61.49,46.16 93.89,68.93 -18.39,8.74 -38.31,9.85 -59.75,3.28 -21.46,-6.56 -41.59,-17.52 -60.4,-32.82 -18.83,-15.33 -34.59,-32.83 -47.27,-52.52 -12.7,-19.7 -19.03,-37.42 -19.03,-53.18 z m 206.15,198.27 c 0,1.75 0.43,3.06 1.31,3.94 0,0.86 0.43,1.31 1.32,1.31 27.11,57.77 54.03,113.58 80.75,167.42 26.69,53.83 53.84,105.7 81.4,155.6 27.58,49.89 56.47,98.03 86.67,144.44 30.2,46.38 62.37,91.46 96.51,135.24 19.25,21.87 34.79,31.52 46.62,28.89 11.81,-2.62 20.56,-11.61 26.26,-26.92 5.68,-15.32 8.96,-33.48 9.84,-54.49 0.86,-21.01 0.43,-38.08 -1.31,-51.21 -13.13,-54.29 -30.86,-108.56 -53.18,-162.82 -22.32,-54.29 -47.49,-108.33 -75.5,-162.16 -28.03,-53.84 -58.23,-107.47 -90.6,-160.86 -32.4,-53.4 -65.23,-106.81 -98.48,-160.2 -4.39,-5.24 -7.68,-10.72 -9.85,-16.41 -2.2,-5.7 -4.16,-12.04 -5.91,-19.04 -1.77,-7.87 -3.73,-19.03 -5.91,-33.48 -2.2,-14.44 -3.51,-29.55 -3.94,-45.3 -0.45,-15.76 0.66,-30.2 3.29,-43.33 2.62,-13.13 7.42,-21.463 14.44,-24.947 10.51,-5.254 25.81,-4.168 45.96,3.281 20.12,7.426 41.56,18.586 64.33,33.476 22.76,14.88 45.73,31.95 68.95,51.22 23.18,19.24 43.1,37.62 59.73,55.15 1.75,1.74 4.38,1.52 7.88,-0.66 3.49,-2.19 6.34,-5.48 8.54,-9.85 2.18,-4.39 3.06,-9.41 2.63,-15.1 -0.45,-5.7 -3.73,-11.16 -9.85,-16.42 -20.14,-17.52 -44.87,-39.61 -74.19,-66.3 -29.34,-26.72 -59.97,-51.438 -91.91,-74.188 -31.97,-22.75 -63.26,-40.051 -93.89,-51.863 -30.65,-11.829 -56.91,-12.028 -78.79,-0.668 -20.14,10.507 -34.36,27.379 -42.67,50.558 -8.33,23.184 -12.92,48.581 -13.78,76.161 -0.89,27.57 0.2,54.69 3.28,81.41 3.06,26.69 5.91,47.92 8.53,63.68 -1.76,-1.76 -3.29,-4.16 -4.59,-7.22 -1.31,-3.08 -2.86,-5.91 -4.6,-8.54 -12.27,-14.01 -26.26,-30.85 -42.02,-50.55 -15.76,-19.7 -33.05,-37.87 -51.86,-54.49 -18.84,-16.64 -38.74,-29.34 -59.75,-38.08 -21.01,-8.76 -42.47,-9.19 -64.34,-1.32 -12.25,7 -22.98,15.54 -32.17,25.61 -9.19,10.05 -13.79,23.41 -13.79,40.05 0,32.38 6.36,65.2 19.04,98.48 12.7,33.25 29.97,62.8 51.87,88.63 21.87,25.81 47.7,46.39 77.47,61.71 29.74,15.31 61.72,21.67 95.86,19.05 9.62,-1.77 19.46,-4.17 29.54,-7.23 10.05,-3.07 18.58,-8.53 25.6,-16.41 l 5.26,-5.25"
         style="fill:#f3e3d3;fill-opacity:1;fill-rule:nonzero;stroke:none"
         id="path42" /><path
         d="m 7873.04,1201.46 c 1.75,0 3.49,0.86 5.26,2.63 1.74,1.75 2.62,3.49 2.62,5.25 7,16.62 10.29,35 9.85,55.15 -0.45,20.13 -6.79,36.31 -19.04,48.58 -6.13,7 -14.01,10.94 -23.63,11.82 -9.65,0.86 -18.84,-0.88 -27.58,-5.25 -17.52,-10.51 -31.51,-22.78 -42.02,-36.76 -10.5,-14.02 -20.57,-28.46 -30.19,-43.34 0,-4.39 0.86,-7.45 2.62,-9.19 8.74,-7.88 12.68,-16.64 11.82,-26.26 0,-4.39 5.02,-7.02 15.1,-7.88 10.05,-0.89 21.43,-1.11 34.14,-0.66 12.67,0.43 24.95,1.52 36.77,3.29 11.81,1.74 19.9,2.62 24.28,2.62 z M 7756.18,999.246 c 8.74,1.744 18.59,8.084 29.55,19.044 10.94,10.93 21.43,23.41 31.51,37.42 10.05,13.99 18.81,28.24 26.26,42.68 7.42,14.44 12.47,26.46 15.1,36.11 -17.52,-1.77 -36.34,-2.63 -56.47,-2.63 -20.14,0 -38.95,1.74 -56.45,5.26 -2.63,-7.89 -4.4,-18.18 -5.25,-30.87 -0.88,-12.7 -0.88,-25.83 0,-39.38 0.85,-13.59 2.62,-26.5 5.25,-38.74 2.63,-12.27 6.11,-21.9 10.5,-28.894 z m 191.71,215.344 c 10.5,0.86 21.87,3.49 34.14,7.88 12.25,4.37 23.64,7.88 34.14,10.51 12.25,3.48 25.15,7.65 38.74,12.47 13.56,4.8 26.46,8.53 38.73,11.16 8.74,0 12.25,-2.42 10.51,-7.22 -1.77,-4.82 -5.91,-10.5 -12.47,-17.07 -6.58,-6.56 -14.02,-12.93 -22.33,-19.04 -8.33,-6.13 -14.67,-10.5 -19.04,-13.13 -21.01,-9.64 -41.81,-17.07 -62.37,-22.33 -20.58,-5.24 -40.05,-12.69 -58.43,-22.31 -7.88,-14.02 -18.84,-32.63 -32.82,-55.81 -14.02,-23.21 -29.56,-45.75 -46.63,-67.63 -17.07,-21.89 -35.02,-40.699 -53.83,-56.457 -18.83,-15.754 -37,-23.633 -54.5,-23.633 -24.51,0 -45.52,7 -63.02,21.012 -13.13,8.735 -22.98,22.321 -29.54,40.698 -6.57,18.38 -10.51,38.29 -11.82,59.75 -1.32,21.44 -0.66,42.45 1.97,63.02 2.62,20.56 5.71,37.43 9.19,50.56 0.88,6.11 2.2,10.28 3.94,12.47 1.76,2.18 3.5,3.72 5.25,4.6 1.77,0.86 3.73,1.75 5.91,2.62 2.2,0.87 4.17,2.63 5.91,5.26 2.62,9.62 5.25,19.69 7.88,30.2 2.63,10.51 6.56,20.12 11.81,28.88 14.88,26.27 33.92,50.56 57.12,72.88 23.19,22.32 50.1,35.23 80.76,38.73 19.24,3.5 36.97,2.63 53.18,-2.62 16.18,-5.25 30.4,-15.33 42.67,-30.2 10.5,-11.39 17.93,-23.86 22.32,-37.42 4.37,-13.58 7,-26.72 7.88,-39.39 0.86,-12.71 0.43,-24.3 -1.31,-34.8 -1.77,-10.51 -3.07,-18.38 -3.94,-23.64"
         style="fill:#f3e3d3;fill-opacity:1;fill-rule:nonzero;stroke:none"
         id="path44" /><path
         d="m 1058.32,256.051 c -3.51,-7.02 -6.13,-11.391 -7.88,-13.141 -13.99,-9.629 -23.63,-7.012 -28.88,7.879 -1.75,7 -3.06,13.57 -3.94,19.699 -0.87,6.121 -1.32,12.684 -1.32,19.703 -0.86,19.239 -0.86,38.508 0,57.77 2.63,21.867 7.89,45.738 15.76,71.57 7.88,25.809 17.28,51.41 28.23,76.809 10.94,25.379 22.32,49.238 34.14,71.558 11.82,22.332 22.98,40.481 33.49,54.5 5.25,7.883 12.47,12.243 21.66,13.122 9.19,0.871 18.16,-1.309 26.92,-6.559 8.74,-5.262 15.76,-12.699 21.01,-22.332 5.25,-9.629 6.56,-20.57 3.94,-32.82 -0.88,-0.887 -2.63,-3.5 -5.25,-7.879 -2.63,-4.391 -5.26,-9.192 -7.88,-14.442 -2.63,-5.258 -5.25,-10.297 -7.88,-15.097 -2.63,-4.821 -4.39,-7.68 -5.25,-8.532 9.62,6.993 19.24,14.871 28.88,23.629 9.63,8.742 19.48,17.071 29.55,24.953 10.05,7.868 20.35,14.649 30.86,20.348 10.5,5.68 21.87,8.543 34.13,8.543 14.88,0 28.01,-4.172 39.4,-12.48 11.37,-8.332 20.78,-18.383 28.23,-30.204 7.43,-11.816 12.02,-24.519 13.78,-38.078 1.75,-13.582 0.87,-26.492 -2.62,-38.738 -7.88,-23.633 -18.84,-46.613 -32.82,-68.934 -14.02,-22.328 -28.24,-44.449 -42.68,-66.308 -14.44,-21.891 -27.8,-43.988 -40.05,-66.309 -12.27,-22.32 -21.01,-45.301 -26.26,-68.941 -5.25,-18.379 -5.48,-29.75 -0.66,-34.141 4.8,-4.371 11.16,-5.25 19.04,-2.621 7.88,2.621 15.96,7.012 24.29,13.121 8.31,6.141 14.22,10.512 17.73,13.141 35.89,28.012 69.59,58.859 101.11,92.57 31.51,33.692 62.57,65.86 93.23,96.512 26.26,26.258 42.67,40.476 49.24,42.68 6.56,2.168 7.42,-2.204 2.62,-13.141 -4.82,-10.961 -12.7,-25.602 -23.63,-43.981 -10.96,-18.39 -20.81,-34.589 -29.55,-48.589 -10.5,-17.52 -24.95,-38.743 -43.33,-63.68 -18.38,-24.949 -38.74,-49.039 -61.06,-72.231 -22.32,-23.179 -45.3,-42.878 -68.94,-59.082 -23.63,-16.187 -45.52,-24.289 -65.65,-24.289 -14.89,0 -28.02,3.282 -39.39,9.852 -11.39,6.559 -21.01,14.668 -28.89,24.289 -7.88,9.641 -13.79,20.57 -17.73,32.828 -3.93,12.262 -5.9,24.512 -5.9,36.762 0,43.769 8.96,86.672 26.91,128.68 17.93,42.019 36.98,80.531 57.12,115.55 9.63,18.379 12.25,31.071 7.88,38.078 -4.39,7 -17.07,5.684 -38.08,-3.937 -17.52,-7.879 -33.71,-22.109 -48.58,-42.672 -14.9,-20.578 -28.68,-42.898 -41.36,-66.969 -12.7,-24.09 -24.29,-47.922 -34.8,-71.57 -10.51,-23.629 -20.15,-42.461 -28.89,-56.449"
         style="fill:#f3e3d3;fill-opacity:1;fill-rule:nonzero;stroke:none"
         id="path46" /><path
         d="m 1654.45,294.121 c -7.87,-6.133 -16.63,-12.922 -26.26,-20.351 -9.64,-7.45 -20.14,-14.008 -31.51,-19.688 -11.39,-5.711 -23.43,-10.082 -36.11,-13.141 -12.7,-3.082 -26.06,-3.281 -40.05,-0.652 -10.5,1.742 -20.15,5.461 -28.89,11.16 -8.74,5.68 -17.07,12.473 -24.94,20.352 -7.89,7.879 -12.69,19.25 -14.45,34.14 -1.74,14.868 -2.18,26.688 -1.31,35.457 4.39,22.743 10.5,46.821 18.38,72.223 7.88,25.379 17.52,50.32 28.89,74.84 19.24,40.25 43.76,76.16 73.53,107.68 29.75,31.507 65.65,51.64 107.67,60.398 13.99,3.481 28.67,4.141 43.99,1.961 15.31,-2.191 28.66,-7.219 40.05,-15.102 11.37,-7.878 20.12,-17.718 26.26,-29.539 6.12,-11.82 7.43,-24.75 3.94,-38.738 -1.76,-5.25 -3.73,-10.5 -5.91,-15.75 -2.19,-5.262 -4.82,-9.652 -7.88,-13.141 -3.07,-3.5 -5.9,-5.468 -8.53,-5.898 -2.63,-0.453 -5.26,1.969 -7.88,7.219 -0.88,2.629 -1.97,6.34 -3.28,11.16 -1.32,4.801 -3.28,9.621 -5.91,14.449 -2.63,4.789 -6.36,9.192 -11.16,13.121 -4.82,3.949 -11.17,5.91 -19.04,5.91 -16.64,0 -35.46,-10.293 -56.47,-30.863 -21,-20.566 -41.15,-44.637 -60.4,-72.219 -19.26,-27.558 -35.9,-55.14 -49.89,-82.718 -14.02,-27.571 -22.78,-48.379 -26.26,-62.371 -5.26,-22.782 -4.82,-34.801 1.31,-36.11 6.11,-1.308 15.76,3.488 28.89,14.449 13.13,10.93 28,26.032 44.64,45.301 16.62,19.238 32.38,38.281 47.27,57.121 14.88,18.809 27.78,35.449 38.74,49.891 10.93,14.437 16.84,22.098 17.72,22.976 11.37,8.743 22.76,12.692 34.15,11.821 11.36,-0.879 21.21,-5.047 29.54,-12.469 8.31,-7.461 13.99,-16.641 17.07,-27.578 3.05,-10.961 1.97,-22.113 -3.28,-33.481 -6.14,-14.011 -14.24,-30.652 -24.3,-49.902 -10.07,-19.269 -16.41,-36.34 -19.03,-51.211 -2.63,-22.777 0,-37.648 7.87,-44.637 7.88,-7.019 22.33,-6.57 43.34,1.309 16.61,7 34.13,19.469 52.52,37.422 18.38,17.93 36.54,36.969 54.49,57.117 17.93,20.133 34.8,39.391 50.55,57.77 15.76,18.39 28.89,31.953 39.39,40.722 2.63,2.61 5.91,5.438 9.85,8.528 3.94,3.062 7.22,3.711 9.85,1.961 4.37,-1.75 6.77,-4.161 7.22,-7.211 0.43,-3.079 0.66,-6.368 0.66,-9.86 -11.38,-28.019 -24.95,-55.59 -40.71,-82.719 -15.75,-27.14 -33.48,-52.32 -53.17,-75.5 -19.7,-23.199 -41.59,-43.781 -65.66,-61.718 -24.09,-17.953 -50.12,-32.172 -78.13,-42.672 -17.52,-6.121 -33.27,-8.078 -47.27,-5.91 -14.01,2.191 -26.71,7.218 -38.07,15.101 -11.39,7.879 -20.59,17.93 -27.58,30.199 -7.02,12.25 -11.82,25.379 -14.45,39.391"
         style="fill:#f3e3d3;fill-opacity:1;fill-rule:nonzero;stroke:none"
         id="path48" /><path
         d="m 2362.19,307.262 c -9.65,-9.653 -22.78,-23.442 -39.4,-41.371 -16.64,-17.95 -32.16,-37.422 -46.61,-58.43 -14.45,-21.012 -26.26,-41.789 -35.45,-62.371 -9.2,-20.559 -11.59,-38.281 -7.22,-53.1798 17.5,7.8789 35.45,20.8088 53.83,38.7378 18.38,17.954 34.57,37.641 48.58,59.09 14,21.461 23.85,42.672 29.55,63.684 5.68,21.008 4.59,38.937 -3.28,53.84 z m -44.65,59.078 c -17.52,24.5 -34.8,49.441 -51.87,74.851 -17.07,25.379 -25.6,53.379 -25.6,84.039 0,34.141 9.85,66.309 29.54,96.508 19.7,30.203 42.23,54.492 67.63,72.871 10.5,7 21.21,12.68 32.17,17.071 10.93,4.379 22.52,3.941 34.79,-1.309 5.26,-2.621 10.71,-4.59 16.42,-5.91 5.68,-1.313 10.71,-2.852 15.1,-4.59 4.37,-1.769 9.19,-4.402 14.44,-7.883 5.26,-3.508 7.88,-8.328 7.88,-14.449 0,-24.519 0.66,-44.437 1.97,-59.738 1.31,-15.332 3.28,-28.461 5.91,-39.403 2.63,-10.949 5.25,-20.566 7.88,-28.878 2.62,-8.329 5.25,-17.301 7.88,-26.918 1.74,-8.762 1.31,-16.211 -1.32,-22.321 -2.63,-6.14 -9.19,-7.011 -19.7,-2.633 -19.26,7 -33.48,21.024 -42.67,42.024 -9.19,21.008 -15.98,40.258 -20.35,57.777 -0.88,3.481 -3.08,9.61 -6.57,18.371 -3.51,8.739 -5.7,14.891 -6.56,18.391 -7.02,1.738 -15.33,-0.652 -24.95,-7.223 -9.64,-6.566 -18.18,-15.547 -25.6,-26.918 -7.45,-11.379 -12.27,-24.519 -14.45,-39.39 -2.2,-14.899 0.66,-29.77 8.54,-44.641 3.48,-5.258 8.53,-11.617 15.09,-19.039 6.57,-7.461 13.13,-15.102 19.7,-22.98 6.57,-7.879 13.13,-15.559 19.7,-22.981 6.56,-7.449 12.02,-13.359 16.41,-17.73 5.25,-5.25 8.74,-8.098 10.51,-8.528 1.74,-0.461 6.11,0.649 13.13,3.278 8.74,4.371 22.09,10.05 40.05,17.07 17.93,6.992 36.76,13.992 56.46,21.012 19.69,7 38.51,12.91 56.46,17.718 17.93,4.813 31.72,7.231 41.36,7.231 6.12,0 10.51,-2.199 13.13,-6.559 2.63,-2.633 2.18,-6.152 -1.31,-10.511 -3.51,-4.399 -8.1,-8.758 -13.79,-13.141 -5.7,-4.379 -11.61,-8.328 -17.72,-11.809 -6.14,-3.511 -10.08,-5.711 -11.82,-6.57 -14.9,-8.762 -33.71,-18.609 -56.46,-29.539 -22.78,-10.949 -42.47,-21.672 -59.09,-32.18 -1.77,-1.75 -5.05,-3.5 -9.85,-5.25 -4.82,-1.761 -8.53,-3.5 -11.16,-5.242 10.51,-23.648 17.93,-44 22.32,-61.07 4.37,-17.071 5.91,-33.469 4.6,-49.239 -1.32,-15.75 -4.6,-31.73 -9.85,-47.929 -5.26,-16.18 -12.27,-34.789 -21.01,-55.801 -12.27,-20.121 -24.74,-39.391 -37.42,-57.7695 -12.7,-18.3907 -26.92,-35.0117 -42.68,-49.9024 -15.76,-14.8789 -32.83,-26.6875 -51.21,-35.4492 -18.38,-8.73827 -38.53,-13.1406188 -60.4,-13.1406188 -12.25,0 -24.06,1.5507788 -35.45,4.6015588 -11.37,3.08204 -21.01,9.42186 -28.89,19.03906 -20.13,21.8906 -31.52,45.75 -34.14,71.5625 -2.62,25.8396 -0.43,51.4296 6.56,76.8206 5.26,15.758 11.82,30.199 19.7,43.328 19.26,33.262 40.5,61.488 63.68,84.691 23.19,23.188 47.48,45.309 72.88,66.309"
         style="fill:#f3e3d3;fill-opacity:1;fill-rule:nonzero;stroke:none"
         id="path50" /><path
         d="m 3177.59,471.391 h 1.31 v -10.512 c -8.76,-31.508 -22.32,-59.969 -40.7,-85.348 -7.02,-8.761 -15.55,-21.23 -25.61,-37.422 -10.07,-16.199 -19.04,-29.109 -26.92,-38.73 -18.38,-20.149 -35.67,-37.867 -51.86,-53.18 -16.21,-15.328 -35.68,-29.117 -58.43,-41.359 -10.51,-5.258 -22.12,-9.86 -34.8,-13.789 -12.7,-3.942 -25.4,-5.91 -38.08,-5.91 -12.7,0 -24.75,2.199 -36.11,6.558 -11.38,4.403 -21.01,12.281 -28.89,23.641 -14.01,17.512 -21.66,38.289 -22.98,62.371 -1.31,24.07 2.83,48.789 12.48,74.187 -1.77,-1.757 -4.39,-4.386 -7.88,-7.878 -3.51,-3.508 -7.45,-7.438 -11.82,-11.821 -4.39,-4.379 -8.53,-8.527 -12.47,-12.469 -3.94,-3.941 -6.79,-6.359 -8.54,-7.23 -13.13,-13.121 -26.26,-24.512 -39.39,-34.141 -13.13,-9.64 -26.71,-17.949 -40.7,-24.937 -11.39,-5.25 -21.24,-8.332 -29.55,-9.192 -8.33,-0.89 -15.98,0.661 -22.98,4.59 -7.01,3.95 -13.79,9.86 -20.35,17.731 -6.57,7.879 -13.79,17.07 -21.67,27.57 -11.36,15.77 -19.9,31.289 -25.6,46.617 -5.68,15.313 -6.77,31.711 -3.29,49.242 1.77,6.122 3.29,12.25 4.6,18.379 1.31,6.121 3.29,11.821 5.91,17.071 5.25,14.879 11.59,31.949 19.04,51.211 7.43,19.238 15.1,38.507 22.98,57.781 7.87,19.25 15.53,37.418 22.98,54.488 7.42,17.07 13.79,30.86 19.04,41.371 6.11,15.75 15.3,23.629 27.57,23.629 12.25,0 23.41,-4.82 33.48,-14.441 10.06,-9.649 17.73,-22.328 22.98,-38.09 5.26,-15.75 3.94,-31.07 -3.94,-45.957 -4.39,-10.492 -10.95,-25.402 -19.69,-44.641 -8.76,-19.261 -17.73,-39.179 -26.92,-59.742 -9.19,-20.578 -17.29,-40.051 -24.29,-58.437 -7.02,-18.383 -10.96,-31.961 -11.82,-40.704 0,-19.269 3.71,-29.339 11.16,-30.199 7.43,-0.89 17.5,3.942 30.2,14.449 12.68,10.493 26.69,25.141 42.02,43.981 15.3,18.82 30.86,38.742 46.61,59.75 15.76,21 30.41,41.351 43.99,61.051 13.57,19.699 25.16,35.672 34.8,47.929 12.25,21.879 22.53,41.371 30.86,58.442 8.31,17.058 20.78,33.898 37.42,50.551 8.74,3.476 19.25,2.828 31.51,-1.981 12.25,-4.812 23.19,-12.043 32.83,-21.66 9.62,-9.652 16.42,-20.352 20.35,-32.172 3.94,-11.809 2.83,-22.109 -3.28,-30.848 -15.76,-20.152 -30,-37.222 -42.68,-51.222 -12.7,-14.008 -24.74,-31.957 -36.1,-53.828 -6.14,-14.02 -13.13,-29.539 -21.01,-46.61 -7.88,-17.082 -15.1,-34.59 -21.67,-52.531 -6.56,-17.949 -11.82,-35.449 -15.76,-52.52 -3.94,-17.07 -5.04,-32.171 -3.28,-45.308 0,-14.891 7.43,-21 22.33,-18.383 21,3.492 44.19,14.652 69.59,33.492 25.38,18.809 50.32,40.25 74.84,64.34 24.5,24.059 47.28,47.699 68.28,70.91 21.01,23.18 37.63,40.469 49.9,51.86"
         style="fill:#f3e3d3;fill-opacity:1;fill-rule:nonzero;stroke:none"
         id="path52" /><path
         d="m 3281.31,294.121 c -7.87,-6.133 -16.63,-12.922 -26.26,-20.351 -9.64,-7.45 -20.14,-14.008 -31.51,-19.688 -11.39,-5.711 -23.43,-10.082 -36.11,-13.141 -12.7,-3.082 -26.06,-3.281 -40.05,-0.652 -10.5,1.742 -20.15,5.461 -28.89,11.16 -8.74,5.68 -17.07,12.473 -24.94,20.352 -7.89,7.879 -12.69,19.25 -14.45,34.14 -1.74,14.868 -2.18,26.688 -1.31,35.457 4.39,22.743 10.5,46.821 18.38,72.223 7.88,25.379 17.52,50.32 28.89,74.84 19.24,40.25 43.76,76.16 73.53,107.68 29.75,31.507 65.65,51.64 107.68,60.398 13.98,3.481 28.66,4.141 43.98,1.961 15.31,-2.191 28.66,-7.219 40.05,-15.102 11.37,-7.878 20.13,-17.718 26.26,-29.539 6.12,-11.82 7.43,-24.75 3.94,-38.738 -1.76,-5.25 -3.73,-10.5 -5.91,-15.75 -2.19,-5.262 -4.82,-9.652 -7.88,-13.141 -3.07,-3.5 -5.9,-5.468 -8.53,-5.898 -2.63,-0.453 -5.25,1.969 -7.88,7.219 -0.88,2.629 -1.97,6.34 -3.28,11.16 -1.32,4.801 -3.28,9.621 -5.91,14.449 -2.63,4.789 -6.36,9.192 -11.16,13.121 -4.82,3.949 -11.17,5.91 -19.04,5.91 -16.64,0 -35.46,-10.293 -56.47,-30.863 -21,-20.566 -41.15,-44.637 -60.4,-72.219 -19.26,-27.558 -35.9,-55.14 -49.89,-82.718 -14.02,-27.571 -22.78,-48.379 -26.26,-62.371 -5.26,-22.782 -4.82,-34.801 1.31,-36.11 6.11,-1.308 15.76,3.488 28.89,14.449 13.13,10.93 28,26.032 44.64,45.301 16.62,19.238 32.38,38.281 47.27,57.121 14.88,18.809 27.78,35.449 38.74,49.891 10.93,14.437 16.84,22.098 17.73,22.976 11.36,8.743 22.75,12.692 34.14,11.821 11.36,-0.879 21.21,-5.047 29.54,-12.469 8.31,-7.461 13.99,-16.641 17.07,-27.578 3.05,-10.961 1.97,-22.113 -3.28,-33.481 -6.14,-14.011 -14.24,-30.652 -24.3,-49.902 -10.07,-19.269 -16.41,-36.34 -19.03,-51.211 -2.63,-22.777 0,-37.648 7.87,-44.637 7.88,-7.019 22.33,-6.57 43.34,1.309 16.61,7 34.13,19.469 52.52,37.422 18.38,17.93 36.54,36.969 54.49,57.117 17.93,20.133 34.8,39.391 50.56,57.77 15.75,18.39 28.88,31.953 39.39,40.722 2.62,2.61 5.9,5.438 9.84,8.528 3.94,3.062 7.23,3.711 9.85,1.961 4.37,-1.75 6.77,-4.161 7.22,-7.211 0.43,-3.079 0.66,-6.368 0.66,-9.86 -11.38,-28.019 -24.95,-55.59 -40.7,-82.719 -15.76,-27.14 -33.49,-52.32 -53.18,-75.5 -19.7,-23.199 -41.59,-43.781 -65.66,-61.718 -24.08,-17.953 -50.12,-32.172 -78.13,-42.672 -17.52,-6.121 -33.27,-8.078 -47.27,-5.91 -14.01,2.191 -26.71,7.218 -38.07,15.101 -11.39,7.879 -20.59,17.93 -27.58,30.199 -7.02,12.25 -11.82,25.379 -14.45,39.391"
         style="fill:#f3e3d3;fill-opacity:1;fill-rule:nonzero;stroke:none"
         id="path54" /><path
         d="m 4083.59,495.02 c -36.77,-41.149 -71.13,-82.719 -103.08,-124.731 -31.96,-42.019 -63.25,-84.051 -93.88,-126.059 -7.02,-6.14 -13.13,-8.769 -18.39,-7.878 -5.25,0.859 -9.85,3.488 -13.79,7.878 -3.93,4.372 -6.99,9.852 -9.19,16.411 -2.17,6.57 -3.71,12.48 -4.59,17.718 -1.74,15.762 -1.74,33.039 0,51.879 1.76,18.813 3.51,30.852 5.25,36.102 3.51,14.871 8.1,31.941 13.79,51.211 5.7,19.25 11.59,38.738 17.73,58.437 6.11,19.692 12.02,38.942 17.72,57.774 5.69,18.808 11.16,35.66 16.41,50.547 3.49,10.511 9.63,16.851 18.39,19.043 8.74,2.179 17.27,0.859 25.6,-3.93 8.31,-4.832 14.88,-12.934 19.7,-24.301 4.8,-11.391 5.46,-25.832 1.97,-43.332 -3.51,-17.519 -7.45,-35.019 -11.82,-52.519 -4.39,-17.52 -8.33,-34.59 -11.82,-51.211 25.38,28.011 50.56,57.121 75.51,87.312 24.94,30.207 49.24,60.18 72.87,89.961 11.37,7.879 23.18,9.617 35.45,5.246 12.25,-4.387 21.44,-14.008 27.58,-28.887 6.99,-15.761 10.05,-31.972 9.19,-48.582 -0.88,-16.64 -3.08,-32.398 -6.57,-47.277 25.38,26.258 55.16,52.066 89.29,77.469 34.14,25.39 67.4,44.648 99.79,57.777 15.77,6.113 30.21,7 43.33,2.621 13.14,-4.379 24.51,-12.469 34.15,-24.277 9.62,-11.82 16.84,-26.262 21.67,-43.332 4.8,-17.07 6.76,-34.809 5.9,-53.192 -10.5,-21.886 -20.57,-43.117 -30.2,-63.679 -9.64,-20.571 -18.38,-40.938 -26.26,-61.059 -7.87,-20.148 -14.24,-40.281 -19.03,-60.398 -4.83,-20.153 -6.8,-40.711 -5.91,-61.711 6.11,-4.403 16.4,-1.77 30.85,7.871 14.44,9.629 30.86,22.316 49.24,38.09 18.38,15.75 37.43,32.367 57.12,49.886 19.69,17.5 36.97,32.372 51.87,44.653 42.88,34.14 66.51,48.578 70.9,43.328 4.37,-5.258 -7.87,-24.949 -36.76,-59.098 -28.03,-33.269 -57.58,-66.101 -88.63,-98.472 -31.09,-32.387 -64.14,-60.399 -99.14,-84.039 -11.39,-7.879 -24.52,-12.032 -39.4,-12.481 -14.89,-0.43 -29.54,2.199 -43.98,7.891 -14.45,5.699 -26.93,14.441 -37.42,26.261 -10.51,11.809 -16.64,26.457 -18.39,43.981 -2.63,22.75 -1.11,46.828 4.6,72.226 5.68,25.383 13.34,50.543 22.98,75.493 9.61,24.961 20.55,49.238 32.82,72.89 12.25,23.629 23.64,45.489 34.14,65.649 -2.63,6.992 -12.47,4.59 -29.54,-7.231 -17.07,-11.808 -37.87,-28.23 -62.38,-49.238 -24.51,-21.012 -50.34,-44.641 -77.47,-70.902 -27.15,-26.258 -52.09,-50.36 -74.84,-72.219 -9.65,-8.762 -16.87,-14.238 -21.67,-16.418 -4.82,-2.192 -8.98,-3.281 -12.47,-3.281 -8.76,0 -14.44,7.218 -17.07,21.66 -2.63,14.449 -3.74,31.07 -3.28,49.898 0.43,18.813 1.96,37.199 4.59,55.153 2.62,17.929 4.8,30.41 6.57,37.418"
         style="fill:#f3e3d3;fill-opacity:1;fill-rule:nonzero;stroke:none"
         id="path56" /><path
         d="m 4772.94,577.75 c -23.63,-8.762 -42.24,-20.148 -55.8,-34.141 -13.58,-14.019 -23.43,-34.589 -29.55,-61.711 19.25,13.981 36.55,28.231 51.87,42.672 15.31,14.45 26.47,32.168 33.48,53.18 z M 4562.86,330.891 c -1.75,33.25 1.75,67.828 10.5,103.73 8.75,35.891 21.89,68.938 39.39,99.141 17.5,30.199 39.6,54.929 66.31,74.187 26.7,19.242 57.98,29.321 93.88,30.199 18.38,-4.386 32.6,-13.589 42.68,-27.57 10.05,-14.008 12.9,-31.078 8.54,-51.207 -3.51,-19.269 -8.54,-35.68 -15.1,-49.242 -6.57,-13.578 -17.74,-27.801 -33.49,-42.68 -7.88,-7.019 -18.84,-16.211 -32.82,-27.57 -14.01,-11.391 -27.58,-23.207 -40.71,-35.449 -13.13,-12.282 -24.51,-24.75 -34.14,-37.43 -9.64,-12.699 -14.45,-23.43 -14.45,-32.172 -2.62,-22.777 0.87,-37.418 10.51,-43.988 9.62,-6.559 22.1,-9.192 37.42,-7.879 15.31,1.32 30.86,5.461 46.61,12.469 15.77,7.011 28.44,13.14 38.09,18.39 11.37,7.879 24.06,17.731 38.08,29.539 13.99,11.821 28,24.301 42.02,37.422 13.98,13.141 27.57,25.821 40.7,38.09 13.13,12.25 24.06,22.32 32.82,30.199 7,7 13.34,13.559 19.05,19.692 5.68,6.117 12.47,11.367 20.35,15.769 7,1.731 12.48,2.16 16.41,1.301 3.94,-0.883 3.28,-7.453 -1.97,-19.691 -7.01,-14.903 -15.55,-28.891 -25.6,-42.032 -10.07,-13.121 -20.81,-26.25 -32.17,-39.379 -15.76,-17.531 -32.62,-35.91 -50.56,-55.16 -17.95,-19.25 -36.77,-36.992 -56.45,-53.172 -19.7,-16.207 -40.29,-30.199 -61.72,-42.019 -21.47,-11.82 -43.56,-19.488 -66.31,-22.981 -40.28,-2.628 -73.33,5.684 -99.14,24.954 -25.81,19.238 -38.73,50.75 -38.73,94.539"
         style="fill:#f3e3d3;fill-opacity:1;fill-rule:nonzero;stroke:none"
         id="path58" /><path
         d="m 5067.07,307.262 c -9.65,-9.653 -22.78,-23.442 -39.4,-41.371 -16.64,-17.95 -32.17,-37.422 -46.61,-58.43 -14.44,-21.012 -26.26,-41.789 -35.46,-62.371 -9.19,-20.559 -11.59,-38.281 -7.22,-53.1798 17.5,7.8789 35.45,20.8088 53.84,38.7378 18.38,17.954 34.57,37.641 48.59,59.09 13.98,21.461 23.83,42.672 29.54,63.684 5.68,21.008 4.6,38.937 -3.28,53.84 z m -44.65,59.078 c -17.52,24.5 -34.8,49.441 -51.87,74.851 -17.07,25.379 -25.6,53.379 -25.6,84.039 0,34.141 9.85,66.309 29.54,96.508 19.7,30.203 42.22,54.492 67.62,72.871 10.51,7 21.22,12.68 32.17,17.071 10.94,4.379 22.53,3.941 34.8,-1.309 5.25,-2.621 10.71,-4.59 16.41,-5.91 5.69,-1.313 10.72,-2.852 15.1,-4.59 4.38,-1.769 9.2,-4.402 14.45,-7.883 5.25,-3.508 7.88,-8.328 7.88,-14.449 0,-24.519 0.66,-44.437 1.97,-59.738 1.31,-15.332 3.28,-28.461 5.91,-39.403 2.62,-10.949 5.25,-20.566 7.88,-28.878 2.62,-8.329 5.25,-17.301 7.88,-26.918 1.74,-8.762 1.31,-16.211 -1.32,-22.321 -2.63,-6.14 -9.19,-7.011 -19.7,-2.633 -19.26,7 -33.47,21.024 -42.67,42.024 -9.19,21.008 -15.98,40.258 -20.35,57.777 -0.88,3.481 -3.08,9.61 -6.57,18.371 -3.5,8.739 -5.7,14.891 -6.56,18.391 -7.02,1.738 -15.33,-0.652 -24.95,-7.223 -9.65,-6.566 -18.18,-15.547 -25.61,-26.918 -7.45,-11.379 -12.26,-24.519 -14.44,-39.39 -2.2,-14.899 0.65,-29.77 8.54,-44.641 3.48,-5.258 8.53,-11.617 15.09,-19.039 6.57,-7.461 13.14,-15.102 19.7,-22.98 6.56,-7.879 13.14,-15.559 19.7,-22.981 6.56,-7.449 12.02,-13.359 16.41,-17.73 5.25,-5.25 8.74,-8.098 10.5,-8.528 1.75,-0.461 6.11,0.649 13.14,3.278 8.74,4.371 22.1,10.05 40.05,17.07 17.92,6.992 36.76,13.992 56.46,21.012 19.7,7 38.51,12.91 56.46,17.718 17.93,4.813 31.71,7.231 41.36,7.231 6.12,0 10.51,-2.199 13.13,-6.559 2.62,-2.633 2.18,-6.152 -1.31,-10.511 -3.51,-4.399 -8.11,-8.758 -13.79,-13.141 -5.7,-4.379 -11.61,-8.328 -17.72,-11.809 -6.14,-3.511 -10.08,-5.711 -11.82,-6.57 -14.89,-8.762 -33.71,-18.609 -56.47,-29.539 -22.77,-10.949 -42.47,-21.672 -59.09,-32.18 -1.76,-1.75 -5.04,-3.5 -9.84,-5.25 -4.83,-1.761 -8.54,-3.5 -11.16,-5.242 10.5,-23.648 17.93,-44 22.32,-61.07 4.37,-17.071 5.91,-33.469 4.59,-49.239 -1.31,-15.75 -4.59,-31.73 -9.84,-47.929 -5.26,-16.18 -12.27,-34.789 -21.01,-55.801 -12.27,-20.121 -24.75,-39.391 -37.42,-57.7695 -12.71,-18.3907 -26.93,-35.0117 -42.68,-49.9024 -15.76,-14.8789 -32.83,-26.6875 -51.21,-35.4492 -18.39,-8.73827 -38.53,-13.1406188 -60.4,-13.1406188 -12.25,0 -24.07,1.5507788 -35.46,4.6015588 -11.36,3.08204 -21,9.42186 -28.88,19.03906 -20.13,21.8906 -31.52,45.75 -34.14,71.5625 -2.63,25.8396 -0.43,51.4296 6.57,76.8206 5.24,15.758 11.81,30.199 19.69,43.328 19.26,33.262 40.5,61.488 63.69,84.691 23.18,23.188 47.47,45.309 72.87,66.309"
         style="fill:#f3e3d3;fill-opacity:1;fill-rule:nonzero;stroke:none"
         id="path60" /><path
         d="m 5463.6,294.121 c -7.88,-6.133 -16.64,-12.922 -26.27,-20.351 -9.64,-7.45 -20.15,-14.008 -31.51,-19.688 -11.39,-5.711 -23.43,-10.082 -36.11,-13.141 -12.7,-3.082 -26.05,-3.281 -40.05,-0.652 -10.5,1.742 -20.14,5.461 -28.88,11.16 -8.74,5.68 -17.07,12.473 -24.95,20.352 -7.89,7.879 -12.68,19.25 -14.45,34.14 -1.75,14.868 -2.18,26.688 -1.32,35.457 4.4,22.743 10.51,46.821 18.39,72.223 7.88,25.379 17.52,50.32 28.89,74.84 19.25,40.25 43.76,76.16 73.53,107.68 29.75,31.507 65.66,51.64 107.67,60.398 13.99,3.481 28.66,4.141 43.99,1.961 15.31,-2.191 28.67,-7.219 40.05,-15.102 11.37,-7.878 20.13,-17.718 26.26,-29.539 6.12,-11.82 7.43,-24.75 3.94,-38.738 -1.76,-5.25 -3.73,-10.5 -5.91,-15.75 -2.2,-5.262 -4.81,-9.652 -7.88,-13.141 -3.08,-3.5 -5.91,-5.468 -8.54,-5.898 -2.61,-0.453 -5.24,1.969 -7.87,7.219 -0.89,2.629 -1.97,6.34 -3.28,11.16 -1.32,4.801 -3.29,9.621 -5.91,14.449 -2.62,4.789 -6.36,9.192 -11.16,13.121 -4.82,3.949 -11.16,5.91 -19.04,5.91 -16.64,0 -35.45,-10.293 -56.47,-30.863 -21,-20.566 -41.15,-44.637 -60.4,-72.219 -19.26,-27.558 -35.9,-55.14 -49.89,-82.718 -14.01,-27.571 -22.77,-48.379 -26.27,-62.371 -5.24,-22.782 -4.81,-34.801 1.32,-36.11 6.11,-1.308 15.75,3.488 28.89,14.449 13.13,10.93 28,26.032 44.65,45.301 16.61,19.238 32.37,38.281 47.26,57.121 14.87,18.809 27.78,35.449 38.74,49.891 10.94,14.437 16.85,22.098 17.73,22.976 11.36,8.743 22.75,12.692 34.14,11.821 11.36,-0.879 21.21,-5.047 29.54,-12.469 8.31,-7.461 13.99,-16.641 17.07,-27.578 3.05,-10.961 1.97,-22.113 -3.28,-33.481 -6.14,-14.011 -14.24,-30.652 -24.29,-49.902 -10.08,-19.269 -16.42,-36.34 -19.04,-51.211 -2.63,-22.777 0,-37.648 7.88,-44.637 7.87,-7.019 22.31,-6.57 43.33,1.309 16.62,7 34.14,19.469 52.52,37.422 18.39,17.93 36.54,36.969 54.49,57.117 17.93,20.133 34.79,39.391 50.56,57.77 15.75,18.39 28.88,31.953 39.39,40.722 2.63,2.61 5.91,5.438 9.84,8.528 3.94,3.062 7.23,3.711 9.86,1.961 4.36,-1.75 6.77,-4.161 7.21,-7.211 0.43,-3.079 0.66,-6.368 0.66,-9.86 -11.39,-28.019 -24.94,-55.59 -40.7,-82.719 -15.76,-27.14 -33.49,-52.32 -53.19,-75.5 -19.69,-23.199 -41.58,-43.781 -65.65,-61.718 -24.08,-17.953 -50.12,-32.172 -78.13,-42.672 -17.52,-6.121 -33.28,-8.078 -47.26,-5.91 -14.02,2.191 -26.72,7.218 -38.09,15.101 -11.39,7.879 -20.58,17.93 -27.57,30.199 -7.02,12.25 -11.81,25.379 -14.44,39.391"
         style="fill:#f3e3d3;fill-opacity:1;fill-rule:nonzero;stroke:none"
         id="path62" /></g></g></svg>
