<?xml version="1.0" encoding="UTF-8" standalone="no"?>
<svg
   xmlns:dc="http://purl.org/dc/elements/1.1/"
   xmlns:cc="http://creativecommons.org/ns#"
   xmlns:rdf="http://www.w3.org/1999/02/22-rdf-syntax-ns#"
   xmlns:svg="http://www.w3.org/2000/svg"
   xmlns="http://www.w3.org/2000/svg"
   viewBox="0 0 1098.4268 334.72"
   height="334.72"
   width="1098.4268"
   xml:space="preserve"
   id="svg2"
   version="1.1"><metadata
     id="metadata8"><rdf:RDF><cc:Work
         rdf:about=""><dc:format>image/svg+xml</dc:format><dc:type
           rdf:resource="http://purl.org/dc/dcmitype/StillImage" /></cc:Work></rdf:RDF></metadata><defs
     id="defs6" /><g
     transform="matrix(1.3333333,0,0,-1.3333333,0,334.72)"
     id="g10"><g
       transform="scale(0.1)"
       id="g12"><path
         id="path14"
         style="fill:#f3e3d3;fill-opacity:1;fill-rule:nonzero;stroke:none"
         d="m 950.664,2012.91 c -13.473,-15.72 -29.766,-33.14 -48.851,-52.19 -19.11,-19.12 -38.739,-38.76 -58.958,-58.99 -20.214,-20.18 -39.585,-40.13 -58.113,-59.79 -18.527,-19.67 -33.972,-36.77 -46.32,-51.38 h 1.691 c 19.071,0 44.344,0.85 75.789,2.55 31.434,1.68 56.7,2.5 75.809,2.5 1.098,0 2.23,0.57 3.367,1.71 l 3.363,3.36 c 12.352,35.92 21.899,71.61 28.633,106.96 6.739,35.38 14.586,70.47 23.59,105.27 z M 1063.53,1799 c 25.82,-3.39 51.08,-9.01 75.79,-16.86 24.68,-7.84 40.43,-25.26 47.17,-52.2 4.47,-17.99 -2.27,-33.16 -20.22,-45.5 -20.22,-10.09 -40.72,-16.82 -61.48,-20.2 -20.8,-3.38 -42.4,-6.74 -64.85,-10.1 -1.14,0 -2.81,-1.13 -5.06,-3.37 -2.26,-2.27 -3.37,-4.52 -3.37,-6.74 -25.84,-85.36 -46.604,-174.35 -62.322,-266.99 -15.735,-92.65 -33.129,-182.76 -52.215,-270.35 -2.27,-5.62 -5.059,-11.22 -8.422,-16.84 -3.371,-5.61 -7.871,-8.44 -13.473,-8.44 -7.871,0 -13.473,2.27 -16.851,6.76 -3.368,4.49 -6.18,9.54 -8.414,15.15 -21.356,98.83 -32.016,197.64 -32.016,296.46 2.246,40.43 5.617,80.28 10.117,119.61 4.469,39.28 11.203,78.04 20.207,116.22 v 5.07 c -5.625,2.21 -20.207,3.61 -43.789,4.2 -23.59,0.55 -49.434,0.55 -77.488,0 -28.086,-0.59 -54.746,-1.13 -80.008,-1.7 -25.266,-0.57 -42.953,-0.85 -53.063,-0.85 -6.742,0 -19.664,-5.63 -38.746,-16.83 -46.058,-31.46 -89.011,-65.98 -128.859,-103.61 -39.871,-37.62 -80.012,-73.83 -120.441,-108.62 -40.426,-34.83 -83.114,-65.98 -128.024,-93.49 -44.926,-27.54 -94.894,-46.92 -149.9061,-58.14 -15.7188,-2.25 -30.3203,3.4 -43.79299,16.87 -5.60938,5.58 -5.31641,12.62 0.83984,21.04 6.17965,8.43 13.76565,16.02 22.73435,22.73 67.3828,48.29 132.4879,99.66 195.4059,154.14 62.875,54.46 124.645,109.19 185.286,164.26 2.234,2.21 4.468,4.2 6.734,5.86 2.238,1.7 6.156,4.77 11.793,9.28 -49.43,6.74 -96.859,16 -142.328,27.8 -45.485,11.79 -91.809,22.14 -138.981,31.17 -15.726,5.58 -31.445,10.64 -47.1638,15.15 -15.7383,4.46 -30.8984,10.66 -45.4844,18.53 -7.8632,8.96 -7.5703,14.3 0.8555,16 8.4141,1.68 15.4219,2.53 21.0469,2.53 16.8476,2.24 32.8518,4.2 48.0118,5.88 15.16,1.71 31.156,3.64 48.008,5.91 71.851,1.09 137.832,3.35 197.918,6.74 60.07,3.38 119.859,5.03 179.394,5.03 5.614,0 10.379,1.14 14.324,3.38 3.918,2.24 8.129,4.46 12.629,6.74 50.528,47.17 97.411,95.43 140.657,144.87 43.218,49.39 84.777,99.92 124.644,151.58 39.848,51.67 78.332,104.16 115.395,157.5 37.054,53.32 74.657,106.97 112.847,160.87 17.95,25.84 42.67,34.82 74.12,26.97 8.97,-3.38 17.4,-10.4 25.27,-21.08 7.84,-10.68 11.79,-22.17 11.79,-34.5 -9,-101.09 -25.56,-198.53 -49.7,-292.26 -24.15,-93.78 -45.76,-187.84 -64.85,-282.17 0,-2.23 -0.28,-4.79 -0.84,-7.58 -0.58,-2.79 -0.83,-4.77 -0.83,-5.88" /><path
         id="path16"
         style="fill:#f3e3d3;fill-opacity:1;fill-rule:nonzero;stroke:none"
         d="m 2067.42,1559.8 c 12.35,5.63 19.94,5.32 22.75,-0.85 2.79,-6.16 1.95,-13.75 -2.53,-22.74 -6.73,-13.46 -15.16,-25.85 -25.26,-37.05 -10.11,-11.23 -21.36,-21.89 -33.69,-32 -25.84,-23.59 -47.46,-42.97 -64.85,-58.12 -17.43,-15.15 -32.01,-27.25 -43.8,-36.21 -11.79,-9 -21.63,-16.28 -29.48,-21.9 -7.87,-5.63 -15.16,-10.69 -21.89,-15.15 -25.85,-15.75 -51.39,-30.89 -76.65,-45.5 -25.26,-14.61 -49.13,-25.24 -71.59,-32 -34.82,-10.11 -68.79,-10.4 -101.91,-0.85 -33.13,9.55 -58.11,29.49 -74.96,59.82 -19.07,34.79 -26.94,74.94 -23.58,120.44 3.37,45.46 14.89,89.26 34.54,131.37 19.62,42.12 45.74,78.05 78.32,107.82 32.56,29.73 68.49,45.73 107.8,48 12.35,2.25 24.98,-1.42 37.91,-10.94 12.89,-9.55 21.04,-20.52 24.42,-32.85 3.37,-10.12 3.91,-21.37 1.68,-33.7 -2.25,-12.37 -5.34,-26.1 -9.26,-41.26 -3.95,-15.18 -8.15,-31.75 -12.63,-49.68 -4.5,-17.99 -8.43,-36.52 -11.8,-55.59 -2.25,-6.76 -5.34,-10.4 -9.26,-10.97 -3.95,-0.56 -7.57,1.94 -10.94,7.59 -12.38,19.07 -19.96,37.32 -22.75,54.75 -2.82,17.4 -5.9,33.95 -9.27,49.68 -6.73,0 -15.44,-6.47 -26.1,-19.37 -10.69,-12.91 -21.06,-28.93 -31.16,-48 -10.11,-19.13 -18.53,-39.59 -25.27,-61.47 -6.74,-21.91 -10.11,-41.27 -10.11,-58.14 0,-22.45 3.37,-39.31 10.11,-50.54 6.74,-11.22 15.16,-17.95 25.27,-20.2 10.1,-2.25 21.9,-1.68 35.37,1.68 13.47,3.38 26.95,8.44 40.42,15.17 59.51,28.05 116.79,58.12 171.82,90.12 55.01,31.99 107.8,68.23 158.33,108.64" /><path
         id="path18"
         style="fill:#f3e3d3;fill-opacity:1;fill-rule:nonzero;stroke:none"
         d="m 2306.61,1541.27 c 2.23,0 4.46,1.11 6.73,3.36 2.24,2.26 3.37,4.49 3.37,6.76 8.97,21.32 13.19,44.9 12.64,70.75 -0.59,25.81 -8.72,46.57 -24.43,62.3 -7.87,8.98 -17.98,14.04 -30.33,15.17 -12.36,1.09 -24.15,-1.13 -35.36,-6.73 -22.48,-13.49 -40.43,-29.23 -53.91,-47.17 -13.47,-17.98 -26.4,-36.51 -38.73,-55.59 0,-5.62 1.1,-9.54 3.36,-11.79 11.22,-10.12 16.26,-21.34 15.16,-33.7 0,-5.63 6.44,-8.99 19.37,-10.09 12.89,-1.14 27.51,-1.43 43.8,-0.83 16.27,0.54 32.01,1.93 47.17,4.2 15.16,2.23 25.52,3.36 31.16,3.36 z m -149.92,-259.4 c 11.21,2.22 23.85,10.37 37.89,24.43 14.03,14.02 27.51,30.02 40.43,48.01 12.9,17.93 24.14,36.2 33.69,54.73 9.54,18.53 16.01,33.96 19.38,46.32 -22.47,-2.24 -46.62,-3.38 -72.44,-3.38 -25.84,0 -49.97,2.27 -72.42,6.76 -3.37,-10.11 -5.64,-23.33 -6.75,-39.58 -1.12,-16.29 -1.12,-33.16 0,-50.56 1.11,-17.39 3.38,-33.96 6.75,-49.67 3.37,-15.75 7.83,-28.08 13.47,-37.06 z m 245.93,276.25 c 13.47,1.11 28.05,4.47 43.79,10.09 15.72,5.63 30.32,10.12 43.79,13.47 15.72,4.5 32.28,9.84 49.7,16.03 17.4,6.14 33.96,10.94 49.7,14.32 11.2,0 15.7,-3.12 13.47,-9.26 -2.27,-6.2 -7.58,-13.47 -16,-21.91 -8.43,-8.44 -17.97,-16.57 -28.65,-24.41 -10.68,-7.9 -18.81,-13.48 -24.41,-16.86 -26.95,-12.36 -53.65,-21.91 -80.01,-28.64 -26.4,-6.74 -51.38,-16.28 -74.97,-28.62 -10.1,-17.98 -24.15,-41.86 -42.1,-71.61 -17.99,-29.76 -37.91,-58.68 -59.81,-86.74 -21.89,-28.07 -44.92,-52.23 -69.05,-72.43 -24.17,-20.21 -47.46,-30.32 -69.91,-30.32 -31.46,0 -58.4,8.97 -80.85,26.94 -16.85,11.22 -29.48,28.64 -37.91,52.23 -8.41,23.58 -13.47,49.11 -15.15,76.64 -1.69,27.49 -0.85,54.45 2.52,80.85 3.37,26.38 7.33,48.02 11.79,64.86 1.14,7.84 2.81,13.18 5.06,15.99 2.25,2.81 4.5,4.78 6.74,5.89 2.26,1.13 4.78,2.26 7.57,3.38 2.82,1.11 5.35,3.38 7.59,6.73 3.36,12.34 6.73,25.29 10.1,38.76 3.37,13.47 8.42,25.81 15.16,37.06 19.08,33.68 43.51,64.85 73.28,93.49 29.74,28.63 64.27,45.19 103.6,49.68 24.68,4.47 47.41,3.36 68.21,-3.35 20.77,-6.76 39.01,-19.67 54.74,-38.76 13.48,-14.61 23.01,-30.61 28.64,-48 5.6,-17.42 8.97,-34.27 10.11,-50.55 1.11,-16.29 0.55,-31.16 -1.68,-44.63 -2.27,-13.47 -3.96,-23.58 -5.06,-30.32" /><path
         id="path20"
         style="fill:#f3e3d3;fill-opacity:1;fill-rule:nonzero;stroke:none"
         d="m 2955.12,1709.73 c -42.7,-19.12 -81.99,-47.46 -117.91,-85.08 -35.96,-37.62 -69.91,-79.45 -101.92,-125.49 -32,-46.04 -63.16,-93.78 -93.48,-143.18 -30.33,-49.44 -60.65,-95.45 -90.96,-138.11 -8.98,-10.12 -19.64,-12.9 -32.01,-8.41 -12.34,4.48 -20.21,13.18 -23.59,26.08 -3.37,12.91 -2.23,26.67 3.38,41.27 7.87,26.94 15.45,57.29 22.74,90.97 7.31,33.67 14.32,69.06 21.06,106.11 6.73,37.06 13.73,74.12 21.05,111.2 7.29,37.05 14.87,72.41 22.74,106.11 2.23,8.96 7.57,15.98 16,21.03 8.42,5.07 17.69,7.85 27.79,8.45 10.12,0.53 19.09,-1.45 26.96,-5.89 7.84,-4.52 12.89,-11.25 15.16,-20.23 4.48,-22.47 3.08,-49.44 -4.21,-80.85 -7.32,-31.46 -15.45,-62.32 -24.42,-92.65 20.2,24.7 42.37,53.63 66.52,86.76 24.14,33.09 50.54,64 79.17,92.65 28.64,28.62 58.96,52.21 90.96,70.73 32.01,18.53 65.41,26.12 100.23,22.74 17.95,-5.62 32.27,-14.89 42.95,-27.79 10.66,-12.93 18.79,-27.54 24.43,-43.8 5.6,-16.3 8.69,-32.28 9.27,-48 0.55,-15.74 -0.84,-29.23 -4.21,-40.43 -7.87,-15.74 -17.14,-32.86 -27.8,-51.38 -10.69,-18.53 -19.1,-37.34 -25.27,-56.44 -6.18,-19.1 -8.71,-37.89 -7.58,-56.42 1.1,-18.52 10.11,-35.09 26.96,-49.69 6.73,-8.99 6.15,-15.75 -1.69,-20.21 -7.87,-4.52 -18.53,-7.02 -32,-7.59 -13.49,-0.57 -26.95,0.85 -40.43,4.21 -13.48,3.38 -23.03,8.43 -28.64,15.17 -17.98,24.68 -28.93,49.68 -32.84,74.96 -3.96,25.27 -3.11,50.79 2.51,76.62 5.62,25.84 14.59,51.1 26.96,75.83 12.35,24.67 26.37,48.25 42.12,70.75" /><path
         id="path22"
         style="fill:#f3e3d3;fill-opacity:1;fill-rule:nonzero;stroke:none"
         d="m 4312.78,2279.07 c -70.75,-108.95 -133.65,-220.67 -188.66,-335.22 -55.03,-114.53 -103.33,-233.03 -144.86,-355.41 25.82,47.17 56.42,101.06 91.8,161.7 35.37,60.65 69.91,122.69 103.58,186.15 33.69,63.43 63.44,125.21 89.28,185.28 25.82,60.06 42.12,112.57 48.86,157.5 z m -756.32,-840.56 3.37,-5.06 c 38.16,30.35 76.64,60.36 115.38,90.14 38.74,29.73 78.88,59.23 120.44,88.44 -23.58,11.2 -49.14,12.62 -76.64,4.2 -27.53,-8.41 -53.35,-22.47 -77.49,-42.11 -24.15,-19.66 -44.37,-42.11 -60.63,-67.38 -16.3,-25.26 -24.43,-48 -24.43,-68.23 z m 264.46,254.37 c 0,2.25 0.54,3.9 1.68,5.03 0,1.14 0.56,1.7 1.69,1.7 34.79,74.12 69.32,145.71 103.59,214.77 34.24,69.08 69.07,135.6 104.43,199.6 35.39,64.03 72.44,125.76 111.18,185.29 38.74,59.52 80.01,117.35 123.81,173.5 24.69,28.07 44.64,40.43 59.79,37.05 15.17,-3.35 26.38,-14.88 33.7,-34.5 7.29,-19.66 11.49,-42.96 12.63,-69.91 1.11,-26.96 0.56,-48.87 -1.69,-65.7 -16.84,-69.65 -39.58,-139.25 -68.22,-208.87 -28.63,-69.65 -60.93,-138.97 -96.85,-208.03 -35.96,-69.06 -74.69,-137.87 -116.23,-206.36 -41.56,-68.5 -83.66,-137.01 -126.33,-205.5 -5.64,-6.74 -9.85,-13.76 -12.64,-21.06 -2.81,-7.33 -5.34,-15.46 -7.57,-24.41 -2.27,-10.12 -4.8,-24.42 -7.59,-42.95 -2.81,-18.52 -4.5,-37.9 -5.06,-58.14 -0.58,-20.2 0.85,-38.73 4.22,-55.58 3.37,-16.83 9.53,-27.51 18.53,-32 13.48,-6.74 33.11,-5.34 58.96,4.21 25.81,9.55 53.31,23.87 82.54,42.96 29.18,19.1 58.66,40.99 88.42,65.7 29.75,24.68 55.3,48.26 76.65,70.74 2.24,2.25 5.61,1.96 10.11,-0.83 4.47,-2.83 8.13,-7.04 10.95,-12.64 2.78,-5.65 3.92,-12.08 3.37,-19.38 -0.59,-7.3 -4.79,-14.3 -12.64,-21.06 -25.84,-22.47 -57.56,-50.81 -95.18,-85.06 -37.63,-34.26 -76.92,-65.98 -117.9,-95.17 -41,-29.19 -81.15,-51.38 -120.44,-66.55 -39.32,-15.15 -73.01,-15.41 -101.07,-0.83 -25.84,13.48 -44.09,35.1 -54.75,64.85 -10.68,29.76 -16.57,62.32 -17.67,97.7 -1.14,35.39 0.26,70.17 4.21,104.44 3.92,34.25 7.57,61.5 10.94,81.68 -2.26,-2.25 -4.21,-5.34 -5.89,-9.26 -1.69,-3.93 -3.66,-7.57 -5.89,-10.92 -15.75,-17.99 -33.7,-39.61 -53.92,-64.86 -20.2,-25.28 -42.39,-48.58 -66.52,-69.9 -24.17,-21.37 -49.71,-37.65 -76.64,-48.88 -26.96,-11.22 -54.49,-11.77 -82.55,-1.65 -15.71,8.95 -29.48,19.9 -41.27,32.83 -11.78,12.9 -17.68,30.04 -17.68,51.37 0,41.53 8.15,83.65 24.43,126.33 16.28,42.68 38.45,80.59 66.52,113.72 28.07,33.09 61.2,59.51 99.38,79.18 38.17,19.61 79.17,27.79 122.97,24.41 12.35,-2.27 24.98,-5.37 37.91,-9.26 12.89,-3.95 23.85,-10.95 32.83,-21.07 l 6.75,-6.73" /><path
         id="path24"
         style="fill:#f3e3d3;fill-opacity:1;fill-rule:nonzero;stroke:none"
         d="m 4449.21,1329.04 c -10.1,-7.89 -21.33,-16.59 -33.69,-26.12 -12.37,-9.57 -25.84,-17.98 -40.43,-25.26 -14.6,-7.32 -30.06,-12.93 -46.32,-16.85 -16.29,-3.94 -33.42,-4.21 -51.37,-0.82 -13.48,2.22 -25.85,6.99 -37.06,14.32 -11.21,7.28 -21.9,15.97 -32.01,26.09 -10.09,10.11 -16.26,24.67 -18.52,43.79 -2.24,19.07 -2.79,34.25 -1.69,45.49 5.63,29.17 13.49,60.06 23.58,92.65 10.11,32.55 22.48,64.56 37.06,96 24.69,51.64 56.15,97.7 94.34,138.12 38.15,40.43 84.22,66.26 138.12,77.49 17.95,4.46 36.76,5.32 56.43,2.53 19.63,-2.81 36.76,-9.27 51.38,-19.38 14.57,-10.09 25.81,-22.74 33.68,-37.89 7.84,-15.15 9.53,-31.74 5.06,-49.7 -2.27,-6.73 -4.79,-13.47 -7.58,-20.2 -2.82,-6.74 -6.19,-12.37 -10.12,-16.85 -3.94,-4.5 -7.57,-7.02 -10.93,-7.57 -3.37,-0.59 -6.74,2.51 -10.11,9.26 -1.13,3.36 -2.53,8.13 -4.22,14.33 -1.68,6.14 -4.21,12.33 -7.58,18.53 -3.36,6.14 -8.16,11.77 -14.32,16.82 -6.18,5.06 -14.32,7.59 -24.42,7.59 -21.35,0 -45.49,-13.21 -72.43,-39.59 -26.95,-26.39 -52.79,-57.28 -77.49,-92.64 -24.71,-35.38 -46.06,-70.76 -64,-106.11 -17.98,-35.38 -29.22,-62.07 -33.7,-80.03 -6.73,-29.21 -6.19,-44.62 1.68,-46.32 7.85,-1.68 20.23,4.49 37.06,18.53 16.86,14.04 35.94,33.42 57.28,58.11 21.32,24.7 41.53,49.12 60.64,73.29 19.08,24.11 35.63,45.48 49.69,64 14.03,18.53 21.6,28.34 22.74,29.47 14.59,11.23 29.19,16.29 43.79,15.15 14.58,-1.13 27.22,-6.48 37.91,-15.97 10.66,-9.58 17.95,-21.37 21.9,-35.41 3.93,-14.04 2.53,-28.36 -4.22,-42.94 -7.87,-17.99 -18.26,-39.3 -31.16,-64 -12.92,-24.72 -21.06,-46.63 -24.43,-65.7 -3.36,-29.21 0,-48.29 10.12,-57.27 10.1,-9 28.63,-8.41 55.59,1.68 21.32,8.98 43.79,24.98 67.37,48 23.57,23.02 46.87,47.43 69.9,73.29 23.01,25.83 44.64,50.53 64.85,74.11 20.22,23.57 37.06,40.99 50.54,52.21 3.37,3.38 7.57,7 12.63,10.97 5.05,3.92 9.27,4.75 12.64,2.5 5.59,-2.24 8.68,-5.34 9.26,-9.26 0.55,-3.93 0.84,-8.13 0.84,-12.62 -14.6,-35.97 -32,-71.33 -52.22,-106.12 -20.21,-34.83 -42.95,-67.12 -68.21,-96.85 -25.27,-29.78 -53.36,-56.18 -84.22,-79.17 -30.91,-23.04 -64.31,-41.27 -100.24,-54.74 -22.47,-7.84 -42.69,-10.4 -60.64,-7.6 -17.97,2.83 -34.26,9.25 -48.84,19.37 -14.62,10.12 -26.4,23.02 -35.38,38.76 -9,15.69 -15.16,32.54 -18.53,50.53" /><path
         id="path26"
         style="fill:#f3e3d3;fill-opacity:1;fill-rule:nonzero;stroke:none"
         d="m 5357.11,1345.87 c -12.37,-12.36 -29.22,-30.06 -50.54,-53.04 -21.34,-23.04 -41.26,-48.02 -59.79,-74.96 -18.53,-26.95 -33.69,-53.63 -45.49,-80.02 -11.79,-26.38 -14.86,-49.11 -9.26,-68.22 22.45,10.1 45.48,26.69 69.07,49.68 23.57,23.03 44.34,48.31 62.32,75.82 17.95,27.51 30.58,54.74 37.89,81.68 7.3,26.94 5.9,49.96 -4.2,69.06 z m -57.27,75.81 c -22.48,31.44 -44.64,63.44 -66.53,96 -21.91,32.57 -32.86,68.5 -32.86,107.82 0,43.8 12.64,85.06 37.9,123.8 25.27,38.75 54.17,69.9 86.75,93.49 13.48,8.98 27.21,16.26 41.27,21.88 14.03,5.63 28.9,5.06 44.64,-1.65 6.73,-3.38 13.74,-5.91 21.05,-7.61 7.3,-1.66 13.75,-3.64 19.37,-5.88 5.62,-2.25 11.8,-5.63 18.54,-10.1 6.74,-4.51 10.1,-10.68 10.1,-18.53 0,-31.47 0.84,-57 2.53,-76.66 1.68,-19.67 4.21,-36.49 7.58,-50.53 3.37,-14.04 6.74,-26.37 10.11,-37.06 3.36,-10.68 6.73,-22.17 10.1,-34.51 2.24,-11.25 1.68,-20.79 -1.68,-28.64 -3.37,-7.89 -11.79,-9 -25.27,-3.38 -24.72,8.98 -42.95,26.97 -54.74,53.91 -11.79,26.94 -20.5,51.64 -26.11,74.11 -1.13,4.47 -3.95,12.34 -8.43,23.59 -4.5,11.2 -7.31,19.07 -8.41,23.59 -9.01,2.22 -19.67,-0.85 -32.01,-9.27 -12.37,-8.43 -23.33,-19.94 -32.85,-34.55 -9.55,-14.61 -15.74,-31.43 -18.52,-50.53 -2.81,-19.09 0.83,-38.19 10.94,-57.26 4.48,-6.74 10.95,-14.92 19.38,-24.41 8.42,-9.58 16.84,-19.38 25.26,-29.5 8.42,-10.12 16.85,-19.95 25.27,-29.47 8.42,-9.57 15.42,-17.14 21.05,-22.76 6.74,-6.71 11.21,-10.38 13.47,-10.92 2.24,-0.59 7.85,0.83 16.85,4.21 11.22,5.6 28.35,12.9 51.38,21.89 23,8.97 47.17,17.95 72.43,26.93 25.27,8.99 49.41,16.57 72.43,22.74 23,6.19 40.69,9.26 53.06,9.26 7.85,0 13.48,-2.79 16.85,-8.41 3.36,-3.35 2.78,-7.84 -1.68,-13.47 -4.5,-5.62 -10.4,-11.25 -17.7,-16.83 -7.31,-5.65 -14.9,-10.68 -22.73,-15.17 -7.87,-4.49 -12.93,-7.33 -15.16,-8.41 -19.11,-11.26 -43.25,-23.87 -72.44,-37.91 -29.21,-14.04 -54.47,-27.79 -75.79,-41.27 -2.27,-2.27 -6.48,-4.49 -12.64,-6.76 -6.19,-2.24 -10.95,-4.49 -14.31,-6.71 13.46,-30.34 23,-56.43 28.63,-78.32 5.6,-21.91 7.59,-42.97 5.9,-63.2 -1.68,-20.18 -5.9,-40.69 -12.64,-61.47 -6.74,-20.77 -15.74,-44.64 -26.95,-71.59 -15.75,-25.8 -31.74,-50.52 -48,-74.11 -16.3,-23.58 -34.54,-44.9 -54.75,-64 -20.22,-19.089 -42.12,-34.269 -65.69,-45.491 -23.58,-11.227 -49.43,-16.86 -77.5,-16.86 -15.7,0 -30.86,1.992 -45.47,5.91 -14.58,3.95 -26.95,12.082 -37.05,24.45 -25.82,28.071 -40.44,58.681 -43.81,91.781 -3.37,33.14 -0.55,65.99 8.43,98.54 6.73,20.2 15.16,38.73 25.26,55.6 24.72,42.64 51.96,78.87 81.7,108.62 29.75,29.76 60.91,58.14 93.49,85.08" /><path
         id="path28"
         style="fill:#f3e3d3;fill-opacity:1;fill-rule:nonzero;stroke:none"
         d="m 5865.79,1329.04 c -10.1,-7.89 -21.34,-16.59 -33.69,-26.12 -12.37,-9.57 -25.85,-17.98 -40.43,-25.26 -14.61,-7.32 -30.05,-12.93 -46.31,-16.85 -16.3,-3.94 -33.44,-4.21 -51.39,-0.82 -13.47,2.22 -25.84,6.99 -37.05,14.32 -11.22,7.28 -21.91,15.97 -32,26.09 -10.11,10.11 -16.27,24.67 -18.53,43.79 -2.24,19.07 -2.79,34.25 -1.69,45.49 5.64,29.17 13.48,60.06 23.59,92.65 10.09,32.55 22.47,64.56 37.05,96 24.68,51.64 56.14,97.7 94.33,138.12 38.16,40.43 84.22,66.26 138.12,77.49 17.96,4.46 36.77,5.32 56.43,2.53 19.63,-2.81 36.77,-9.27 51.39,-19.38 14.57,-10.09 25.8,-22.74 33.67,-37.89 7.85,-15.15 9.54,-31.74 5.06,-49.7 -2.26,-6.73 -4.78,-13.47 -7.57,-20.2 -2.83,-6.74 -6.2,-12.37 -10.12,-16.85 -3.94,-4.5 -7.57,-7.02 -10.94,-7.57 -3.37,-0.59 -6.73,2.51 -10.1,9.26 -1.13,3.36 -2.53,8.13 -4.22,14.33 -1.68,6.14 -4.21,12.33 -7.58,18.53 -3.37,6.14 -8.16,11.77 -14.32,16.82 -6.18,5.06 -14.32,7.59 -24.43,7.59 -21.34,0 -45.48,-13.21 -72.42,-39.59 -26.95,-26.39 -52.8,-57.28 -77.5,-92.64 -24.71,-35.38 -46.04,-70.76 -63.99,-106.11 -17.99,-35.38 -29.23,-62.07 -33.69,-80.03 -6.75,-29.21 -6.2,-44.62 1.68,-46.32 7.84,-1.68 20.21,4.49 37.06,18.53 16.84,14.04 35.92,33.42 57.27,58.11 21.32,24.7 41.53,49.12 60.65,73.29 19.07,24.11 35.62,45.48 49.68,64 14.03,18.53 21.6,28.34 22.74,29.47 14.58,11.23 29.19,16.29 43.79,15.15 14.59,-1.13 27.21,-6.48 37.91,-15.97 10.66,-9.58 17.95,-21.37 21.89,-35.41 3.93,-14.04 2.53,-28.36 -4.22,-42.94 -7.86,-17.99 -18.25,-39.3 -31.15,-64 -12.92,-24.72 -21.06,-46.63 -24.43,-65.7 -3.36,-29.21 0,-48.29 10.11,-57.27 10.11,-9 28.64,-8.41 55.59,1.68 21.32,8.98 43.8,24.98 67.38,48 23.58,23.02 46.87,47.43 69.9,73.29 23,25.83 44.64,50.53 64.85,74.11 20.21,23.57 37.06,40.99 50.54,52.21 3.36,3.38 7.57,7 12.63,10.97 5.05,3.92 9.27,4.75 12.63,2.5 5.6,-2.24 8.69,-5.34 9.27,-9.26 0.55,-3.93 0.84,-8.13 0.84,-12.62 -14.61,-35.97 -32.01,-71.33 -52.22,-106.12 -20.21,-34.83 -42.96,-67.12 -68.22,-96.85 -25.27,-29.78 -53.35,-56.18 -84.22,-79.17 -30.9,-23.04 -64.31,-41.27 -100.23,-54.74 -22.48,-7.84 -42.69,-10.4 -60.64,-7.6 -17.98,2.83 -34.26,9.25 -48.84,19.37 -14.62,10.12 -26.4,23.02 -35.38,38.76 -9,15.69 -15.17,32.54 -18.53,50.53" /><path
         id="path30"
         style="fill:#f3e3d3;fill-opacity:1;fill-rule:nonzero;stroke:none"
         d="m 6593.46,1890.15 c -7.87,-4.49 -17.43,-10.09 -28.64,-16.83 -11.24,-6.73 -20.79,-11.53 -28.63,-14.32 -7.88,-2.81 -12.38,-1.98 -13.48,2.54 -1.13,4.46 5.05,16.84 18.53,37.05 12.34,14.58 24.68,28.9 37.06,42.94 12.33,14.04 24.68,27.22 37.06,39.61 28.05,29.16 58.95,56.67 92.64,82.53 8.97,7.85 17.95,8.98 26.96,3.36 8.96,-5.63 13.46,-13.48 13.46,-23.59 0,-12.36 -5.9,-26.09 -17.68,-41.27 -11.8,-15.14 -26.11,-30.06 -42.96,-44.62 -16.84,-14.6 -33.98,-27.79 -51.37,-39.6 -17.43,-11.77 -31.75,-21.04 -42.95,-27.8 z m 427.85,-333.7 h 1.68 v -13.48 c -11.24,-40.44 -28.63,-76.95 -52.22,-109.52 -9.01,-11.22 -19.95,-27.22 -32.84,-47.97 -12.93,-20.8 -24.42,-37.36 -34.54,-49.7 -23.57,-25.86 -45.77,-48.59 -66.53,-68.24 -20.8,-19.66 -45.78,-37.34 -74.96,-53.05 -13.48,-6.74 -28.38,-12.65 -44.64,-17.71 -16.29,-5.03 -32.59,-7.56 -48.85,-7.56 -16.3,0 -31.74,2.82 -46.32,8.42 -14.61,5.63 -26.95,15.73 -37.06,30.34 -17.97,22.43 -27.79,49.11 -29.48,80 -1.68,30.87 3.64,62.59 16.01,95.17 -2.27,-2.26 -5.64,-5.62 -10.11,-10.11 -4.5,-4.49 -9.55,-9.55 -15.17,-15.17 -5.62,-5.63 -10.93,-10.92 -15.99,-15.98 -5.05,-5.05 -8.71,-8.17 -10.95,-9.26 -16.85,-16.85 -33.69,-31.48 -50.54,-43.82 -16.83,-12.36 -34.26,-23.02 -52.21,-32 -14.61,-6.74 -27.24,-10.68 -37.9,-11.77 -10.69,-1.13 -20.5,0.83 -29.49,5.86 -8.99,5.06 -17.67,12.67 -26.1,22.76 -8.43,10.09 -17.69,21.91 -27.79,35.38 -14.58,20.21 -25.54,40.13 -32.85,59.79 -7.29,19.62 -8.69,40.7 -4.21,63.15 2.26,7.85 4.21,15.74 5.89,23.59 1.68,7.85 4.21,15.17 7.58,21.91 6.74,19.07 14.88,40.98 24.43,65.67 9.52,24.73 19.36,49.42 29.48,74.12 10.11,24.72 19.92,48.02 29.47,69.91 9.53,21.91 17.69,39.61 24.43,53.08 7.85,20.21 19.63,30.3 35.38,30.3 15.7,0 30.03,-6.17 42.95,-18.53 12.9,-12.36 22.74,-28.62 29.47,-48.83 6.74,-20.23 5.06,-39.89 -5.04,-58.96 -5.65,-13.47 -14.06,-32.6 -25.28,-57.27 -11.23,-24.72 -22.74,-50.29 -34.53,-76.64 -11.79,-26.4 -22.18,-51.38 -31.16,-74.97 -9,-23.56 -14.05,-41 -15.16,-52.21 0,-24.71 4.76,-37.64 14.32,-38.76 9.52,-1.13 22.45,5.06 38.73,18.53 16.28,13.48 34.25,32.29 53.92,56.45 19.62,24.15 39.58,49.67 59.78,76.64 20.23,26.96 39.02,53.05 56.45,78.34 17.39,25.24 32.26,45.73 44.63,61.47 15.71,28.06 28.9,53.06 39.58,74.95 10.66,21.91 26.66,43.53 48.02,64.84 11.2,4.5 24.68,3.65 40.42,-2.5 15.71,-6.19 29.73,-15.45 42.11,-27.79 12.34,-12.39 21.05,-26.12 26.11,-41.27 5.05,-15.17 3.63,-28.38 -4.22,-39.61 -20.2,-25.83 -38.48,-47.74 -54.74,-65.7 -16.3,-17.96 -31.73,-40.97 -46.31,-69.06 -7.88,-17.96 -16.86,-37.88 -26.96,-59.79 -10.11,-21.88 -19.37,-44.38 -27.79,-67.36 -8.43,-23.04 -15.17,-45.49 -20.23,-67.4 -5.03,-21.88 -6.47,-41.26 -4.2,-58.09 0,-19.12 9.53,-26.97 28.63,-23.59 26.96,4.47 56.7,18.79 89.28,42.95 32.55,24.13 64.57,51.64 96.01,82.55 31.44,30.86 60.65,61.19 87.6,90.94 26.95,29.74 48.27,51.95 64.01,66.56" /><path
         id="path32"
         style="fill:#f3e3d3;fill-opacity:1;fill-rule:nonzero;stroke:none"
         d="m 7789.41,2279.07 c -70.75,-108.95 -133.65,-220.67 -188.66,-335.22 -55.03,-114.53 -103.32,-233.03 -144.87,-355.41 25.82,47.17 56.43,101.06 91.81,161.7 35.37,60.65 69.91,122.69 103.58,186.15 33.7,63.43 63.44,125.21 89.28,185.28 25.82,60.06 42.12,112.57 48.86,157.5 z m -756.32,-840.56 3.37,-5.06 c 38.15,30.35 76.64,60.36 115.38,90.14 38.75,29.73 78.88,59.23 120.44,88.44 -23.57,11.2 -49.14,12.62 -76.63,4.2 -27.54,-8.41 -53.36,-22.47 -77.5,-42.11 -24.15,-19.66 -44.38,-42.11 -60.64,-67.38 -16.29,-25.26 -24.42,-48 -24.42,-68.23 z m 264.46,254.37 c 0,2.25 0.55,3.9 1.68,5.03 0,1.14 0.56,1.7 1.69,1.7 34.79,74.12 69.32,145.71 103.59,214.77 34.24,69.08 69.07,135.6 104.43,199.6 35.38,64.03 72.44,125.76 111.17,185.29 38.75,59.52 80.02,117.35 123.82,173.5 24.69,28.07 44.64,40.43 59.79,37.05 15.17,-3.35 26.38,-14.88 33.7,-34.5 7.29,-19.66 11.49,-42.96 12.62,-69.91 1.12,-26.96 0.56,-48.87 -1.69,-65.7 -16.83,-69.65 -39.57,-139.25 -68.21,-208.87 -28.63,-69.65 -60.93,-138.97 -96.85,-208.03 -35.96,-69.06 -74.69,-137.87 -116.23,-206.36 -41.56,-68.5 -83.67,-137.01 -126.33,-205.5 -5.64,-6.74 -9.85,-13.76 -12.64,-21.06 -2.81,-7.33 -5.34,-15.46 -7.57,-24.41 -2.27,-10.12 -4.8,-24.42 -7.59,-42.95 -2.81,-18.52 -4.5,-37.9 -5.05,-58.14 -0.58,-20.2 0.84,-38.73 4.21,-55.58 3.37,-16.83 9.53,-27.51 18.53,-32 13.48,-6.74 33.11,-5.34 58.95,4.21 25.82,9.55 53.32,23.87 82.54,42.96 29.19,19.1 58.67,40.99 88.43,65.7 29.75,24.68 55.3,48.26 76.64,70.74 2.25,2.25 5.62,1.96 10.12,-0.83 4.47,-2.83 8.13,-7.04 10.95,-12.64 2.78,-5.65 3.91,-12.08 3.37,-19.38 -0.59,-7.3 -4.8,-14.3 -12.64,-21.06 -25.84,-22.47 -57.56,-50.81 -95.18,-85.06 -37.63,-34.26 -76.92,-65.98 -117.91,-95.17 -40.99,-29.19 -81.14,-51.38 -120.43,-66.55 -39.32,-15.15 -73.01,-15.41 -101.07,-0.83 -25.84,13.48 -44.08,35.1 -54.75,64.85 -10.68,29.76 -16.58,62.32 -17.67,97.7 -1.14,35.39 0.25,70.17 4.21,104.44 3.91,34.25 7.56,61.5 10.93,81.68 -2.25,-2.25 -4.21,-5.34 -5.88,-9.26 -1.69,-3.93 -3.67,-7.57 -5.89,-10.92 -15.75,-17.99 -33.7,-39.61 -53.91,-64.86 -20.21,-25.28 -42.4,-48.58 -66.53,-69.9 -24.17,-21.37 -49.7,-37.65 -76.64,-48.88 -26.96,-11.22 -54.5,-11.77 -82.55,-1.65 -15.72,8.95 -29.49,19.9 -41.27,32.83 -11.79,12.9 -17.68,30.04 -17.68,51.37 0,41.53 8.16,83.65 24.43,126.33 16.28,42.68 38.44,80.59 66.52,113.72 28.07,33.09 61.2,59.51 99.38,79.18 38.17,19.61 79.17,27.79 122.96,24.41 12.36,-2.27 24.98,-5.37 37.91,-9.26 12.89,-3.95 23.85,-10.95 32.85,-21.07 l 6.74,-6.73" /><path
         id="path34"
         style="fill:#f3e3d3;fill-opacity:1;fill-rule:nonzero;stroke:none"
         d="m 7949.42,1692.88 c -30.32,-11.25 -54.2,-25.85 -71.59,-43.79 -17.44,-17.99 -30.06,-44.39 -37.91,-79.17 24.68,17.96 46.88,36.21 66.54,54.73 19.63,18.53 33.95,41.26 42.96,68.23 z M 7679.9,1376.22 c -2.24,42.63 2.26,86.99 13.48,133.05 11.23,46.04 28.08,88.44 50.53,127.18 22.45,38.73 50.8,70.44 85.07,95.17 34.23,24.67 74.37,37.62 120.44,38.76 23.57,-5.65 41.81,-17.45 54.74,-35.41 12.9,-17.96 16.56,-39.84 10.94,-65.67 -4.5,-24.73 -10.94,-45.78 -19.36,-63.17 -8.43,-17.42 -22.75,-35.67 -42.95,-54.74 -10.11,-9.01 -24.17,-20.8 -42.12,-35.38 -17.97,-14.61 -35.37,-29.76 -52.22,-45.5 -16.83,-15.74 -31.44,-31.72 -43.8,-47.98 -12.37,-16.3 -18.52,-30.05 -18.52,-41.28 -3.37,-29.21 1.11,-48 13.47,-56.42 12.35,-8.43 28.34,-11.81 48.01,-10.11 19.64,1.68 39.59,6.99 59.8,16 20.21,8.96 36.47,16.85 48.84,23.59 14.58,10.08 30.88,22.73 48.85,37.88 17.95,15.17 35.93,31.17 53.92,48.02 17.95,16.83 35.36,33.09 52.21,48.83 16.84,15.74 30.86,28.64 42.1,38.76 8.99,8.98 17.11,17.4 24.43,25.27 7.29,7.84 16,14.57 26.12,20.2 8.97,2.25 16,2.79 21.05,1.7 5.05,-1.13 4.21,-9.54 -2.52,-25.29 -9.01,-19.09 -19.96,-37.05 -32.85,-53.88 -12.93,-16.85 -26.68,-33.7 -41.27,-50.53 -20.22,-22.5 -41.86,-46.09 -64.85,-70.76 -23.04,-24.72 -47.18,-47.45 -72.44,-68.21 -25.26,-20.79 -51.66,-38.76 -79.17,-53.93 -27.52,-15.12 -55.87,-24.98 -85.06,-29.45 -51.68,-3.37 -94.07,7.28 -127.19,32.01 -33.1,24.67 -49.68,65.1 -49.68,121.29" /><path
         id="path36"
         style="fill:#f3e3d3;fill-opacity:1;fill-rule:nonzero;stroke:none"
         d="m 2828.78,938.449 c -7.87,-4.519 -17.42,-10.097 -28.63,-16.847 -11.24,-6.711 -20.8,-11.543 -28.65,-14.332 -7.85,-2.782 -12.35,-1.95 -13.46,2.562 -1.14,4.457 5.05,16.828 18.52,37.047 12.35,14.562 24.69,28.891 37.06,42.953 12.35,14.008 24.69,27.198 37.06,39.578 28.06,29.19 58.95,56.7 92.64,82.53 8.98,7.85 17.95,8.98 26.96,3.38 8.98,-5.65 13.47,-13.49 13.47,-23.59 0,-12.36 -5.89,-26.11 -17.68,-41.26 -11.79,-15.15 -26.11,-30.06 -42.96,-44.64 -16.85,-14.6 -33.98,-27.799 -51.37,-39.58 -17.42,-11.801 -31.75,-21.07 -42.96,-27.801 z m 23.59,-197.269 c -30.32,-11.25 -54.19,-25.86 -71.59,-43.821 -17.43,-17.961 -30.06,-44.39 -37.9,-79.168 24.68,17.957 46.87,36.2 66.53,54.731 19.63,18.527 33.95,41.289 42.96,68.258 z M 2582.85,424.492 c -2.24,42.649 2.27,87.02 13.48,133.047 11.24,46.043 28.08,88.441 50.53,127.199 22.46,38.731 50.8,70.453 85.07,95.153 34.24,24.691 74.38,37.621 120.44,38.757 23.57,-5.628 41.82,-17.437 54.74,-35.378 12.9,-17.981 16.56,-39.872 10.95,-65.68 -4.51,-24.719 -10.95,-45.781 -19.37,-63.199 -8.43,-17.391 -22.75,-35.641 -42.95,-54.731 -10.11,-8.98 -24.17,-20.801 -42.12,-35.359 -17.97,-14.602 -35.37,-29.77 -52.22,-45.5 -16.83,-15.731 -31.44,-31.731 -43.79,-47.992 -12.37,-16.309 -18.53,-30.059 -18.53,-41.258 -3.37,-29.211 1.11,-48.031 13.47,-56.442 12.35,-8.418 28.35,-11.8 48.01,-10.121 19.64,1.703 39.59,7.004 59.8,16.032 20.22,8.949 36.48,16.82 48.85,23.582 14.58,10.089 30.87,22.738 48.85,37.878 17.95,15.161 35.92,31.18 53.91,48 17.95,16.86 35.36,33.122 52.21,48.86 16.85,15.711 30.87,28.64 42.11,38.73 8.98,8.981 17.11,17.399 24.42,25.289 7.29,7.84 16,14.563 26.12,20.211 8.97,2.239 16,2.789 21.05,1.68 5.05,-1.141 4.21,-9.551 -2.52,-25.27 -9.01,-19.121 -19.96,-37.058 -32.85,-53.898 -12.93,-16.844 -26.69,-33.684 -41.27,-50.543 -20.21,-22.469 -41.85,-46.047 -64.85,-70.75 -23.03,-24.699 -47.17,-47.457 -72.44,-68.207 -25.26,-20.801 -51.66,-38.762 -79.17,-53.91 -27.52,-15.152 -55.87,-24.981 -85.05,-29.473 -51.68,-3.347 -94.08,7.281 -127.19,32 -33.11,24.699 -49.69,65.133 -49.69,121.293" /><path
         id="path38"
         style="fill:#f3e3d3;fill-opacity:1;fill-rule:nonzero;stroke:none"
         d="m 3819.22,758 c -42.69,-19.09 -81.98,-47.449 -117.91,-85.078 -35.95,-37.621 -69.9,-79.453 -101.92,-125.461 -32,-46.07 -63.16,-93.781 -93.48,-143.211 -30.32,-49.41 -60.64,-95.43 -90.95,-138.109 -8.98,-10.11 -19.64,-12.899 -32.02,-8.411 -12.33,4.489 -20.2,13.211 -23.58,26.09 -3.37,12.899 -2.24,26.649 3.38,41.262 7.87,26.969 15.44,57.289 22.73,90.988 7.32,33.68 14.32,69.059 21.06,106.121 6.74,37.047 13.73,74.11 21.06,111.168 7.29,37.063 14.87,72.422 22.73,106.121 2.24,8.969 7.58,15.989 16,21.051 8.43,5.039 17.69,7.848 27.8,8.438 10.11,0.519 19.08,-1.449 26.95,-5.91 7.85,-4.489 12.89,-11.25 15.16,-20.227 4.48,-22.453 3.09,-49.422 -4.2,-80.82 -7.33,-31.492 -15.46,-62.352 -24.43,-92.653 20.21,24.68 42.38,53.602 66.53,86.743 24.14,33.097 50.54,63.988 79.17,92.64 28.63,28.649 58.96,52.227 90.96,70.758 32.01,18.531 65.4,26.09 100.23,22.73 17.95,-5.621 32.27,-14.878 42.95,-27.789 10.66,-12.921 -142.91,-228.82 -137.29,-202.992 5.62,25.832 14.59,51.09 26.95,75.789 12.35,24.703 26.38,48.293 42.12,70.762" /><path
         id="path40"
         style="fill:#f3e3d3;fill-opacity:1;fill-rule:nonzero;stroke:none"
         d="m 4141.23,589.551 c 2.23,0 4.47,1.129 6.73,3.371 2.24,2.25 3.37,4.469 3.37,6.738 8.98,21.309 13.19,44.91 12.64,70.762 -0.59,25.808 -8.71,46.578 -24.43,62.316 -7.87,8.953 -17.97,14.012 -30.32,15.153 -12.37,1.109 -24.16,-1.141 -35.37,-6.711 -22.47,-13.5 -40.42,-29.239 -53.91,-47.168 -13.47,-17.992 -26.4,-36.512 -38.73,-55.59 0,-5.621 1.09,-9.551 3.36,-11.82 11.22,-10.09 16.26,-21.313 15.17,-33.68 0,-5.621 6.44,-9 19.36,-10.09 12.9,-1.141 27.51,-1.422 43.8,-0.852 16.27,0.559 32.01,1.942 47.17,4.211 15.16,2.239 25.52,3.36 31.16,3.36 z m -149.92,-259.41 c 11.21,2.25 23.85,10.398 37.9,24.441 14.02,14.039 27.51,30.008 40.42,48.02 12.9,17.937 24.14,36.199 33.69,54.738 9.54,18.519 16.02,33.93 19.38,46.32 -22.48,-2.269 -46.62,-3.379 -72.44,-3.379 -25.84,0 -49.97,2.239 -72.42,6.739 -3.37,-10.122 -5.64,-23.301 -6.75,-39.559 -1.12,-16.313 -1.12,-33.172 0,-50.563 1.11,-17.418 3.38,-33.968 6.75,-49.699 3.37,-15.738 7.83,-28.07 13.47,-37.058 z m 245.93,276.281 c 13.48,1.078 28.06,4.437 43.8,10.09 15.71,5.597 30.31,10.09 43.79,13.48 15.71,4.457 32.27,9.797 49.69,15.988 17.41,6.168 33.96,10.969 49.7,14.329 11.2,0 15.71,-3.129 13.47,-9.27 -2.27,-6.187 -7.58,-13.48 -16,-21.879 -8.42,-8.441 -17.97,-16.601 -28.64,-24.449 -10.68,-7.859 -18.82,-13.461 -24.41,-16.82 -26.97,-12.391 -53.65,-21.911 -80.02,-28.653 -26.4,-6.746 -51.38,-16.308 -74.96,-28.636 -10.11,-17.961 -24.15,-41.832 -42.11,-71.582 -17.98,-29.758 -37.9,-58.68 -59.8,-86.77 -21.9,-28.078 -44.93,-52.199 -69.06,-72.41 -24.16,-20.231 -47.46,-30.34 -69.91,-30.34 -31.46,0 -58.4,8.98 -80.85,26.961 -16.85,11.23 -29.48,28.621 -37.91,52.211 -8.41,23.578 -13.47,49.109 -15.15,76.668 -1.69,27.492 -0.85,54.449 2.52,80.832 3.37,26.367 7.33,48.008 11.79,64.84 1.14,7.847 2.82,13.187 5.06,16.027 2.26,2.793 4.5,4.77 6.74,5.883 2.27,1.117 4.78,2.25 7.57,3.379 2.83,1.09 5.35,3.359 7.59,6.738 3.37,12.34 6.73,25.27 10.1,38.731 3.37,13.48 8.43,25.812 15.16,37.062 19.09,33.699 43.51,64.859 73.28,93.5 29.74,28.637 64.27,45.18 103.6,49.68 24.68,4.488 47.41,3.379 68.21,-3.364 20.76,-6.738 39.02,-19.66 54.74,-38.757 13.49,-14.602 23.01,-30.582 28.64,-47.981 5.61,-17.441 8.98,-34.269 10.11,-50.551 1.11,-16.289 0.56,-31.168 -1.68,-44.648 -2.27,-13.461 -3.96,-23.582 -5.06,-30.289" /><path
         id="path42"
         style="fill:#f3e3d3;fill-opacity:1;fill-rule:nonzero;stroke:none"
         d="m 4537.07,394.172 c -12.37,-12.371 -29.22,-30.063 -50.54,-53.063 -21.34,-23.019 -41.26,-48.027 -59.8,-74.968 -18.52,-26.95 -33.68,-53.602 -45.48,-80.02 -11.79,-26.359 -14.86,-49.109 -9.26,-68.199 22.45,10.098 45.49,26.687 69.07,49.668 23.57,23.039 44.34,48.301 62.32,75.808 17.95,27.543 30.58,54.743 37.89,81.684 7.3,26.969 5.9,49.957 -4.2,69.09 z m -57.28,75.789 c -22.47,31.43 -44.63,63.43 -66.52,96.019 -21.92,32.54 -32.86,68.469 -32.86,107.79 0,43.82 12.64,85.082 37.91,123.82 25.26,38.73 54.16,69.91 86.74,93.469 13.48,8.98 27.21,16.293 41.27,21.91 14.04,5.601 28.9,5.062 44.64,-1.68 6.73,-3.359 13.74,-5.898 21.06,-7.578 7.28,-1.68 13.74,-3.672 19.36,-5.891 5.62,-2.269 11.8,-5.629 18.53,-10.109 6.74,-4.492 10.11,-10.68 10.11,-18.539 0,-31.453 0.84,-57 2.53,-76.641 1.68,-19.66 4.21,-36.511 7.58,-50.519 3.37,-14.071 6.74,-26.403 10.1,-37.063 3.37,-10.711 6.74,-22.187 10.12,-34.527 2.23,-11.25 1.68,-20.801 -1.69,-28.652 -3.37,-7.872 -11.79,-8.969 -25.27,-3.348 -24.71,8.976 -42.95,26.937 -54.74,53.879 -11.8,26.937 -20.5,51.668 -26.11,74.121 -1.13,4.488 -3.95,12.328 -8.42,23.578 -4.51,11.211 -7.32,19.102 -8.43,23.59 -9.01,2.23 -19.66,-0.852 -31.99,-9.258 -12.38,-8.422 -23.33,-19.953 -32.86,-34.531 -9.55,-14.61 -15.74,-31.461 -18.53,-50.563 -2.81,-19.09 0.84,-38.156 10.96,-57.226 4.47,-6.762 10.94,-14.922 19.36,-24.453 8.43,-9.539 16.85,-19.368 25.26,-29.489 8.43,-10.09 16.86,-19.941 25.28,-29.441 8.42,-9.57 15.42,-17.16 21.05,-22.77 6.74,-6.73 11.21,-10.371 13.47,-10.929 2.25,-0.571 7.85,0.851 16.86,4.199 11.21,5.621 28.34,12.91 51.37,21.883 23,8.988 47.16,17.968 72.42,26.968 25.27,8.981 49.42,16.571 72.45,22.739 22.99,6.172 40.68,9.273 53.05,9.273 7.85,0 13.48,-2.82 16.84,-8.422 3.37,-3.379 2.79,-7.871 -1.67,-13.5 -4.5,-5.621 -10.4,-11.218 -17.7,-16.82 -7.31,-5.629 -14.9,-10.691 -22.73,-15.18 -7.87,-4.48 -12.93,-7.3 -15.16,-8.41 -19.11,-11.25 -43.25,-23.879 -72.44,-37.91 -29.21,-14.039 -54.47,-27.789 -75.79,-41.27 -2.28,-2.261 -6.47,-4.48 -12.64,-6.73 -6.19,-2.238 -10.95,-4.512 -14.31,-6.738 13.46,-30.321 23,-56.43 28.63,-78.321 5.61,-21.882 7.58,-42.961 5.89,-63.171 -1.67,-20.2 -5.89,-40.719 -12.63,-61.469 -6.74,-20.781 -15.74,-44.641 -26.95,-71.621 -15.74,-25.801 -31.74,-50.52 -48,-74.11 -16.3,-23.578 -34.54,-44.8981 -54.76,-63.9997 C 4520.22,43.2305 4498.32,28.082 4474.75,16.8516 4451.17,5.62891 4425.32,0 4397.25,0 c -15.7,0 -30.86,1.96875 -45.47,5.87891 -14.58,3.98047 -26.95,12.10159 -37.06,24.45309 -25.82,28.0664 -40.43,58.6993 -43.8,91.777 -3.37,33.141 -0.54,65.993 8.42,98.563 6.74,20.199 15.17,38.738 25.27,55.578 24.72,42.66 51.96,78.891 81.7,108.648 29.74,29.75 60.9,58.114 93.48,85.063" /><path
         id="path44"
         style="fill:#f3e3d3;fill-opacity:1;fill-rule:nonzero;stroke:none"
         d="m 5045.75,377.309 c -10.1,-7.86 -21.34,-16.59 -33.69,-26.079 -12.37,-9.582 -25.84,-17.988 -40.42,-25.3 -14.61,-7.321 -30.06,-12.899 -46.32,-16.821 -16.3,-3.98 -33.44,-4.211 -51.39,-0.847 -13.47,2.207 -25.84,6.988 -37.05,14.308 -11.22,7.289 -21.9,16.012 -32,26.102 -10.11,10.109 -16.27,24.687 -18.54,43.82 -2.22,19.067 -2.78,34.207 -1.69,45.457 5.65,29.192 13.49,60.082 23.6,92.653 10.09,32.57 22.47,64.57 37.05,96 24.69,51.668 56.14,97.699 94.33,138.136 38.16,40.442 84.22,66.242 138.12,77.492 17.96,4.469 36.78,5.29 56.43,2.508 19.63,-2.789 36.77,-9.269 51.38,-19.347 14.57,-10.102 25.81,-22.743 33.68,-37.891 7.85,-15.168 9.54,-31.762 5.06,-49.719 -2.25,-6.722 -4.78,-13.48 -7.58,-20.191 -2.82,-6.758 -6.19,-12.379 -10.1,-16.871 -3.96,-4.489 -7.58,-6.989 -10.95,-7.571 -3.37,-0.566 -6.74,2.532 -10.11,9.274 -1.13,3.359 -2.52,8.129 -4.21,14.316 -1.68,6.153 -4.21,12.344 -7.58,18.532 -3.37,6.14 -8.16,11.769 -14.32,16.82 -6.18,5.058 -14.32,7.609 -24.43,7.609 -21.33,0 -45.47,-13.23 -72.42,-39.609 -26.95,-26.36 -52.8,-57.258 -77.5,-92.629 -24.7,-35.371 -46.04,-70.75 -63.99,-106.129 -17.99,-35.352 -29.23,-62.062 -33.69,-80.023 -6.75,-29.207 -6.19,-44.618 1.68,-46.309 7.84,-1.668 20.21,4.48 37.05,18.52 16.85,14.039 35.93,33.421 57.27,58.14 21.32,24.672 41.55,49.11 60.65,73.27 19.07,24.129 35.63,45.468 49.69,63.992 14.03,18.539 21.61,28.359 22.74,29.5 14.58,11.199 29.19,16.258 43.79,15.148 14.58,-1.129 27.21,-6.48 37.91,-16.011 10.65,-9.539 17.95,-21.329 21.89,-35.368 3.93,-14.062 2.53,-28.39 -4.22,-42.953 -7.87,-17.976 -18.25,-39.316 -31.16,-63.988 -12.91,-24.73 -21.05,-46.629 -24.42,-65.699 -3.37,-29.211 0,-48.309 10.11,-57.301 10.11,-8.969 28.64,-8.41 55.59,1.711 21.32,8.969 43.79,24.949 67.38,48 23.58,23 46.87,47.43 69.9,73.289 23,25.801 44.64,50.531 64.85,74.109 20.21,23.563 37.06,40.981 50.54,52.211 3.37,3.379 7.57,6.989 12.63,10.93 5.04,3.93 9.26,4.781 12.63,2.531 5.61,-2.23 8.69,-5.332 9.27,-9.25 0.55,-3.949 0.84,-8.16 0.84,-12.652 -14.61,-35.949 -32,-71.328 -52.22,-106.109 -20.2,-34.821 -42.96,-67.122 -68.22,-96.86 -25.27,-29.769 -53.35,-56.148 -84.22,-79.172 -30.9,-23.019 -64.31,-41.258 -100.23,-54.738 -22.48,-7.84 -42.69,-10.371 -60.64,-7.578 -17.98,2.808 -34.26,9.258 -48.85,19.348 -14.61,10.121 -26.39,23.019 -35.37,38.761 -9,15.719 -15.16,32.571 -18.53,50.528" /></g></g></svg>